Nokyung-Bold.ufo
<glyph name="exclam" format="2">
  <advance width="688"/>
  <unicode hex="0021"/>
  <outline>
    <contour>
      <point x="427" y="1340"/>
      <point x="478" y="1326"/>
      <point x="478" y="1291" type="curve" smooth="yes"/>
      <point x="478" y="1249"/>
      <point x="478" y="1055"/>
      <point x="474" y="1031" type="curve" smooth="yes"/>
      <point x="385" y="463" type="line" smooth="yes"/>
      <point x="382" y="441"/>
      <point x="302" y="441"/>
      <point x="299" y="463" type="curve" smooth="yes"/>
      <point x="214" y="1031" type="line"/>
      <point x="212" y="1074"/>
      <point x="209" y="1249"/>
      <point x="209" y="1291" type="curve" smooth="yes"/>
      <point x="209" y="1329"/>
      <point x="262" y="1340"/>
      <point x="345" y="1340" type="curve" smooth="yes"/>
    </contour>
    <contour>
      <point x="434" y="338"/>
      <point x="508" y="263"/>
      <point x="508" y="159" type="curve" smooth="yes"/>
      <point x="508" y="55"/>
      <point x="434" y="-20"/>
      <point x="344" y="-20" type="curve" smooth="yes"/>
      <point x="256" y="-20"/>
      <point x="180" y="55"/>
      <point x="180" y="159" type="curve" smooth="yes"/>
      <point x="180" y="263"/>
      <point x="256" y="338"/>
      <point x="344" y="338" type="curve" smooth="yes"/>
    </contour>
  </outline>
</glyph>
<glyph name="numbersign" format="2">
  <advance width="1003"/>
  <unicode hex="0023"/>
  <outline>
    <contour>
      <point x="344" y="1137" type="line"/>
      <point x="43" y="84" type="line"/>
      <point x="227" y="84" type="line"/>
      <point x="528" y="1137" type="line"/>
    </contour>
    <contour>
      <point x="8" y="355" type="line"/>
      <point x="920" y="355" type="line"/>
      <point x="920" y="531" type="line"/>
      <point x="8" y="531" type="line"/>
    </contour>
    <contour>
      <point x="58" y="711" type="line"/>
      <point x="970" y="711" type="line"/>
      <point x="970" y="886" type="line"/>
      <point x="58" y="886" type="line"/>
    </contour>
    <contour>
      <point x="742" y="1137" type="line"/>
      <point x="441" y="84" type="line"/>
      <point x="624" y="84" type="line"/>
      <point x="925" y="1137" type="line"/>
    </contour>
  </outline>
</glyph>
<glyph name="dollar" format="2">
  <advance width="1003"/>
  <unicode hex="0024"/>
  <outline>
    <contour>
      <point x="841" y="1100" type="line"/>
      <point x="741" y="1149"/>
      <point x="639" y="1161"/>
      <point x="521" y="1161" type="curve" smooth="yes"/>
      <point x="265" y="1161"/>
      <point x="125" y="1006"/>
      <point x="125" y="850" type="curve" smooth="yes"/>
      <point x="125" y="694"/>
      <point x="230" y="610"/>
      <point x="451" y="521" type="curve" smooth="yes"/>
      <point x="670" y="432"/>
      <point x="711" y="395"/>
      <point x="711" y="323" type="curve" smooth="yes"/>
      <point x="711" y="223"/>
      <point x="622" y="176"/>
      <point x="490" y="176" type="curve" smooth="yes"/>
      <point x="368" y="176"/>
      <point x="248" y="235"/>
      <point x="163" y="320" type="curve"/>
      <point x="103" y="104" type="line"/>
      <point x="181" y="41"/>
      <point x="324" y="0"/>
      <point x="490" y="0" type="curve" smooth="yes"/>
      <point x="708" y="0"/>
      <point x="908" y="123"/>
      <point x="908" y="346" type="curve" smooth="yes"/>
      <point x="908" y="529"/>
      <point x="775" y="604"/>
      <point x="568" y="691" type="curve" smooth="yes"/>
      <point x="360" y="777"/>
      <point x="322" y="810"/>
      <point x="322" y="869" type="curve" smooth="yes"/>
      <point x="322" y="946"/>
      <point x="390" y="993"/>
      <point x="512" y="993" type="curve" smooth="yes"/>
      <point x="619" y="993"/>
      <point x="732" y="965"/>
      <point x="793" y="900" type="curve"/>
    </contour>
    <contour>
      <point x="458" y="1338" type="line"/>
      <point x="458" y="659" type="line"/>
      <point x="433" y="607" type="line"/>
      <point x="433" y="-184" type="line"/>
      <point x="575" y="-184" type="line"/>
      <point x="575" y="558" type="line"/>
      <point x="600" y="614" type="line"/>
      <point x="600" y="1338" type="line"/>
    </contour>
  </outline>
</glyph>
<glyph name="ampersand" format="2">
  <advance width="1133"/>
  <unicode hex="0026"/>
  <outline>
    <contour>
      <point x="886" y="502" type="line"/>
      <point x="833" y="362"/>
      <point x="598" y="159"/>
      <point x="451" y="159" type="curve" smooth="yes"/>
      <point x="355" y="159"/>
      <point x="280" y="215"/>
      <point x="280" y="309" type="curve" smooth="yes"/>
      <point x="280" y="401"/>
      <point x="344" y="457"/>
      <point x="489" y="585" type="curve" smooth="yes"/>
      <point x="640" y="718"/>
      <point x="773" y="876"/>
      <point x="773" y="995" type="curve" smooth="yes"/>
      <point x="773" y="1147"/>
      <point x="650" y="1241"/>
      <point x="481" y="1241" type="curve" smooth="yes"/>
      <point x="306" y="1241"/>
      <point x="159" y="1147"/>
      <point x="159" y="970" type="curve" smooth="yes"/>
      <point x="159" y="836"/>
      <point x="340" y="656"/>
      <point x="493" y="451" type="curve" smooth="yes"/>
      <point x="718" y="150"/>
      <point x="868" y="-21"/>
      <point x="911" y="-21" type="curve" smooth="yes"/>
      <point x="941" y="-21"/>
      <point x="1048" y="48"/>
      <point x="1078" y="75" type="curve"/>
      <point x="999" y="109"/>
      <point x="886" y="255"/>
      <point x="656" y="568" type="curve" smooth="yes"/>
      <point x="517" y="757"/>
      <point x="351" y="907"/>
      <point x="351" y="978" type="curve" smooth="yes"/>
      <point x="351" y="1037"/>
      <point x="404" y="1095"/>
      <point x="468" y="1095" type="curve" smooth="yes"/>
      <point x="535" y="1095"/>
      <point x="581" y="1048"/>
      <point x="581" y="982" type="curve" smooth="yes"/>
      <point x="581" y="925"/>
      <point x="525" y="837"/>
      <point x="380" y="702" type="curve" smooth="yes"/>
      <point x="210" y="544"/>
      <point x="75" y="441"/>
      <point x="75" y="288" type="curve" smooth="yes"/>
      <point x="75" y="101"/>
      <point x="202" y="-21"/>
      <point x="439" y="-21" type="curve" smooth="yes"/>
      <point x="675" y="-21"/>
      <point x="934" y="221"/>
      <point x="999" y="355" type="curve"/>
    </contour>
  </outline>
</glyph>
<glyph name="quotesingle" format="2">
  <advance width="568"/>
  <unicode hex="0027"/>
  <outline>
    <contour>
      <point x="423" y="1271" type="curve" smooth="yes"/>
      <point x="423" y="1219"/>
      <point x="397" y="1068"/>
      <point x="335" y="708" type="curve" smooth="yes"/>
      <point x="331" y="686"/>
      <point x="233" y="686"/>
      <point x="229" y="708" type="curve" smooth="yes"/>
      <point x="167" y="1068"/>
      <point x="145" y="1219"/>
      <point x="145" y="1271" type="curve" smooth="yes"/>
      <point x="145" y="1309"/>
      <point x="221" y="1340"/>
      <point x="284" y="1340" type="curve" smooth="yes"/>
      <point x="346" y="1340"/>
      <point x="423" y="1306"/>
    </contour>
  </outline>
</glyph>
<glyph name="parenleft" format="2">
  <advance width="752"/>
  <unicode hex="0028"/>
  <outline>
    <contour>
      <point x="657" y="-275" type="curve"/>
      <point x="603" y="-332" type="line"/>
      <point x="377" y="-187"/>
      <point x="195" y="64"/>
      <point x="195" y="425" type="curve" smooth="yes"/>
      <point x="195" y="785"/>
      <point x="377" y="1036"/>
      <point x="603" y="1182" type="curve"/>
      <point x="657" y="1125" type="line"/>
      <point x="527" y="996"/>
      <point x="405" y="755"/>
      <point x="405" y="425" type="curve" smooth="yes"/>
      <point x="405" y="95"/>
      <point x="527" y="-147"/>
    </contour>
  </outline>
</glyph>
<glyph name="parenright" format="2">
  <advance width="752"/>
  <unicode hex="0029"/>
  <outline>
    <contour>
      <point x="95" y="1125" type="curve"/>
      <point x="149" y="1182" type="line"/>
      <point x="375" y="1037"/>
      <point x="557" y="786"/>
      <point x="557" y="425" type="curve" smooth="yes"/>
      <point x="557" y="65"/>
      <point x="375" y="-186"/>
      <point x="149" y="-332" type="curve"/>
      <point x="95" y="-275" type="line"/>
      <point x="225" y="-146"/>
      <point x="347" y="95"/>
      <point x="347" y="425" type="curve" smooth="yes"/>
      <point x="347" y="755"/>
      <point x="225" y="997"/>
    </contour>
  </outline>
</glyph>
<glyph name="asterisk" format="2">
  <advance width="972"/>
  <unicode hex="002A"/>
  <outline>
    <contour>
      <point x="542" y="1459" type="curve" smooth="yes"/>
      <point x="418" y="1459" type="line" smooth="yes"/>
      <point x="395" y="1459"/>
      <point x="364" y="1450"/>
      <point x="364" y="1419" type="curve" smooth="yes"/>
      <point x="364" y="1394"/>
      <point x="373" y="1340"/>
      <point x="396" y="1282" type="curve" smooth="yes"/>
      <point x="421" y="1219"/>
      <point x="427" y="1173"/>
      <point x="427" y="1141" type="curve" smooth="yes"/>
      <point x="427" y="1119" type="line"/>
      <point x="400" y="1128" type="line" smooth="yes"/>
      <point x="369" y="1138"/>
      <point x="327" y="1158"/>
      <point x="275" y="1201" type="curve" smooth="yes"/>
      <point x="227" y="1241"/>
      <point x="180" y="1270"/>
      <point x="156" y="1277" type="curve" smooth="yes"/>
      <point x="126" y="1287"/>
      <point x="108" y="1260"/>
      <point x="101" y="1238" type="curve" smooth="yes"/>
      <point x="63" y="1121" type="line" smooth="yes"/>
      <point x="56" y="1099"/>
      <point x="55" y="1066"/>
      <point x="84" y="1057" type="curve" smooth="yes"/>
      <point x="108" y="1049"/>
      <point x="162" y="1041"/>
      <point x="224" y="1045" type="curve" smooth="yes"/>
      <point x="292" y="1049"/>
      <point x="338" y="1041"/>
      <point x="368" y="1031" type="curve" smooth="yes"/>
      <point x="390" y="1024" type="line"/>
      <point x="385" y="1017" type="line" smooth="yes"/>
      <point x="366" y="991"/>
      <point x="334" y="957"/>
      <point x="277" y="921" type="curve" smooth="yes"/>
      <point x="224" y="888"/>
      <point x="182" y="852"/>
      <point x="167" y="831" type="curve" smooth="yes"/>
      <point x="149" y="806"/>
      <point x="169" y="781"/>
      <point x="187" y="767" type="curve" smooth="yes"/>
      <point x="287" y="694" type="line" smooth="yes"/>
      <point x="306" y="681"/>
      <point x="336" y="670"/>
      <point x="355" y="695" type="curve" smooth="yes"/>
      <point x="369" y="715"/>
      <point x="394" y="764"/>
      <point x="409" y="825" type="curve" smooth="yes"/>
      <point x="426" y="890"/>
      <point x="448" y="931"/>
      <point x="467" y="957" type="curve" smooth="yes"/>
      <point x="475" y="968" type="line"/>
      <point x="482" y="959" type="line" smooth="yes"/>
      <point x="501" y="933"/>
      <point x="523" y="893"/>
      <point x="540" y="827" type="curve" smooth="yes"/>
      <point x="555" y="766"/>
      <point x="576" y="715"/>
      <point x="591" y="695" type="curve" smooth="yes"/>
      <point x="609" y="670"/>
      <point x="640" y="681"/>
      <point x="658" y="694" type="curve" smooth="yes"/>
      <point x="759" y="767" type="line" smooth="yes"/>
      <point x="777" y="780"/>
      <point x="797" y="806"/>
      <point x="779" y="831" type="curve" smooth="yes"/>
      <point x="764" y="851"/>
      <point x="725" y="890"/>
      <point x="672" y="923" type="curve" smooth="yes"/>
      <point x="615" y="960"/>
      <point x="583" y="993"/>
      <point x="564" y="1019" type="curve" smooth="yes"/>
      <point x="560" y="1025" type="line"/>
      <point x="584" y="1033" type="line" smooth="yes"/>
      <point x="614" y="1043"/>
      <point x="660" y="1051"/>
      <point x="727" y="1047" type="curve" smooth="yes"/>
      <point x="790" y="1043"/>
      <point x="845" y="1047"/>
      <point x="869" y="1055" type="curve" smooth="yes"/>
      <point x="898" y="1064"/>
      <point x="897" y="1097"/>
      <point x="890" y="1119" type="curve" smooth="yes"/>
      <point x="852" y="1236" type="line" smooth="yes"/>
      <point x="845" y="1258"/>
      <point x="827" y="1285"/>
      <point x="797" y="1275" type="curve" smooth="yes"/>
      <point x="773" y="1268"/>
      <point x="725" y="1243"/>
      <point x="677" y="1203" type="curve" smooth="yes"/>
      <point x="625" y="1159"/>
      <point x="583" y="1140"/>
      <point x="552" y="1130" type="curve" smooth="yes"/>
      <point x="529" y="1122" type="line"/>
      <point x="529" y="1141" type="line" smooth="yes"/>
      <point x="529" y="1173"/>
      <point x="535" y="1219"/>
      <point x="560" y="1282" type="curve" smooth="yes"/>
      <point x="583" y="1340"/>
      <point x="596" y="1394"/>
      <point x="596" y="1419" type="curve" smooth="yes"/>
      <point x="596" y="1450"/>
      <point x="565" y="1459"/>
    </contour>
  </outline>
</glyph>
<glyph name="plus" format="2">
  <advance width="1003"/>
  <unicode hex="002B"/>
  <outline>
    <contour>
      <point x="414" y="986" type="line"/>
      <point x="414" y="238" type="line"/>
      <point x="589" y="238" type="line"/>
      <point x="589" y="986" type="line"/>
    </contour>
    <contour>
      <point x="130" y="527" type="line"/>
      <point x="874" y="527" type="line"/>
      <point x="874" y="702" type="line"/>
      <point x="130" y="702" type="line"/>
    </contour>
  </outline>
</glyph>
<glyph name="comma" format="1">
  <advance width="688"/>
  <unicode hex="002C"/>
  <outline>
    <contour>
      <point x="526" y="101" type="curve" smooth="yes"/>
      <point x="526" y="-122"/>
      <point x="413" y="-321"/>
      <point x="273" y="-461" type="curve" smooth="yes"/>
      <point x="269" y="-465"/>
      <point x="266" y="-466"/>
      <point x="264" y="-464" type="curve" smooth="yes"/>
      <point x="260" y="-460"/>
      <point x="214" y="-414"/>
      <point x="212" y="-411" type="curve" smooth="yes"/>
      <point x="210" y="-408"/>
      <point x="211" y="-406"/>
      <point x="215" y="-401" type="curve" smooth="yes"/>
      <point x="307" y="-286"/>
      <point x="377" y="-167"/>
      <point x="377" y="-41" type="curve" smooth="yes"/>
      <point x="377" y="-4"/>
      <point x="369" y="13"/>
      <point x="355" y="13" type="curve" smooth="yes"/>
      <point x="344" y="13"/>
      <point x="327" y="-20"/>
      <point x="289" y="-20" type="curve" smooth="yes"/>
      <point x="225" y="-20"/>
      <point x="180" y="48"/>
      <point x="180" y="152" type="curve" smooth="yes"/>
      <point x="180" y="261"/>
      <point x="257" y="338"/>
      <point x="348" y="338" type="curve" smooth="yes"/>
      <point x="443" y="338"/>
      <point x="526" y="271"/>
    </contour>
  </outline>
</glyph>
<glyph name="hyphen" format="2">
  <advance width="690"/>
  <unicode hex="002D"/>
  <outline>
    <contour>
      <point x="645" y="450" type="curve" smooth="yes"/>
      <point x="645" y="477"/>
      <point x="636" y="540"/>
      <point x="618" y="540" type="curve" smooth="yes"/>
      <point x="72" y="540" type="line" smooth="yes"/>
      <point x="55" y="540"/>
      <point x="45" y="477"/>
      <point x="45" y="450" type="curve" smooth="yes"/>
      <point x="45" y="421"/>
      <point x="54" y="360"/>
      <point x="70" y="360" type="curve" smooth="yes"/>
      <point x="620" y="360" type="line" smooth="yes"/>
      <point x="637" y="360"/>
      <point x="645" y="421"/>
    </contour>
  </outline>
</glyph>
<glyph name="period" format="2">
  <advance width="688"/>
  <unicode hex="002E"/>
  <outline>
    <contour>
      <point x="508" y="159" type="curve" smooth="yes"/>
      <point x="508" y="55"/>
      <point x="434" y="-20"/>
      <point x="344" y="-20" type="curve" smooth="yes"/>
      <point x="256" y="-20"/>
      <point x="180" y="55"/>
      <point x="180" y="159" type="curve" smooth="yes"/>
      <point x="180" y="263"/>
      <point x="256" y="338"/>
      <point x="344" y="338" type="curve" smooth="yes"/>
      <point x="434" y="338"/>
      <point x="508" y="263"/>
    </contour>
  </outline>
</glyph>
<glyph name="slash" format="2">
  <advance width="796"/>
  <unicode hex="002F"/>
  <outline>
    <contour>
      <point x="751" y="1354" type="curve" smooth="yes"/>
      <point x="254" y="-8" type="line" smooth="yes"/>
      <point x="250" y="-20"/>
      <point x="180" y="-26"/>
      <point x="144" y="-26" type="curve" smooth="yes"/>
      <point x="109" y="-26"/>
      <point x="41" y="-20"/>
      <point x="45" y="-8" type="curve" smooth="yes"/>
      <point x="547" y="1354" type="line" smooth="yes"/>
      <point x="551" y="1366"/>
      <point x="621" y="1373"/>
      <point x="655" y="1373" type="curve" smooth="yes"/>
      <point x="689" y="1373"/>
      <point x="755" y="1366"/>
    </contour>
  </outline>
</glyph>
<glyph name="zero" format="1">
  <advance width="1003"/>
  <unicode hex="0030"/>
  <outline>
    <contour>
      <point x="711" y="598" type="curve" smooth="yes"/>
      <point x="711" y="308"/>
      <point x="637" y="171"/>
      <point x="502" y="171" type="curve" smooth="yes"/>
      <point x="361" y="171"/>
      <point x="293" y="314"/>
      <point x="293" y="623" type="curve" smooth="yes"/>
      <point x="293" y="914"/>
      <point x="365" y="1049"/>
      <point x="502" y="1049" type="curve" smooth="yes"/>
      <point x="645" y="1049"/>
      <point x="711" y="908"/>
    </contour>
    <contour>
      <point x="949" y="619" type="curve" smooth="yes"/>
      <point x="949" y="1075"/>
      <point x="794" y="1241"/>
      <point x="510" y="1241" type="curve" smooth="yes"/>
      <point x="243" y="1241"/>
      <point x="54" y="1073"/>
      <point x="54" y="602" type="curve" smooth="yes"/>
      <point x="54" y="138"/>
      <point x="227" y="-21"/>
      <point x="493" y="-21" type="curve" smooth="yes"/>
      <point x="762" y="-21"/>
      <point x="949" y="135"/>
    </contour>
    <contour>
      <point x="506" y="-84" type="move" name="L"/>
    </contour>
    <contour>
      <point x="506" y="1279" type="move" name="U"/>
    </contour>
  </outline>
</glyph>
<glyph name="three" format="2">
  <advance width="1003"/>
  <unicode hex="0033"/>
  <anchor x="502" y="-84" name="L"/>
  <anchor x="502" y="1279" name="U"/>
  <outline>
    <contour>
      <point x="326" y="740" type="line"/>
      <point x="326" y="539" type="line"/>
      <point x="401" y="539" type="line" smooth="yes"/>
      <point x="590" y="539"/>
      <point x="698" y="458"/>
      <point x="698" y="355" type="curve" smooth="yes"/>
      <point x="698" y="243"/>
      <point x="592" y="176"/>
      <point x="472" y="176" type="curve" smooth="yes"/>
      <point x="339" y="176"/>
      <point x="204" y="236"/>
      <point x="113" y="339" type="curve"/>
      <point x="84" y="109" type="line"/>
      <point x="171" y="27"/>
      <point x="308" y="-21"/>
      <point x="456" y="-21" type="curve" smooth="yes"/>
      <point x="731" y="-21"/>
      <point x="936" y="142"/>
      <point x="936" y="339" type="curve" smooth="yes"/>
      <point x="936" y="562"/>
      <point x="746" y="632"/>
      <point x="627" y="652" type="curve"/>
      <point x="746" y="676"/>
      <point x="895" y="800"/>
      <point x="895" y="953" type="curve" smooth="yes"/>
      <point x="895" y="1132"/>
      <point x="726" y="1241"/>
      <point x="485" y="1241" type="curve" smooth="yes"/>
      <point x="345" y="1241"/>
      <point x="201" y="1184"/>
      <point x="134" y="1108" type="curve"/>
      <point x="163" y="915" type="line"/>
      <point x="257" y="1012"/>
      <point x="364" y="1045"/>
      <point x="493" y="1045" type="curve" smooth="yes"/>
      <point x="576" y="1045"/>
      <point x="661" y="997"/>
      <point x="661" y="921" type="curve" smooth="yes"/>
      <point x="661" y="831"/>
      <point x="553" y="740"/>
      <point x="401" y="740" type="curve" smooth="yes"/>
    </contour>
  </outline>
</glyph>
<glyph name="four" format="2">
  <advance width="1003"/>
  <unicode hex="0034"/>
  <anchor x="507" y="-84" name="L"/>
  <anchor x="507" y="1279" name="U"/>
  <outline>
    <contour>
      <point x="966" y="288" type="line"/>
      <point x="966" y="477" type="line"/>
      <point x="832" y="477" type="line"/>
      <point x="832" y="1221" type="line"/>
      <point x="581" y="1221" type="line"/>
      <point x="50" y="477" type="line"/>
      <point x="50" y="288" type="line"/>
      <point x="610" y="288" type="line"/>
      <point x="610" y="0" type="line"/>
      <point x="832" y="0" type="line"/>
      <point x="832" y="288" type="line"/>
    </contour>
    <contour>
      <point x="610" y="957" type="line"/>
      <point x="610" y="477" type="line"/>
      <point x="255" y="477" type="line"/>
    </contour>
  </outline>
</glyph>
<glyph name="six" format="1">
  <advance width="1003"/>
  <unicode hex="0036"/>
  <outline>
    <contour>
      <point x="897" y="1166" type="line"/>
      <point x="810" y="1225"/>
      <point x="730" y="1241"/>
      <point x="614" y="1241" type="curve" smooth="yes"/>
      <point x="217" y="1241"/>
      <point x="75" y="894"/>
      <point x="75" y="568" type="curve" smooth="yes"/>
      <point x="75" y="186"/>
      <point x="248" y="-21"/>
      <point x="545" y="-21" type="curve" smooth="yes"/>
      <point x="798" y="-21"/>
      <point x="966" y="150"/>
      <point x="966" y="393" type="curve" smooth="yes"/>
      <point x="966" y="609"/>
      <point x="805" y="773"/>
      <point x="564" y="773" type="curve" smooth="yes"/>
      <point x="405" y="773"/>
      <point x="283" y="677"/>
      <point x="188" y="548" type="curve"/>
      <point x="242" y="451" type="line"/>
      <point x="311" y="538"/>
      <point x="418" y="594"/>
      <point x="548" y="594" type="curve" smooth="yes"/>
      <point x="681" y="594"/>
      <point x="752" y="502"/>
      <point x="752" y="380" type="curve" smooth="yes"/>
      <point x="752" y="275"/>
      <point x="671" y="176"/>
      <point x="548" y="176" type="curve" smooth="yes"/>
      <point x="396" y="176"/>
      <point x="297" y="323"/>
      <point x="297" y="539" type="curve" smooth="yes"/>
      <point x="297" y="946"/>
      <point x="441" y="1045"/>
      <point x="606" y="1045" type="curve" smooth="yes"/>
      <point x="686" y="1045"/>
      <point x="772" y="1025"/>
      <point x="844" y="953" type="curve"/>
    </contour>
    <contour>
      <point x="510" y="-84" type="move" name="L"/>
    </contour>
    <contour>
      <point x="510" y="1279" type="move" name="U"/>
    </contour>
  </outline>
</glyph>
<glyph name="seven" format="2">
  <advance width="1003"/>
  <unicode hex="0037"/>
  <anchor x="502" y="-84" name="L"/>
  <anchor x="502" y="1279" name="U"/>
  <outline>
    <contour>
      <point x="435" y="0" type="line"/>
      <point x="543" y="384"/>
      <point x="697" y="715"/>
      <point x="945" y="1053" type="curve"/>
      <point x="945" y="1221" type="line"/>
      <point x="84" y="1221" type="line"/>
      <point x="84" y="999" type="line"/>
      <point x="147" y="1012"/>
      <point x="244" y="1016"/>
      <point x="401" y="1016" type="curve" smooth="yes"/>
      <point x="669" y="1016" type="line"/>
      <point x="453" y="704"/>
      <point x="342" y="473"/>
      <point x="196" y="0" type="curve"/>
    </contour>
  </outline>
</glyph>
<glyph name="eight" format="1">
  <advance width="1003"/>
  <unicode hex="0038"/>
  <outline>
    <contour>
      <point x="502" y="-21" type="curve" smooth="yes"/>
      <point x="733" y="-21"/>
      <point x="945" y="120"/>
      <point x="945" y="347" type="curve" smooth="yes"/>
      <point x="945" y="536"/>
      <point x="823" y="618"/>
      <point x="732" y="665" type="curve"/>
      <point x="797" y="703"/>
      <point x="886" y="772"/>
      <point x="886" y="924" type="curve" smooth="yes"/>
      <point x="886" y="1129"/>
      <point x="719" y="1241"/>
      <point x="510" y="1241" type="curve" smooth="yes"/>
      <point x="302" y="1241"/>
      <point x="117" y="1129"/>
      <point x="117" y="924" type="curve" smooth="yes"/>
      <point x="117" y="772"/>
      <point x="211" y="701"/>
      <point x="276" y="665" type="curve"/>
      <point x="168" y="606"/>
      <point x="59" y="528"/>
      <point x="59" y="339" type="curve" smooth="yes"/>
      <point x="59" y="112"/>
      <point x="271" y="-21"/>
    </contour>
    <contour>
      <point x="677" y="920" type="curve" smooth="yes"/>
      <point x="677" y="814"/>
      <point x="613" y="748"/>
      <point x="502" y="748" type="curve" smooth="yes"/>
      <point x="390" y="748"/>
      <point x="326" y="814"/>
      <point x="326" y="920" type="curve" smooth="yes"/>
      <point x="326" y="1017"/>
      <point x="399" y="1078"/>
      <point x="502" y="1078" type="curve" smooth="yes"/>
      <point x="621" y="1078"/>
      <point x="677" y="1009"/>
    </contour>
    <contour>
      <point x="723" y="364" type="curve" smooth="yes"/>
      <point x="723" y="251"/>
      <point x="642" y="155"/>
      <point x="502" y="155" type="curve" smooth="yes"/>
      <point x="368" y="155"/>
      <point x="280" y="251"/>
      <point x="280" y="364" type="curve" smooth="yes"/>
      <point x="280" y="487"/>
      <point x="376" y="568"/>
      <point x="502" y="568" type="curve" smooth="yes"/>
      <point x="625" y="568"/>
      <point x="723" y="487"/>
    </contour>
    <contour>
      <point x="502" y="-84" type="move" name="L"/>
    </contour>
    <contour>
      <point x="502" y="1279" type="move" name="U"/>
    </contour>
  </outline>
</glyph>
<glyph name="nine" format="2">
  <advance width="1003"/>
  <unicode hex="0039"/>
  <anchor x="502" y="-84" name="L"/>
  <anchor x="502" y="1279" name="U"/>
  <outline>
    <contour>
      <point x="129" y="54" type="line"/>
      <point x="207" y="4"/>
      <point x="304" y="-21"/>
      <point x="411" y="-21" type="curve" smooth="yes"/>
      <point x="808" y="-21"/>
      <point x="949" y="344"/>
      <point x="949" y="652" type="curve" smooth="yes"/>
      <point x="949" y="961"/>
      <point x="817" y="1241"/>
      <point x="492" y="1241" type="curve" smooth="yes"/>
      <point x="259" y="1241"/>
      <point x="59" y="1087"/>
      <point x="59" y="838" type="curve" smooth="yes"/>
      <point x="59" y="638"/>
      <point x="227" y="482"/>
      <point x="460" y="482" type="curve" smooth="yes"/>
      <point x="619" y="482"/>
      <point x="763" y="591"/>
      <point x="844" y="726" type="curve"/>
      <point x="785" y="828" type="line"/>
      <point x="723" y="733"/>
      <point x="609" y="660"/>
      <point x="480" y="660" type="curve" smooth="yes"/>
      <point x="355" y="660"/>
      <point x="273" y="744"/>
      <point x="273" y="866" type="curve" smooth="yes"/>
      <point x="273" y="964"/>
      <point x="355" y="1045"/>
      <point x="479" y="1045" type="curve" smooth="yes"/>
      <point x="646" y="1045"/>
      <point x="727" y="921"/>
      <point x="727" y="680" type="curve" smooth="yes"/>
      <point x="727" y="273"/>
      <point x="584" y="176"/>
      <point x="420" y="176" type="curve" smooth="yes"/>
      <point x="339" y="176"/>
      <point x="246" y="196"/>
      <point x="174" y="268" type="curve"/>
    </contour>
  </outline>
</glyph>
<glyph name="colon" format="1">
  <advance width="600"/>
  <unicode hex="003A"/>
  <outline>
    <contour>
      <point x="415" y="740" type="curve" smooth="yes"/>
      <point x="415" y="660"/>
      <point x="366" y="610"/>
      <point x="300" y="610" type="curve" smooth="yes"/>
      <point x="236" y="610"/>
      <point x="185" y="660"/>
      <point x="185" y="740" type="curve" smooth="yes"/>
      <point x="185" y="820"/>
      <point x="236" y="870"/>
      <point x="300" y="870" type="curve" smooth="yes"/>
      <point x="366" y="870"/>
      <point x="415" y="820"/>
    </contour>
    <contour>
      <point x="415" y="110" type="curve" smooth="yes"/>
      <point x="415" y="30"/>
      <point x="366" y="-20"/>
      <point x="300" y="-20" type="curve" smooth="yes"/>
      <point x="236" y="-20"/>
      <point x="185" y="30"/>
      <point x="185" y="110" type="curve" smooth="yes"/>
      <point x="185" y="190"/>
      <point x="236" y="240"/>
      <point x="300" y="240" type="curve" smooth="yes"/>
      <point x="366" y="240"/>
      <point x="415" y="190"/>
    </contour>
  </outline>
</glyph>
<glyph name="less" format="2">
  <advance width="1003"/>
  <unicode hex="003C"/>
  <outline>
    <contour>
      <point x="895" y="397" type="line"/>
      <point x="326" y="610" type="line"/>
      <point x="895" y="823" type="line"/>
      <point x="895" y="1016" type="line"/>
      <point x="92" y="690" type="line"/>
      <point x="92" y="531" type="line"/>
      <point x="895" y="205" type="line"/>
    </contour>
  </outline>
</glyph>
<glyph name="equal" format="1">
  <advance width="1003"/>
  <unicode hex="003D"/>
  <outline>
    <contour>
      <point x="100" y="368" type="line"/>
      <point x="903" y="368" type="line"/>
      <point x="903" y="543" type="line"/>
      <point x="100" y="543" type="line"/>
    </contour>
    <contour>
      <point x="100" y="677" type="line"/>
      <point x="903" y="677" type="line"/>
      <point x="903" y="853" type="line"/>
      <point x="100" y="853" type="line"/>
    </contour>
  </outline>
</glyph>
<glyph name="greater" format="2">
  <advance width="1003"/>
  <unicode hex="003E"/>
  <outline>
    <contour>
      <point x="109" y="205" type="line"/>
      <point x="911" y="531" type="line"/>
      <point x="911" y="690" type="line"/>
      <point x="109" y="1016" type="line"/>
      <point x="109" y="823" type="line"/>
      <point x="677" y="610" type="line"/>
      <point x="109" y="397" type="line"/>
    </contour>
  </outline>
</glyph>
<glyph name="question" format="2">
  <advance width="952"/>
  <unicode hex="003F"/>
  <outline>
    <contour>
      <point x="857" y="1024" type="curve" smooth="yes"/>
      <point x="857" y="1228"/>
      <point x="698" y="1340"/>
      <point x="480" y="1340" type="curve" smooth="yes"/>
      <point x="285" y="1340"/>
      <point x="135" y="1194"/>
      <point x="96" y="1090" type="curve" smooth="yes"/>
      <point x="87" y="1065"/>
      <point x="116" y="1040"/>
      <point x="150" y="1018" type="curve" smooth="yes"/>
      <point x="195" y="989"/>
      <point x="215" y="986"/>
      <point x="231" y="1011" type="curve" smooth="yes"/>
      <point x="274" y="1078"/>
      <point x="343" y="1152"/>
      <point x="480" y="1152" type="curve" smooth="yes"/>
      <point x="588" y="1152"/>
      <point x="652" y="1100"/>
      <point x="652" y="978" type="curve" smooth="yes"/>
      <point x="652" y="823"/>
      <point x="371" y="742"/>
      <point x="371" y="724" type="curve" smooth="yes"/>
      <point x="371" y="695"/>
      <point x="371" y="478"/>
      <point x="371" y="468" type="curve" smooth="yes"/>
      <point x="371" y="435"/>
      <point x="431" y="430"/>
      <point x="480" y="430" type="curve" smooth="yes"/>
      <point x="524" y="430"/>
      <point x="589" y="440"/>
      <point x="589" y="469" type="curve" smooth="yes"/>
      <point x="589" y="478"/>
      <point x="589" y="572"/>
      <point x="589" y="644" type="curve" smooth="yes"/>
      <point x="589" y="661"/>
      <point x="857" y="744"/>
    </contour>
    <contour>
      <point x="644" y="159" type="curve" smooth="yes"/>
      <point x="644" y="263"/>
      <point x="570" y="338"/>
      <point x="480" y="338" type="curve" smooth="yes"/>
      <point x="392" y="338"/>
      <point x="316" y="263"/>
      <point x="316" y="159" type="curve" smooth="yes"/>
      <point x="316" y="55"/>
      <point x="392" y="-20"/>
      <point x="480" y="-20" type="curve" smooth="yes"/>
      <point x="570" y="-20"/>
      <point x="644" y="55"/>
    </contour>
  </outline>
</glyph>
<glyph name="at" format="2">
  <advance width="1456"/>
  <unicode hex="0040"/>
  <outline>
    <contour>
      <point x="953" y="8" type="line"/>
      <point x="900" y="-28"/>
      <point x="826" y="-50"/>
      <point x="748" y="-50" type="curve" smooth="yes"/>
      <point x="466" y="-50"/>
      <point x="242" y="171"/>
      <point x="242" y="506" type="curve" smooth="yes"/>
      <point x="242" y="813"/>
      <point x="466" y="1037"/>
      <point x="748" y="1037" type="curve" smooth="yes"/>
      <point x="1068" y="1037"/>
      <point x="1221" y="829"/>
      <point x="1221" y="560" type="curve" smooth="yes"/>
      <point x="1221" y="378"/>
      <point x="1139" y="280"/>
      <point x="1091" y="280" type="curve" smooth="yes"/>
      <point x="1050" y="280"/>
      <point x="1020" y="359"/>
      <point x="1020" y="543" type="curve" smooth="yes"/>
      <point x="1020" y="819" type="line"/>
      <point x="947" y="849"/>
      <point x="824" y="869"/>
      <point x="757" y="869" type="curve" smooth="yes"/>
      <point x="619" y="869"/>
      <point x="517" y="803"/>
      <point x="447" y="690" type="curve" smooth="yes"/>
      <point x="408" y="624"/>
      <point x="385" y="546"/>
      <point x="385" y="443" type="curve" smooth="yes"/>
      <point x="385" y="254"/>
      <point x="507" y="136"/>
      <point x="619" y="136" type="curve" smooth="yes"/>
      <point x="725" y="136"/>
      <point x="847" y="277"/>
      <point x="890" y="380" type="curve"/>
      <point x="899" y="240"/>
      <point x="964" y="134"/>
      <point x="1066" y="134" type="curve" smooth="yes"/>
      <point x="1212" y="134"/>
      <point x="1379" y="299"/>
      <point x="1379" y="585" type="curve" smooth="yes"/>
      <point x="1379" y="951"/>
      <point x="1122" y="1191"/>
      <point x="757" y="1191" type="curve" smooth="yes"/>
      <point x="401" y="1191"/>
      <point x="75" y="950"/>
      <point x="75" y="481" type="curve" smooth="yes"/>
      <point x="75" y="32"/>
      <point x="400" y="-205"/>
      <point x="736" y="-205" type="curve" smooth="yes"/>
      <point x="849" y="-205"/>
      <point x="982" y="-166"/>
      <point x="1066" y="-107" type="curve"/>
    </contour>
    <contour>
      <point x="853" y="594" type="line"/>
      <point x="826" y="478"/>
      <point x="721" y="293"/>
      <point x="646" y="293" type="curve" smooth="yes"/>
      <point x="586" y="293"/>
      <point x="552" y="358"/>
      <point x="552" y="481" type="curve" smooth="yes"/>
      <point x="552" y="545"/>
      <point x="570" y="616"/>
      <point x="602" y="657" type="curve" smooth="yes"/>
      <point x="632" y="695"/>
      <point x="675" y="715"/>
      <point x="732" y="715" type="curve" smooth="yes"/>
      <point x="793" y="715"/>
      <point x="825" y="699"/>
      <point x="853" y="686" type="curve"/>
    </contour>
  </outline>
</glyph>
<glyph name="A" format="2">
  <advance width="1241"/>
  <unicode hex="0041"/>
  <anchor x="1066" y="0" name="H"/>
  <anchor x="612" y="-84" name="L"/>
  <anchor x="1250" y="0" name="O"/>
  <anchor x="612" y="1279" name="U"/>
  <outline>
    <contour>
      <point x="932" y="0" type="line"/>
      <point x="1177" y="0" type="line"/>
      <point x="1148" y="67"/>
      <point x="1121" y="140"/>
      <point x="1068" y="297" type="curve" smooth="yes"/>
      <point x="759" y="1221" type="line"/>
      <point x="461" y="1221" type="line"/>
      <point x="152" y="297" type="line" smooth="yes"/>
      <point x="99" y="139"/>
      <point x="74" y="68"/>
      <point x="43" y="0" type="curve"/>
      <point x="293" y="0" type="line"/>
      <point x="385" y="297" type="line"/>
      <point x="839" y="297" type="line"/>
    </contour>
    <contour>
      <point x="610" y="1027" type="line"/>
      <point x="782" y="477" type="line"/>
      <point x="440" y="477" type="line"/>
    </contour>
  </outline>
</glyph>
<glyph name="C" format="1">
  <advance width="1158"/>
  <unicode hex="0043"/>
  <outline>
    <contour>
      <point x="1016" y="339" type="line"/>
      <point x="924" y="245"/>
      <point x="786" y="184"/>
      <point x="660" y="184" type="curve" smooth="yes"/>
      <point x="444" y="184"/>
      <point x="314" y="345"/>
      <point x="314" y="614" type="curve" smooth="yes"/>
      <point x="314" y="898"/>
      <point x="466" y="1041"/>
      <point x="669" y="1041" type="curve" smooth="yes"/>
      <point x="778" y="1041"/>
      <point x="880" y="1007"/>
      <point x="986" y="924" type="curve"/>
      <point x="1045" y="1124" type="line"/>
      <point x="925" y="1211"/>
      <point x="810" y="1241"/>
      <point x="656" y="1241" type="curve" smooth="yes"/>
      <point x="345" y="1241"/>
      <point x="75" y="1024"/>
      <point x="75" y="594" type="curve" smooth="yes"/>
      <point x="75" y="217"/>
      <point x="285" y="-21"/>
      <point x="631" y="-21" type="curve" smooth="yes"/>
      <point x="774" y="-21"/>
      <point x="955" y="35"/>
      <point x="1058" y="117" type="curve"/>
    </contour>
    <contour>
      <point x="623" y="0" type="move" name="H"/>
    </contour>
    <contour>
      <point x="623" y="-84" type="move" name="L"/>
    </contour>
    <contour>
      <point x="623" y="1279" type="move" name="U"/>
    </contour>
  </outline>
</glyph>
<glyph name="D" format="1">
  <advance width="1241"/>
  <unicode hex="0044"/>
  <outline>
    <contour>
      <point x="138" y="380" type="line"/>
      <point x="137" y="215"/>
      <point x="138" y="67"/>
      <point x="125" y="0" type="curve"/>
      <point x="125" y="0"/>
      <point x="396" y="-8"/>
      <point x="509" y="-8" type="curve" smooth="yes"/>
      <point x="768" y="-8"/>
      <point x="1145" y="121"/>
      <point x="1145" y="619" type="curve" smooth="yes"/>
      <point x="1145" y="1149"/>
      <point x="757" y="1229"/>
      <point x="527" y="1229" type="curve" smooth="yes"/>
      <point x="407" y="1229"/>
      <point x="200" y="1226"/>
      <point x="125" y="1221" type="curve"/>
      <point x="138" y="1154"/>
      <point x="138" y="1000"/>
      <point x="138" y="836" type="curve" smooth="yes"/>
    </contour>
    <contour>
      <point x="376" y="1037" type="line"/>
      <point x="411" y="1039"/>
      <point x="487" y="1042"/>
      <point x="533" y="1042" type="curve" smooth="yes"/>
      <point x="750" y="1042"/>
      <point x="901" y="935"/>
      <point x="901" y="602" type="curve" smooth="yes"/>
      <point x="901" y="298"/>
      <point x="716" y="185"/>
      <point x="529" y="185" type="curve" smooth="yes"/>
      <point x="463" y="185"/>
      <point x="409" y="190"/>
      <point x="376" y="193" type="curve"/>
    </contour>
    <contour>
      <point x="669" y="-84" type="move" name="L"/>
    </contour>
    <contour>
      <point x="669" y="1279" type="move" name="U"/>
    </contour>
  </outline>
</glyph>
<glyph name="F" format="1">
  <advance width="1003"/>
  <unicode hex="0046"/>
  <outline>
    <contour>
      <point x="376" y="719" type="line"/>
      <point x="376" y="1028" type="line"/>
      <point x="911" y="1028" type="line"/>
      <point x="911" y="1221" type="line"/>
      <point x="125" y="1221" type="line"/>
      <point x="138" y="1154"/>
      <point x="138" y="1017"/>
      <point x="138" y="853" type="curve" smooth="yes"/>
      <point x="138" y="364" type="line" smooth="yes"/>
      <point x="138" y="199"/>
      <point x="138" y="67"/>
      <point x="125" y="0" type="curve"/>
      <point x="389" y="0" type="line"/>
      <point x="376" y="61"/>
      <point x="376" y="186"/>
      <point x="376" y="341" type="curve" smooth="yes"/>
      <point x="376" y="531" type="line"/>
      <point x="840" y="531" type="line"/>
      <point x="840" y="719" type="line"/>
    </contour>
    <contour>
      <point x="527" y="-84" type="move" name="L"/>
    </contour>
    <contour>
      <point x="527" y="1279" type="move" name="U"/>
    </contour>
  </outline>
</glyph>
<glyph name="H" format="2">
  <advance width="1267"/>
  <unicode hex="0048"/>
  <anchor x="255" y="0" name="H"/>
  <anchor x="623" y="-84" name="L"/>
  <anchor x="623" y="1279" name="U"/>
  <outline>
    <contour>
      <point x="869" y="1221" type="line"/>
      <point x="869" y="719" type="line"/>
      <point x="376" y="719" type="line"/>
      <point x="376" y="1221" type="line"/>
      <point x="125" y="1221" type="line"/>
      <point x="138" y="1154"/>
      <point x="138" y="1026"/>
      <point x="138" y="861" type="curve" smooth="yes"/>
      <point x="138" y="359" type="line" smooth="yes"/>
      <point x="138" y="195"/>
      <point x="138" y="67"/>
      <point x="125" y="0" type="curve"/>
      <point x="125" y="0"/>
      <point x="376" y="0"/>
      <point x="376" y="0" type="curve"/>
      <point x="376" y="531" type="line"/>
      <point x="869" y="531" type="line"/>
      <point x="869" y="0" type="line"/>
      <point x="869" y="0"/>
      <point x="1120" y="0"/>
      <point x="1120" y="0" type="curve"/>
      <point x="1108" y="67"/>
      <point x="1108" y="195"/>
      <point x="1108" y="359" type="curve" smooth="yes"/>
      <point x="1108" y="861" type="line" smooth="yes"/>
      <point x="1108" y="1026"/>
      <point x="1108" y="1154"/>
      <point x="1120" y="1221" type="curve"/>
    </contour>
  </outline>
</glyph>
<glyph name="I" format="1">
  <advance width="874"/>
  <unicode hex="0049"/>
  <outline>
    <contour>
      <point x="109" y="1221" type="line"/>
      <point x="109" y="1049" type="line"/>
      <point x="309" y="1049" type="line"/>
      <point x="309" y="171" type="line"/>
      <point x="109" y="171" type="line"/>
      <point x="109" y="0" type="line"/>
      <point x="748" y="0" type="line"/>
      <point x="748" y="171" type="line"/>
      <point x="548" y="171" type="line"/>
      <point x="548" y="1049" type="line"/>
      <point x="748" y="1049" type="line"/>
      <point x="748" y="1221" type="line"/>
    </contour>
    <contour>
      <point x="435" y="0" type="move" name="H"/>
    </contour>
    <contour>
      <point x="431" y="-84" type="move" name="L"/>
    </contour>
    <contour>
      <point x="595" y="0" type="move" name="O"/>
    </contour>
    <contour>
      <point x="848" y="1003" type="move" name="R"/>
    </contour>
    <contour>
      <point x="435" y="1279" type="move" name="U"/>
    </contour>
  </outline>
</glyph>
<glyph name="J" format="2">
  <advance width="861"/>
  <unicode hex="004A"/>
  <anchor x="347" y="-84" name="L"/>
  <anchor x="589" y="1279" name="U"/>
  <outline>
    <contour>
      <point x="464" y="1221" type="line"/>
      <point x="475" y="1132"/>
      <point x="477" y="982"/>
      <point x="477" y="819" type="curve" smooth="yes"/>
      <point x="477" y="466" type="line" smooth="yes"/>
      <point x="477" y="320"/>
      <point x="451" y="190"/>
      <point x="305" y="190" type="curve" smooth="yes"/>
      <point x="221" y="190"/>
      <point x="128" y="226"/>
      <point x="66" y="290" type="curve"/>
      <point x="25" y="75" type="line"/>
      <point x="91" y="8"/>
      <point x="216" y="-21"/>
      <point x="303" y="-21" type="curve" smooth="yes"/>
      <point x="550" y="-21"/>
      <point x="715" y="108"/>
      <point x="715" y="447" type="curve" smooth="yes"/>
      <point x="715" y="517"/>
      <point x="715" y="1221"/>
      <point x="715" y="1221" type="curve"/>
    </contour>
  </outline>
</glyph>
<glyph name="K" format="1">
  <advance width="1195"/>
  <unicode hex="004B"/>
  <outline>
    <contour>
      <point x="789" y="1221" type="line"/>
      <point x="310" y="612" type="line"/>
      <point x="484" y="565" type="line"/>
      <point x="1070" y="1221" type="line"/>
    </contour>
    <contour>
      <point x="325" y="611" type="line"/>
      <point x="828" y="0" type="line"/>
      <point x="1137" y="0" type="line"/>
      <point x="513" y="693" type="line"/>
    </contour>
    <contour>
      <point x="376" y="1221" type="line"/>
      <point x="125" y="1221" type="line"/>
      <point x="138" y="1154"/>
      <point x="138" y="1022"/>
      <point x="138" y="857" type="curve" smooth="yes"/>
      <point x="138" y="364" type="line" smooth="yes"/>
      <point x="138" y="199"/>
      <point x="138" y="67"/>
      <point x="125" y="0" type="curve"/>
      <point x="376" y="0" type="line"/>
    </contour>
    <contour>
      <point x="268" y="0" type="move" name="H"/>
    </contour>
    <contour>
      <point x="619" y="-84" type="move" name="L"/>
    </contour>
    <contour>
      <point x="606" y="1279" type="move" name="U"/>
    </contour>
  </outline>
</glyph>
<glyph name="M" format="2">
  <advance width="1551"/>
  <unicode hex="004D"/>
  <anchor x="765" y="-84" name="L"/>
  <anchor x="765" y="1279" name="U"/>
  <outline>
    <contour>
      <point x="767" y="230" type="line"/>
      <point x="481" y="1221" type="line"/>
      <point x="263" y="1221" type="line"/>
      <point x="364" y="978" type="line"/>
      <point x="644" y="0" type="line"/>
      <point x="890" y="0" type="line"/>
      <point x="1168" y="978" type="line"/>
      <point x="1268" y="1221" type="line"/>
      <point x="1053" y="1221" type="line"/>
    </contour>
    <contour>
      <point x="184" y="1221" type="line"/>
      <point x="184" y="1221"/>
      <point x="147" y="166"/>
      <point x="125" y="0" type="curve"/>
      <point x="351" y="0" type="line"/>
      <point x="375" y="1007" type="line"/>
      <point x="405" y="1221" type="line"/>
    </contour>
    <contour>
      <point x="1404" y="0" type="line"/>
      <point x="1380" y="166"/>
      <point x="1346" y="1221"/>
      <point x="1346" y="1221" type="curve"/>
      <point x="1120" y="1221" type="line"/>
      <point x="1158" y="1007" type="line"/>
      <point x="1179" y="0" type="line"/>
    </contour>
  </outline>
</glyph>
<glyph name="N" format="1">
  <advance width="1292"/>
  <unicode hex="004E"/>
  <outline>
    <contour>
      <point x="186" y="1095" type="line"/>
      <point x="915" y="0" type="line"/>
      <point x="1084" y="125" type="line"/>
      <point x="355" y="1221" type="line"/>
    </contour>
    <contour>
      <point x="915" y="0" type="line"/>
      <point x="1133" y="0" type="line"/>
      <point x="1133" y="857" type="line" smooth="yes"/>
      <point x="1133" y="1022"/>
      <point x="1134" y="1154"/>
      <point x="1145" y="1221" type="curve"/>
      <point x="915" y="1221" type="line"/>
    </contour>
    <contour>
      <point x="355" y="1221" type="line"/>
      <point x="125" y="1221" type="line"/>
      <point x="138" y="1154"/>
      <point x="138" y="1022"/>
      <point x="138" y="857" type="curve" smooth="yes"/>
      <point x="138" y="364" type="line" smooth="yes"/>
      <point x="138" y="199"/>
      <point x="138" y="67"/>
      <point x="125" y="0" type="curve"/>
      <point x="355" y="0" type="line"/>
    </contour>
    <contour>
      <point x="1037" y="0" type="move" name="H"/>
    </contour>
    <contour>
      <point x="640" y="-84" type="move" name="L"/>
    </contour>
    <contour>
      <point x="640" y="1279" type="move" name="U"/>
    </contour>
  </outline>
</glyph>
<glyph name="O" format="2">
  <advance width="1254"/>
  <unicode hex="004F"/>
  <anchor x="619" y="0" name="H"/>
  <anchor x="619" y="-84" name="L"/>
  <anchor x="816" y="0" name="O"/>
  <anchor x="1237" y="1003" name="R"/>
  <anchor x="619" y="1279" name="U"/>
  <outline>
    <contour>
      <point x="920" y="598" type="curve" smooth="yes"/>
      <point x="920" y="338"/>
      <point x="786" y="184"/>
      <point x="619" y="184" type="curve" smooth="yes"/>
      <point x="438" y="184"/>
      <point x="314" y="354"/>
      <point x="314" y="623" type="curve" smooth="yes"/>
      <point x="314" y="876"/>
      <point x="442" y="1037"/>
      <point x="619" y="1037" type="curve" smooth="yes"/>
      <point x="795" y="1037"/>
      <point x="920" y="870"/>
    </contour>
    <contour>
      <point x="1158" y="619" type="curve" smooth="yes"/>
      <point x="1158" y="1019"/>
      <point x="912" y="1241"/>
      <point x="627" y="1241" type="curve" smooth="yes"/>
      <point x="338" y="1241"/>
      <point x="75" y="1002"/>
      <point x="75" y="602" type="curve" smooth="yes"/>
      <point x="75" y="201"/>
      <point x="322" y="-21"/>
      <point x="610" y="-21" type="curve" smooth="yes"/>
      <point x="896" y="-21"/>
      <point x="1158" y="217"/>
    </contour>
  </outline>
</glyph>
<glyph name="P" format="2">
  <advance width="1066"/>
  <unicode hex="0050"/>
  <anchor x="573" y="-84" name="L"/>
  <anchor x="573" y="1279" name="U"/>
  <outline>
    <contour>
      <point x="376" y="437" type="line"/>
      <point x="431" y="431"/>
      <point x="481" y="429"/>
      <point x="542" y="429" type="curve" smooth="yes"/>
      <point x="817" y="429"/>
      <point x="1003" y="587"/>
      <point x="1003" y="844" type="curve" smooth="yes"/>
      <point x="1003" y="1100"/>
      <point x="820" y="1229"/>
      <point x="550" y="1229" type="curve" smooth="yes"/>
      <point x="420" y="1229"/>
      <point x="231" y="1225"/>
      <point x="125" y="1221" type="curve"/>
      <point x="138" y="1154"/>
      <point x="138" y="1000"/>
      <point x="138" y="836" type="curve" smooth="yes"/>
      <point x="138" y="364" type="line" smooth="yes"/>
      <point x="138" y="199"/>
      <point x="138" y="67"/>
      <point x="125" y="0" type="curve"/>
      <point x="389" y="0" type="line"/>
      <point x="377" y="65"/>
      <point x="376" y="198"/>
      <point x="376" y="364" type="curve" smooth="yes"/>
    </contour>
    <contour>
      <point x="376" y="619" type="curve"/>
      <point x="376" y="1037" type="line"/>
      <point x="413" y="1040"/>
      <point x="455" y="1041"/>
      <point x="520" y="1041" type="curve" smooth="yes"/>
      <point x="696" y="1041"/>
      <point x="765" y="957"/>
      <point x="765" y="836" type="curve" smooth="yes"/>
      <point x="765" y="686"/>
      <point x="678" y="610"/>
      <point x="517" y="610" type="curve" smooth="yes"/>
      <point x="465" y="610"/>
      <point x="412" y="613"/>
    </contour>
  </outline>
</glyph>
<glyph name="Q" format="1">
  <advance width="1292"/>
  <unicode hex="0051"/>
  <outline>
    <contour>
      <point x="1158" y="619" type="curve" smooth="yes"/>
      <point x="1158" y="1019"/>
      <point x="912" y="1241"/>
      <point x="627" y="1241" type="curve" smooth="yes"/>
      <point x="338" y="1241"/>
      <point x="75" y="1002"/>
      <point x="75" y="602" type="curve" smooth="yes"/>
      <point x="75" y="201"/>
      <point x="322" y="-21"/>
      <point x="610" y="-21" type="curve" smooth="yes"/>
      <point x="675" y="-21"/>
      <point x="702" y="-19"/>
      <point x="743" y="-13" type="curve"/>
      <point x="801" y="-13"/>
      <point x="1058" y="-191"/>
      <point x="1129" y="-191" type="curve" smooth="yes"/>
      <point x="1190" y="-191"/>
      <point x="1256" y="-57"/>
      <point x="1283" y="-13" type="curve"/>
      <point x="1165" y="1"/>
      <point x="1068" y="57"/>
      <point x="958" y="119" type="curve"/>
      <point x="1082" y="237"/>
      <point x="1158" y="394"/>
    </contour>
    <contour>
      <point x="920" y="598" type="curve" smooth="yes"/>
      <point x="920" y="338"/>
      <point x="788" y="184"/>
      <point x="619" y="184" type="curve" smooth="yes"/>
      <point x="438" y="184"/>
      <point x="314" y="354"/>
      <point x="314" y="623" type="curve" smooth="yes"/>
      <point x="314" y="876"/>
      <point x="442" y="1037"/>
      <point x="619" y="1037" type="curve" smooth="yes"/>
      <point x="795" y="1037"/>
      <point x="920" y="870"/>
    </contour>
    <contour>
      <point x="624" y="1279" type="move" name="U"/>
    </contour>
    <contour>
      <point x="624" y="-226" type="move" name="L"/>
    </contour>
  </outline>
</glyph>
<glyph name="R" format="1">
  <advance width="1154"/>
  <unicode hex="0052"/>
  <outline>
    <contour>
      <point x="376" y="489" type="line"/>
      <point x="523" y="489" type="line" smooth="yes"/>
      <point x="761" y="489"/>
      <point x="982" y="604"/>
      <point x="982" y="869" type="curve" smooth="yes"/>
      <point x="982" y="1111"/>
      <point x="803" y="1229"/>
      <point x="543" y="1229" type="curve" smooth="yes"/>
      <point x="348" y="1229"/>
      <point x="125" y="1221"/>
      <point x="125" y="1221" type="curve"/>
      <point x="138" y="1154"/>
      <point x="138" y="1000"/>
      <point x="138" y="836" type="curve" smooth="yes"/>
      <point x="138" y="364" type="line" smooth="yes"/>
      <point x="138" y="199"/>
      <point x="138" y="67"/>
      <point x="125" y="0" type="curve"/>
      <point x="389" y="0" type="line"/>
      <point x="377" y="65"/>
      <point x="376" y="199"/>
      <point x="376" y="364" type="curve" smooth="yes"/>
    </contour>
    <contour>
      <point x="376" y="1037" type="line"/>
      <point x="421" y="1039"/>
      <point x="449" y="1041"/>
      <point x="514" y="1041" type="curve" smooth="yes"/>
      <point x="662" y="1041"/>
      <point x="744" y="991"/>
      <point x="744" y="865" type="curve" smooth="yes"/>
      <point x="744" y="718"/>
      <point x="652" y="669"/>
      <point x="506" y="669" type="curve" smooth="yes"/>
      <point x="376" y="669" type="line"/>
    </contour>
    <contour>
      <point x="465" y="531" type="line"/>
      <point x="815" y="0" type="line"/>
      <point x="1112" y="0" type="line"/>
      <point x="1056" y="61"/>
      <point x="691" y="574"/>
      <point x="691" y="574" type="curve"/>
    </contour>
    <contour>
      <point x="577" y="0" type="move" name="H"/>
    </contour>
    <contour>
      <point x="577" y="-84" type="move" name="L"/>
    </contour>
    <contour>
      <point x="552" y="1279" type="move" name="U"/>
    </contour>
  </outline>
</glyph>
<glyph name="T" format="2">
  <advance width="1066"/>
  <unicode hex="0054"/>
  <anchor x="528" y="0" name="H"/>
  <anchor x="528" y="-84" name="L"/>
  <anchor x="528" y="1279" name="U"/>
  <outline>
    <contour>
      <point x="38" y="1221" type="line"/>
      <point x="38" y="1012" type="line"/>
      <point x="98" y="1026"/>
      <point x="164" y="1028"/>
      <point x="231" y="1028" type="curve" smooth="yes"/>
      <point x="408" y="1028" type="line"/>
      <point x="408" y="345" type="line" smooth="yes"/>
      <point x="408" y="189"/>
      <point x="405" y="64"/>
      <point x="391" y="0" type="curve"/>
      <point x="663" y="0" type="line"/>
      <point x="649" y="64"/>
      <point x="646" y="189"/>
      <point x="646" y="345" type="curve" smooth="yes"/>
      <point x="646" y="1028" type="line"/>
      <point x="827" y="1028" type="line" smooth="yes"/>
      <point x="895" y="1028"/>
      <point x="960" y="1026"/>
      <point x="1020" y="1012" type="curve"/>
      <point x="1020" y="1221" type="line"/>
    </contour>
  </outline>
</glyph>
<glyph name="U" format="2">
  <advance width="1246"/>
  <unicode hex="0055"/>
  <anchor x="612" y="0" name="H"/>
  <anchor x="612" y="-84" name="L"/>
  <anchor x="794" y="0" name="O"/>
  <anchor x="1237" y="1003" name="R"/>
  <anchor x="612" y="1279" name="U"/>
  <outline>
    <contour>
      <point x="849" y="1221" type="line"/>
      <point x="849" y="468" type="line" smooth="yes"/>
      <point x="849" y="288"/>
      <point x="796" y="171"/>
      <point x="614" y="171" type="curve" smooth="yes"/>
      <point x="429" y="171"/>
      <point x="376" y="288"/>
      <point x="376" y="468" type="curve" smooth="yes"/>
      <point x="376" y="1221" type="line"/>
      <point x="125" y="1221" type="line"/>
      <point x="137" y="1154"/>
      <point x="138" y="1022"/>
      <point x="138" y="857" type="curve" smooth="yes"/>
      <point x="138" y="431" type="line" smooth="yes"/>
      <point x="138" y="159"/>
      <point x="298" y="-21"/>
      <point x="614" y="-21" type="curve" smooth="yes"/>
      <point x="928" y="-21"/>
      <point x="1087" y="159"/>
      <point x="1087" y="431" type="curve" smooth="yes"/>
      <point x="1087" y="857" type="line" smooth="yes"/>
      <point x="1087" y="1030"/>
      <point x="1088" y="1154"/>
      <point x="1099" y="1221" type="curve"/>
    </contour>
  </outline>
</glyph>
<glyph name="V" format="2">
  <advance width="1225"/>
  <unicode hex="0056"/>
  <anchor x="610" y="0" name="H"/>
  <anchor x="604" y="-84" name="L"/>
  <anchor x="777" y="0" name="O"/>
  <anchor x="604" y="1279" name="U"/>
  <outline>
    <contour>
      <point x="932" y="1221" type="line"/>
      <point x="604" y="217" type="line"/>
      <point x="276" y="1221" type="line"/>
      <point x="21" y="1221" type="line"/>
      <point x="48" y="1152"/>
      <point x="80" y="1077"/>
      <point x="138" y="915" type="curve" smooth="yes"/>
      <point x="464" y="0" type="line"/>
      <point x="744" y="0" type="line"/>
      <point x="1070" y="915" type="line" smooth="yes"/>
      <point x="1127" y="1078"/>
      <point x="1157" y="1152"/>
      <point x="1187" y="1221" type="curve"/>
    </contour>
  </outline>
</glyph>
<glyph name="W" format="2">
  <advance width="1785"/>
  <unicode hex="0057"/>
  <anchor x="879" y="-84" name="L"/>
  <anchor x="879" y="1279" name="U"/>
  <outline>
    <contour>
      <point x="1246" y="0" type="line"/>
      <point x="1384" y="0" type="line"/>
      <point x="1643" y="915" type="line" smooth="yes"/>
      <point x="1689" y="1078"/>
      <point x="1712" y="1152"/>
      <point x="1739" y="1221" type="curve"/>
      <point x="1480" y="1221" type="line"/>
      <point x="1229" y="109" type="line"/>
    </contour>
    <contour>
      <point x="986" y="1221" type="line"/>
      <point x="769" y="1221" type="line"/>
      <point x="832" y="1091" type="line"/>
      <point x="1120" y="0" type="line"/>
      <point x="1262" y="0" type="line"/>
      <point x="1279" y="109" type="line"/>
    </contour>
    <contour>
      <point x="502" y="0" type="line"/>
      <point x="640" y="0" type="line"/>
      <point x="924" y="1091" type="line"/>
      <point x="986" y="1221" type="line"/>
      <point x="769" y="1221" type="line"/>
      <point x="485" y="109" type="line"/>
    </contour>
    <contour>
      <point x="284" y="1221" type="line"/>
      <point x="25" y="1221" type="line"/>
      <point x="51" y="1155"/>
      <point x="77" y="1075"/>
      <point x="121" y="915" type="curve" smooth="yes"/>
      <point x="376" y="0" type="line"/>
      <point x="518" y="0" type="line"/>
      <point x="535" y="109" type="line"/>
    </contour>
  </outline>
</glyph>
<glyph name="X" format="2">
  <advance width="1141"/>
  <unicode hex="0058"/>
  <anchor x="560" y="-84" name="L"/>
  <anchor x="560" y="1279" name="U"/>
  <outline>
    <contour>
      <point x="828" y="0" type="line"/>
      <point x="1095" y="0" type="line"/>
      <point x="1044" y="69"/>
      <point x="1012" y="105"/>
      <point x="905" y="281" type="curve" smooth="yes"/>
      <point x="334" y="1221" type="line"/>
      <point x="63" y="1221" type="line"/>
      <point x="116" y="1150"/>
      <point x="158" y="1101"/>
      <point x="263" y="928" type="curve"/>
    </contour>
    <contour>
      <point x="506" y="792" type="line"/>
      <point x="213" y="284" type="line" smooth="yes"/>
      <point x="111" y="107"/>
      <point x="78" y="72"/>
      <point x="25" y="0" type="curve"/>
      <point x="293" y="0" type="line"/>
      <point x="585" y="509" type="line"/>
    </contour>
    <contour>
      <point x="627" y="509" type="line"/>
      <point x="869" y="928" type="line" smooth="yes"/>
      <point x="964" y="1092"/>
      <point x="1012" y="1156"/>
      <point x="1066" y="1221" type="curve"/>
      <point x="794" y="1221" type="line"/>
      <point x="548" y="792" type="line"/>
    </contour>
  </outline>
</glyph>
<glyph name="Y" format="1">
  <advance width="1140"/>
  <unicode hex="0059"/>
  <outline>
    <contour>
      <point x="481" y="468" type="line"/>
      <point x="654" y="564" type="line"/>
      <point x="298" y="1221" type="line"/>
      <point x="21" y="1221" type="line"/>
      <point x="115" y="1096"/>
      <point x="170" y="1001"/>
      <point x="234" y="890" type="curve" smooth="yes"/>
    </contour>
    <contour>
      <point x="644" y="468" type="line"/>
      <point x="894" y="890" type="line" smooth="yes"/>
      <point x="957" y="999"/>
      <point x="1004" y="1079"/>
      <point x="1103" y="1221" type="curve"/>
      <point x="833" y="1221" type="line"/>
      <point x="482" y="564" type="line"/>
    </contour>
    <contour>
      <point x="443" y="581" type="line"/>
      <point x="443" y="364" type="line" smooth="yes"/>
      <point x="443" y="199"/>
      <point x="443" y="67"/>
      <point x="431" y="0" type="curve"/>
      <point x="694" y="0" type="line"/>
      <point x="681" y="67"/>
      <point x="681" y="199"/>
      <point x="681" y="364" type="curve" smooth="yes"/>
      <point x="681" y="581" type="line"/>
    </contour>
    <contour>
      <point x="562" y="-84" type="move" name="L"/>
    </contour>
    <contour>
      <point x="562" y="1279" type="move" name="U"/>
    </contour>
  </outline>
</glyph>
<glyph name="Z" format="2">
  <advance width="1045"/>
  <unicode hex="005A"/>
  <anchor x="531" y="-84" name="L"/>
  <anchor x="531" y="1279" name="U"/>
  <outline>
    <contour>
      <point x="949" y="1221" type="line"/>
      <point x="105" y="1221" type="line"/>
      <point x="105" y="1012" type="line"/>
      <point x="178" y="1026"/>
      <point x="287" y="1028"/>
      <point x="468" y="1028" type="curve" smooth="yes"/>
      <point x="663" y="1028" type="line"/>
      <point x="54" y="134" type="line"/>
      <point x="54" y="0" type="line"/>
      <point x="974" y="0" type="line"/>
      <point x="974" y="209" type="line"/>
      <point x="907" y="197"/>
      <point x="774" y="192"/>
      <point x="610" y="192" type="curve" smooth="yes"/>
      <point x="347" y="192" type="line"/>
      <point x="949" y="1074" type="line"/>
    </contour>
  </outline>
</glyph>
<glyph name="bracketleft" format="2">
  <advance width="802"/>
  <unicode hex="005B"/>
  <outline>
    <contour>
      <point x="665" y="-185" type="line"/>
      <point x="665" y="-305" type="line"/>
      <point x="251" y="-305" type="line"/>
      <point x="251" y="1156" type="line"/>
      <point x="665" y="1156" type="line"/>
      <point x="665" y="1036" type="line"/>
      <point x="461" y="1036" type="line"/>
      <point x="461" y="-185" type="line"/>
    </contour>
  </outline>
</glyph>
<glyph name="backslash" format="1">
  <advance width="669"/>
  <unicode hex="005C"/>
  <outline>
    <contour>
      <point x="254" y="1354" type="curve" smooth="yes"/>
      <point x="624" y="-2" type="line" smooth="yes"/>
      <point x="627" y="-14"/>
      <point x="559" y="-20"/>
      <point x="526" y="-20" type="curve" smooth="yes"/>
      <point x="493" y="-20"/>
      <point x="422" y="-14"/>
      <point x="419" y="-2" type="curve" smooth="yes"/>
      <point x="45" y="1354" type="line" smooth="yes"/>
      <point x="42" y="1366"/>
      <point x="111" y="1373"/>
      <point x="148" y="1373" type="curve" smooth="yes"/>
      <point x="181" y="1373"/>
      <point x="251" y="1366"/>
    </contour>
  </outline>
</glyph>
<glyph name="bracketright" format="1">
  <advance width="802"/>
  <unicode hex="005D"/>
  <outline>
    <contour>
      <point x="137" y="1036" type="line"/>
      <point x="137" y="1156" type="line"/>
      <point x="551" y="1156" type="line"/>
      <point x="551" y="-305" type="line"/>
      <point x="137" y="-305" type="line"/>
      <point x="137" y="-185" type="line"/>
      <point x="341" y="-185" type="line"/>
      <point x="341" y="1036" type="line"/>
    </contour>
  </outline>
</glyph>
<glyph name="asciicircum" format="1">
  <advance width="1162"/>
  <unicode hex="005E"/>
  <outline>
    <contour>
      <point x="658" y="1134" type="line"/>
      <point x="1092" y="-1" type="line"/>
      <point x="877" y="-1" type="line"/>
      <point x="581" y="826" type="line"/>
      <point x="284" y="-1" type="line"/>
      <point x="70" y="-1" type="line"/>
      <point x="504" y="1134" type="line"/>
    </contour>
  </outline>
</glyph>
<glyph name="underscore" format="1">
  <advance width="921"/>
  <unicode hex="005F"/>
  <outline>
    <contour>
      <point x="921" y="-150" type="line"/>
      <point x="921" y="-230" type="line"/>
      <point x="0" y="-230" type="line"/>
      <point x="0" y="-150" type="line"/>
    </contour>
  </outline>
</glyph>
<glyph name="grave" format="2">
  <advance width="535"/>
  <unicode hex="0060"/>
  <anchor x="418" y="1367" name="U"/>
  <outline>
    <contour>
      <point x="0" y="1338" type="line"/>
      <point x="334" y="1003" type="line"/>
      <point x="535" y="1003" type="line"/>
      <point x="293" y="1338" type="line"/>
    </contour>
  </outline>
</glyph>
<glyph name="b" format="2">
  <advance width="1016"/>
  <unicode hex="0062"/>
  <anchor x="510" y="0" name="H"/>
  <anchor x="510" y="-84" name="L"/>
  <anchor x="1016" y="836" name="R"/>
  <anchor x="510" y="1367" name="U"/>
  <outline>
    <contour>
      <point x="100" y="1338" type="line"/>
      <point x="113" y="1244"/>
      <point x="113" y="1064"/>
      <point x="113" y="945" type="curve" smooth="yes"/>
      <point x="113" y="782"/>
      <point x="113" y="191"/>
      <point x="113" y="54" type="curve"/>
      <point x="239" y="22"/>
      <point x="382" y="-21"/>
      <point x="543" y="-21" type="curve" smooth="yes"/>
      <point x="785" y="-21"/>
      <point x="941" y="165"/>
      <point x="941" y="451" type="curve" smooth="yes"/>
      <point x="941" y="696"/>
      <point x="824" y="869"/>
      <point x="660" y="869" type="curve" smooth="yes"/>
      <point x="523" y="869"/>
      <point x="422" y="799"/>
      <point x="347" y="706" type="curve"/>
      <point x="347" y="781"/>
      <point x="347" y="1338"/>
      <point x="347" y="1338" type="curve"/>
    </contour>
    <contour>
      <point x="347" y="489" type="line"/>
      <point x="394" y="593"/>
      <point x="485" y="665"/>
      <point x="571" y="665" type="curve" smooth="yes"/>
      <point x="663" y="665"/>
      <point x="715" y="572"/>
      <point x="715" y="422" type="curve" smooth="yes"/>
      <point x="715" y="265"/>
      <point x="627" y="159"/>
      <point x="506" y="159" type="curve" smooth="yes"/>
      <point x="450" y="159"/>
      <point x="411" y="171"/>
      <point x="347" y="201" type="curve"/>
    </contour>
  </outline>
</glyph>
<glyph name="c" format="1">
  <advance width="854"/>
  <unicode hex="0063"/>
  <outline>
    <contour>
      <point x="771" y="810" type="line"/>
      <point x="710" y="842"/>
      <point x="622" y="869"/>
      <point x="512" y="869" type="curve" smooth="yes"/>
      <point x="247" y="869"/>
      <point x="75" y="670"/>
      <point x="75" y="410" type="curve" smooth="yes"/>
      <point x="75" y="135"/>
      <point x="258" y="-21"/>
      <point x="483" y="-21" type="curve" smooth="yes"/>
      <point x="608" y="-21"/>
      <point x="695" y="7"/>
      <point x="779" y="59" type="curve"/>
      <point x="754" y="263" type="line"/>
      <point x="681" y="205"/>
      <point x="616" y="171"/>
      <point x="516" y="171" type="curve" smooth="yes"/>
      <point x="390" y="171"/>
      <point x="309" y="271"/>
      <point x="309" y="418" type="curve" smooth="yes"/>
      <point x="309" y="580"/>
      <point x="400" y="677"/>
      <point x="516" y="677" type="curve" smooth="yes"/>
      <point x="602" y="677"/>
      <point x="659" y="651"/>
      <point x="734" y="599" type="curve"/>
    </contour>
    <contour>
      <point x="464" y="0" type="move" name="H"/>
    </contour>
    <contour>
      <point x="481" y="-84" type="move" name="L"/>
    </contour>
    <contour>
      <point x="853" y="836" type="move" name="R"/>
    </contour>
    <contour>
      <point x="481" y="920" type="move" name="U"/>
    </contour>
  </outline>
</glyph>
<glyph name="d" format="1">
  <advance width="1058"/>
  <unicode hex="0064"/>
  <outline>
    <contour>
      <point x="932" y="1338" type="line"/>
      <point x="677" y="1338" type="line"/>
      <point x="693" y="1267"/>
      <point x="698" y="1166"/>
      <point x="698" y="1032" type="curve" smooth="yes"/>
      <point x="698" y="798" type="line"/>
      <point x="638" y="835"/>
      <point x="559" y="869"/>
      <point x="493" y="869" type="curve" smooth="yes"/>
      <point x="267" y="869"/>
      <point x="84" y="681"/>
      <point x="84" y="385" type="curve" smooth="yes"/>
      <point x="84" y="140"/>
      <point x="224" y="-21"/>
      <point x="431" y="-21" type="curve" smooth="yes"/>
      <point x="547" y="-21"/>
      <point x="644" y="39"/>
      <point x="719" y="146" type="curve"/>
      <point x="733" y="88"/>
      <point x="752" y="27"/>
      <point x="765" y="0" type="curve"/>
      <point x="995" y="0" type="line"/>
      <point x="959" y="94"/>
      <point x="932" y="232"/>
      <point x="932" y="443" type="curve" smooth="yes"/>
    </contour>
    <contour>
      <point x="698" y="334" type="line"/>
      <point x="658" y="251"/>
      <point x="565" y="167"/>
      <point x="477" y="167" type="curve" smooth="yes"/>
      <point x="370" y="167"/>
      <point x="318" y="251"/>
      <point x="318" y="410" type="curve" smooth="yes"/>
      <point x="318" y="573"/>
      <point x="405" y="669"/>
      <point x="493" y="669" type="curve" smooth="yes"/>
      <point x="571" y="669"/>
      <point x="621" y="655"/>
      <point x="698" y="617" type="curve"/>
    </contour>
    <contour>
      <point x="497" y="0" type="move" name="H"/>
    </contour>
    <contour>
      <point x="497" y="-84" type="move" name="L"/>
    </contour>
    <contour>
      <point x="1074" y="836" type="move" name="R"/>
    </contour>
    <contour>
      <point x="510" y="1367" type="move" name="U"/>
    </contour>
  </outline>
</glyph>
<glyph name="e" format="2">
  <advance width="928"/>
  <unicode hex="0065"/>
  <anchor x="476" y="0" name="H"/>
  <anchor x="492" y="-84" name="L"/>
  <anchor x="752" y="0" name="O"/>
  <anchor x="945" y="836" name="R"/>
  <anchor x="449" y="920" name="U"/>
  <outline>
    <contour>
      <point x="844" y="376" type="line"/>
      <point x="844" y="392"/>
      <point x="844" y="429"/>
      <point x="844" y="445" type="curve" smooth="yes"/>
      <point x="844" y="654"/>
      <point x="772" y="869"/>
      <point x="492" y="869" type="curve" smooth="yes"/>
      <point x="235" y="869"/>
      <point x="75" y="691"/>
      <point x="75" y="414" type="curve" smooth="yes"/>
      <point x="75" y="130"/>
      <point x="271" y="-21"/>
      <point x="492" y="-21" type="curve" smooth="yes"/>
      <point x="623" y="-21"/>
      <point x="728" y="2"/>
      <point x="849" y="63" type="curve"/>
      <point x="831" y="256" type="line"/>
      <point x="727" y="194"/>
      <point x="623" y="171"/>
      <point x="513" y="171" type="curve" smooth="yes"/>
      <point x="375" y="171"/>
      <point x="303" y="245"/>
      <point x="303" y="422" type="curve" smooth="yes"/>
      <point x="303" y="618"/>
      <point x="360" y="694"/>
      <point x="481" y="694" type="curve" smooth="yes"/>
      <point x="579" y="694"/>
      <point x="631" y="644"/>
      <point x="631" y="527" type="curve"/>
      <point x="202" y="527" type="line"/>
      <point x="202" y="376" type="line"/>
    </contour>
  </outline>
</glyph>
<glyph name="f" format="2">
  <advance width="669"/>
  <unicode hex="0066"/>
  <anchor x="318" y="0" name="H"/>
  <anchor x="334" y="-84" name="L"/>
  <anchor x="502" y="1367" name="U"/>
  <outline>
    <contour>
      <point x="25" y="673" type="line"/>
      <point x="192" y="673" type="line"/>
      <point x="192" y="0" type="line"/>
      <point x="451" y="0" type="line"/>
      <point x="433" y="88"/>
      <point x="426" y="251"/>
      <point x="426" y="413" type="curve" smooth="yes"/>
      <point x="426" y="673" type="line"/>
      <point x="640" y="673" type="line"/>
      <point x="640" y="840" type="line"/>
      <point x="426" y="840" type="line"/>
      <point x="426" y="969" type="line" smooth="yes"/>
      <point x="426" y="1105"/>
      <point x="461" y="1160"/>
      <point x="542" y="1160" type="curve" smooth="yes"/>
      <point x="583" y="1160"/>
      <point x="640" y="1139"/>
      <point x="675" y="1105" type="curve"/>
      <point x="723" y="1296" type="line"/>
      <point x="674" y="1328"/>
      <point x="584" y="1354"/>
      <point x="523" y="1354" type="curve" smooth="yes"/>
      <point x="316" y="1354"/>
      <point x="192" y="1229"/>
      <point x="192" y="978" type="curve" smooth="yes"/>
      <point x="192" y="840" type="line"/>
      <point x="25" y="840" type="line"/>
    </contour>
  </outline>
</glyph>
<glyph name="h" format="1">
  <advance width="1032"/>
  <unicode hex="0068"/>
  <outline>
    <contour>
      <point x="347" y="485" type="line"/>
      <point x="376" y="571"/>
      <point x="468" y="665"/>
      <point x="564" y="665" type="curve" smooth="yes"/>
      <point x="654" y="665"/>
      <point x="694" y="622"/>
      <point x="694" y="460" type="curve" smooth="yes"/>
      <point x="694" y="345"/>
      <point x="694" y="0"/>
      <point x="694" y="0" type="curve"/>
      <point x="928" y="0" type="line"/>
      <point x="928" y="0"/>
      <point x="928" y="384"/>
      <point x="928" y="523" type="curve" smooth="yes"/>
      <point x="928" y="752"/>
      <point x="843" y="869"/>
      <point x="673" y="869" type="curve" smooth="yes"/>
      <point x="553" y="869"/>
      <point x="429" y="816"/>
      <point x="347" y="711" type="curve"/>
      <point x="347" y="747"/>
      <point x="347" y="1338"/>
      <point x="347" y="1338" type="curve"/>
      <point x="100" y="1338" type="line"/>
      <point x="113" y="1266"/>
      <point x="113" y="1124"/>
      <point x="113" y="945" type="curve" smooth="yes"/>
      <point x="113" y="782"/>
      <point x="113" y="0"/>
      <point x="113" y="0" type="curve"/>
      <point x="347" y="0" type="line"/>
    </contour>
    <contour>
      <point x="234" y="0" type="move" name="H"/>
    </contour>
    <contour>
      <point x="518" y="-84" type="move" name="L"/>
    </contour>
    <contour>
      <point x="518" y="1367" type="move" name="U"/>
    </contour>
  </outline>
</glyph>
<glyph name="i" format="2">
  <advance width="535"/>
  <unicode hex="0069"/>
  <anchor x="268" y="0" name="H"/>
  <anchor x="268" y="-84" name="L"/>
  <anchor x="485" y="0" name="O"/>
  <anchor x="535" y="836" name="R"/>
  <anchor x="268" y="920" name="U"/>
  <outline>
    <contour>
      <point x="138" y="853" type="line"/>
      <point x="149" y="765"/>
      <point x="150" y="606"/>
      <point x="150" y="443" type="curve" smooth="yes"/>
      <point x="150" y="281"/>
      <point x="150" y="0"/>
      <point x="150" y="0" type="curve"/>
      <point x="401" y="0" type="line"/>
      <point x="390" y="89"/>
      <point x="385" y="289"/>
      <point x="385" y="397" type="curve" smooth="yes"/>
      <point x="385" y="466"/>
      <point x="385" y="853"/>
      <point x="385" y="853" type="curve"/>
    </contour>
    <contour>
      <point x="121" y="1158" type="curve" smooth="yes"/>
      <point x="121" y="1071"/>
      <point x="183" y="1012"/>
      <point x="268" y="1012" type="curve" smooth="yes"/>
      <point x="353" y="1012"/>
      <point x="414" y="1071"/>
      <point x="414" y="1158" type="curve" smooth="yes"/>
      <point x="414" y="1243"/>
      <point x="353" y="1304"/>
      <point x="268" y="1304" type="curve" smooth="yes"/>
      <point x="183" y="1304"/>
      <point x="121" y="1243"/>
    </contour>
  </outline>
</glyph>
<glyph name="j" format="2">
  <advance width="560"/>
  <unicode hex="006A"/>
  <anchor x="117" y="-418" name="L"/>
  <anchor x="297" y="920" name="U"/>
  <outline>
    <contour>
      <point x="155" y="1158" type="curve" smooth="yes"/>
      <point x="155" y="1071"/>
      <point x="217" y="1012"/>
      <point x="301" y="1012" type="curve" smooth="yes"/>
      <point x="386" y="1012"/>
      <point x="447" y="1071"/>
      <point x="447" y="1158" type="curve" smooth="yes"/>
      <point x="447" y="1243"/>
      <point x="386" y="1304"/>
      <point x="301" y="1304" type="curve" smooth="yes"/>
      <point x="217" y="1304"/>
      <point x="155" y="1243"/>
    </contour>
    <contour>
      <point x="418" y="853" type="line"/>
      <point x="171" y="853" type="line"/>
      <point x="182" y="765"/>
      <point x="184" y="606"/>
      <point x="184" y="443" type="curve"/>
      <point x="184" y="17" type="line"/>
      <point x="184" y="-125"/>
      <point x="138" y="-194"/>
      <point x="40" y="-194" type="curve" smooth="yes"/>
      <point x="-17" y="-194"/>
      <point x="-84" y="-163"/>
      <point x="-121" y="-127" type="curve"/>
      <point x="-159" y="-325" type="line"/>
      <point x="-124" y="-352"/>
      <point x="-31" y="-393"/>
      <point x="47" y="-393" type="curve" smooth="yes"/>
      <point x="256" y="-393"/>
      <point x="418" y="-291"/>
      <point x="418" y="21" type="curve" smooth="yes"/>
    </contour>
  </outline>
</glyph>
<glyph name="k" format="1">
  <advance width="951"/>
  <unicode hex="006B"/>
  <outline>
    <contour>
      <point x="347" y="0" type="line"/>
      <point x="347" y="1338" type="line"/>
      <point x="100" y="1338" type="line"/>
      <point x="113" y="1266"/>
      <point x="113" y="1124"/>
      <point x="113" y="945" type="curve" smooth="yes"/>
      <point x="113" y="781"/>
      <point x="113" y="0"/>
      <point x="113" y="0" type="curve"/>
    </contour>
    <contour>
      <point x="604" y="853" type="line"/>
      <point x="295" y="477" type="line"/>
      <point x="478" y="441" type="line"/>
      <point x="918" y="853" type="line"/>
    </contour>
    <contour>
      <point x="293" y="477" type="line"/>
      <point x="636" y="0" type="line"/>
      <point x="943" y="0" type="line"/>
      <point x="451" y="555" type="line"/>
    </contour>
    <contour>
      <point x="786" y="0" type="move" name="H"/>
    </contour>
    <contour>
      <point x="489" y="-84" type="move" name="L"/>
    </contour>
    <contour>
      <point x="953" y="836" type="move" name="R"/>
    </contour>
    <contour>
      <point x="497" y="1367" type="move" name="U"/>
    </contour>
  </outline>
</glyph>
<glyph name="l" format="2">
  <advance width="535"/>
  <unicode hex="006C"/>
  <anchor x="280" y="0" name="H"/>
  <anchor x="280" y="-84" name="L"/>
  <anchor x="552" y="836" name="R"/>
  <anchor x="268" y="1367" name="U"/>
  <outline>
    <contour>
      <point x="385" y="1338" type="line"/>
      <point x="134" y="1338" type="line"/>
      <point x="145" y="1241"/>
      <point x="150" y="1107"/>
      <point x="150" y="945" type="curve" smooth="yes"/>
      <point x="150" y="0" type="line"/>
      <point x="401" y="0" type="line"/>
      <point x="390" y="91"/>
      <point x="385" y="289"/>
      <point x="385" y="397" type="curve" smooth="yes"/>
    </contour>
  </outline>
</glyph>
<glyph name="m" format="1">
  <advance width="1471"/>
  <unicode hex="006D"/>
  <outline>
    <contour>
      <point x="96" y="853" type="line"/>
      <point x="114" y="795"/>
      <point x="138" y="678"/>
      <point x="138" y="514" type="curve" smooth="yes"/>
      <point x="138" y="0" type="line"/>
      <point x="372" y="0" type="line"/>
      <point x="372" y="535" type="line"/>
      <point x="405" y="611"/>
      <point x="468" y="665"/>
      <point x="531" y="665" type="curve" smooth="yes"/>
      <point x="604" y="665"/>
      <point x="627" y="635"/>
      <point x="627" y="477" type="curve" smooth="yes"/>
      <point x="627" y="0" type="line"/>
      <point x="861" y="0" type="line"/>
      <point x="861" y="552" type="line"/>
      <point x="897" y="620"/>
      <point x="959" y="665"/>
      <point x="1020" y="665" type="curve" smooth="yes"/>
      <point x="1095" y="665"/>
      <point x="1116" y="628"/>
      <point x="1116" y="460" type="curve" smooth="yes"/>
      <point x="1116" y="0" type="line"/>
      <point x="1350" y="0" type="line"/>
      <point x="1350" y="552" type="line" smooth="yes"/>
      <point x="1350" y="758"/>
      <point x="1294" y="869"/>
      <point x="1124" y="869" type="curve" smooth="yes"/>
      <point x="1037" y="869"/>
      <point x="946" y="842"/>
      <point x="841" y="729" type="curve"/>
      <point x="813" y="803"/>
      <point x="745" y="869"/>
      <point x="635" y="869" type="curve" smooth="yes"/>
      <point x="538" y="869"/>
      <point x="455" y="843"/>
      <point x="353" y="732" type="curve"/>
      <point x="344" y="769"/>
      <point x="332" y="820"/>
      <point x="314" y="853" type="curve"/>
    </contour>
    <contour>
      <point x="744" y="0" type="move" name="H"/>
    </contour>
    <contour>
      <point x="744" y="-84" type="move" name="L"/>
    </contour>
    <contour>
      <point x="744" y="920" type="move" name="U"/>
    </contour>
  </outline>
</glyph>
<glyph name="n" format="2">
  <advance width="1041"/>
  <unicode hex="006E"/>
  <anchor x="518" y="0" name="H"/>
  <anchor x="518" y="-84" name="L"/>
  <anchor x="518" y="920" name="U"/>
  <outline>
    <contour>
      <point x="936" y="0" type="line"/>
      <point x="936" y="0"/>
      <point x="936" y="384"/>
      <point x="936" y="523" type="curve" smooth="yes"/>
      <point x="936" y="752"/>
      <point x="834" y="869"/>
      <point x="665" y="869" type="curve" smooth="yes"/>
      <point x="547" y="869"/>
      <point x="449" y="819"/>
      <point x="343" y="698" type="curve"/>
      <point x="337" y="737"/>
      <point x="322" y="819"/>
      <point x="309" y="853" type="curve"/>
      <point x="79" y="853" type="line"/>
      <point x="98" y="795"/>
      <point x="121" y="678"/>
      <point x="121" y="514" type="curve" smooth="yes"/>
      <point x="121" y="351"/>
      <point x="121" y="0"/>
      <point x="121" y="0" type="curve"/>
      <point x="355" y="0" type="line"/>
      <point x="355" y="485" type="line"/>
      <point x="385" y="571"/>
      <point x="477" y="665"/>
      <point x="573" y="665" type="curve" smooth="yes"/>
      <point x="662" y="665"/>
      <point x="702" y="614"/>
      <point x="702" y="460" type="curve" smooth="yes"/>
      <point x="702" y="345"/>
      <point x="702" y="0"/>
      <point x="702" y="0" type="curve"/>
    </contour>
  </outline>
</glyph>
<glyph name="o" format="1">
  <advance width="970"/>
  <unicode hex="006F"/>
  <outline>
    <contour>
      <point x="75" y="424" type="curve" smooth="yes"/>
      <point x="75" y="136"/>
      <point x="241" y="-21"/>
      <point x="477" y="-21" type="curve" smooth="yes"/>
      <point x="702" y="-21"/>
      <point x="895" y="136"/>
      <point x="895" y="424" type="curve" smooth="yes"/>
      <point x="895" y="711"/>
      <point x="730" y="869"/>
      <point x="493" y="869" type="curve" smooth="yes"/>
      <point x="268" y="869"/>
      <point x="75" y="711"/>
    </contour>
    <contour>
      <point x="309" y="424" type="curve" smooth="yes"/>
      <point x="309" y="584"/>
      <point x="377" y="681"/>
      <point x="485" y="681" type="curve" smooth="yes"/>
      <point x="599" y="681"/>
      <point x="660" y="584"/>
      <point x="660" y="424" type="curve" smooth="yes"/>
      <point x="660" y="264"/>
      <point x="593" y="167"/>
      <point x="485" y="167" type="curve" smooth="yes"/>
      <point x="370" y="167"/>
      <point x="309" y="264"/>
    </contour>
    <contour>
      <point x="483" y="0" type="move" name="H"/>
    </contour>
    <contour>
      <point x="485" y="-84" type="move" name="L"/>
    </contour>
    <contour>
      <point x="660" y="0" type="move" name="O"/>
    </contour>
    <contour>
      <point x="970" y="836" type="move" name="R"/>
    </contour>
    <contour>
      <point x="485" y="920" type="move" name="U"/>
    </contour>
  </outline>
</glyph>
<glyph name="p" format="2">
  <advance width="1032"/>
  <unicode hex="0070"/>
  <anchor x="242" y="-364" name="H"/>
  <anchor x="535" y="-418" name="L"/>
  <anchor x="1032" y="836" name="R"/>
  <anchor x="535" y="920" name="U"/>
  <outline>
    <contour>
      <point x="376" y="-410" type="line"/>
      <point x="362" y="-339"/>
      <point x="355" y="-259"/>
      <point x="355" y="-125" type="curve" smooth="yes"/>
      <point x="355" y="-59"/>
      <point x="355" y="-34"/>
      <point x="355" y="54" type="curve"/>
      <point x="433" y="8"/>
      <point x="497" y="-21"/>
      <point x="584" y="-21" type="curve" smooth="yes"/>
      <point x="790" y="-21"/>
      <point x="957" y="161"/>
      <point x="957" y="447" type="curve" smooth="yes"/>
      <point x="957" y="692"/>
      <point x="833" y="869"/>
      <point x="646" y="869" type="curve" smooth="yes"/>
      <point x="525" y="869"/>
      <point x="420" y="804"/>
      <point x="343" y="711" type="curve"/>
      <point x="335" y="779"/>
      <point x="322" y="828"/>
      <point x="309" y="853" type="curve"/>
      <point x="79" y="853" type="line"/>
      <point x="117" y="758"/>
      <point x="121" y="614"/>
      <point x="121" y="405" type="curve" smooth="yes"/>
      <point x="121" y="243"/>
      <point x="121" y="-288"/>
      <point x="121" y="-410" type="curve"/>
    </contour>
    <contour>
      <point x="529" y="172" type="curve" smooth="yes"/>
      <point x="472" y="172"/>
      <point x="441" y="188"/>
      <point x="355" y="251" type="curve"/>
      <point x="355" y="326"/>
      <point x="355" y="424"/>
      <point x="355" y="489" type="curve"/>
      <point x="403" y="607"/>
      <point x="487" y="670"/>
      <point x="562" y="670" type="curve" smooth="yes"/>
      <point x="663" y="670"/>
      <point x="723" y="573"/>
      <point x="723" y="422" type="curve" smooth="yes"/>
      <point x="723" y="268"/>
      <point x="631" y="172"/>
    </contour>
  </outline>
</glyph>
<glyph name="q" format="2">
  <advance width="1012"/>
  <unicode hex="0071"/>
  <anchor x="502" y="-418" name="L"/>
  <anchor x="1012" y="836" name="R"/>
  <anchor x="502" y="920" name="U"/>
  <outline>
    <contour>
      <point x="660" y="-410" type="line"/>
      <point x="915" y="-410" type="line"/>
      <point x="901" y="-339"/>
      <point x="895" y="-259"/>
      <point x="895" y="-125" type="curve" smooth="yes"/>
      <point x="895" y="-22"/>
      <point x="895" y="807"/>
      <point x="895" y="807" type="curve"/>
      <point x="781" y="837"/>
      <point x="646" y="869"/>
      <point x="518" y="869" type="curve" smooth="yes"/>
      <point x="213" y="869"/>
      <point x="84" y="620"/>
      <point x="84" y="364" type="curve" smooth="yes"/>
      <point x="84" y="98"/>
      <point x="264" y="-21"/>
      <point x="418" y="-21" type="curve" smooth="yes"/>
      <point x="496" y="-21"/>
      <point x="573" y="12"/>
      <point x="660" y="100" type="curve"/>
    </contour>
    <contour>
      <point x="660" y="308" type="line"/>
      <point x="608" y="216"/>
      <point x="543" y="170"/>
      <point x="485" y="170" type="curve" smooth="yes"/>
      <point x="397" y="170"/>
      <point x="318" y="240"/>
      <point x="318" y="405" type="curve" smooth="yes"/>
      <point x="318" y="536"/>
      <point x="381" y="670"/>
      <point x="548" y="670" type="curve" smooth="yes"/>
      <point x="582" y="670"/>
      <point x="626" y="660"/>
      <point x="660" y="644" type="curve"/>
    </contour>
  </outline>
</glyph>
<glyph name="r" format="2">
  <advance width="832"/>
  <unicode hex="0072"/>
  <anchor x="238" y="0" name="H"/>
  <anchor x="230" y="-84" name="L"/>
  <anchor x="460" y="920" name="U"/>
  <outline>
    <contour>
      <point x="355" y="0" type="line"/>
      <point x="355" y="443" type="line"/>
      <point x="385" y="547"/>
      <point x="477" y="653"/>
      <point x="533" y="653" type="curve" smooth="yes"/>
      <point x="604" y="653"/>
      <point x="631" y="603"/>
      <point x="637" y="527" type="curve"/>
      <point x="823" y="556" type="line"/>
      <point x="823" y="726"/>
      <point x="763" y="869"/>
      <point x="606" y="869" type="curve" smooth="yes"/>
      <point x="530" y="869"/>
      <point x="424" y="806"/>
      <point x="343" y="690" type="curve"/>
      <point x="337" y="730"/>
      <point x="322" y="818"/>
      <point x="309" y="853" type="curve"/>
      <point x="79" y="853" type="line"/>
      <point x="98" y="795"/>
      <point x="121" y="678"/>
      <point x="121" y="514" type="curve" smooth="yes"/>
      <point x="121" y="0" type="line"/>
    </contour>
  </outline>
</glyph>
<glyph name="s" format="2">
  <advance width="865"/>
  <unicode hex="0073"/>
  <anchor x="431" y="0" name="H"/>
  <anchor x="431" y="-84" name="L"/>
  <anchor x="443" y="920" name="U"/>
  <outline>
    <contour>
      <point x="757" y="803" type="line"/>
      <point x="691" y="834"/>
      <point x="592" y="869"/>
      <point x="456" y="869" type="curve" smooth="yes"/>
      <point x="169" y="869"/>
      <point x="92" y="684"/>
      <point x="92" y="602" type="curve" smooth="yes"/>
      <point x="92" y="497"/>
      <point x="143" y="410"/>
      <point x="380" y="361" type="curve" smooth="yes"/>
      <point x="540" y="326"/>
      <point x="577" y="291"/>
      <point x="577" y="242" type="curve" smooth="yes"/>
      <point x="577" y="203"/>
      <point x="522" y="166"/>
      <point x="443" y="166" type="curve" smooth="yes"/>
      <point x="345" y="166"/>
      <point x="212" y="212"/>
      <point x="130" y="279" type="curve"/>
      <point x="84" y="75" type="line"/>
      <point x="156" y="23"/>
      <point x="289" y="-21"/>
      <point x="439" y="-21" type="curve" smooth="yes"/>
      <point x="642" y="-21"/>
      <point x="803" y="103"/>
      <point x="803" y="263" type="curve" smooth="yes"/>
      <point x="803" y="421"/>
      <point x="659" y="487"/>
      <point x="485" y="523" type="curve" smooth="yes"/>
      <point x="339" y="551"/>
      <point x="318" y="569"/>
      <point x="318" y="610" type="curve" smooth="yes"/>
      <point x="318" y="644"/>
      <point x="349" y="682"/>
      <point x="447" y="682" type="curve" smooth="yes"/>
      <point x="563" y="682"/>
      <point x="661" y="635"/>
      <point x="724" y="603" type="curve"/>
    </contour>
  </outline>
</glyph>
<glyph name="t" format="2">
  <advance width="740"/>
  <unicode hex="0074"/>
  <anchor x="443" y="0" name="H"/>
  <anchor x="443" y="-84" name="L"/>
  <anchor x="740" y="836" name="R"/>
  <anchor x="301" y="1137" name="U"/>
  <outline>
    <contour>
      <point x="184" y="226" type="line"/>
      <point x="184" y="33"/>
      <point x="313" y="-21"/>
      <point x="471" y="-21" type="curve" smooth="yes"/>
      <point x="531" y="-21"/>
      <point x="606" y="-3"/>
      <point x="686" y="48" type="curve"/>
      <point x="686" y="235" type="line"/>
      <point x="619" y="194"/>
      <point x="567" y="172"/>
      <point x="524" y="172" type="curve" smooth="yes"/>
      <point x="449" y="172"/>
      <point x="418" y="196"/>
      <point x="418" y="386" type="curve" smooth="yes"/>
      <point x="418" y="1104" type="line"/>
      <point x="184" y="1104" type="line"/>
    </contour>
    <contour>
      <point x="673" y="673" type="line"/>
      <point x="673" y="840" type="line"/>
      <point x="25" y="840" type="line"/>
      <point x="25" y="673" type="line"/>
    </contour>
  </outline>
</glyph>
<glyph name="u" format="2">
  <advance width="1041"/>
  <unicode hex="0075"/>
  <anchor x="431" y="0" name="H"/>
  <anchor x="514" y="-84" name="L"/>
  <anchor x="577" y="0" name="O"/>
  <anchor x="1052" y="836" name="R"/>
  <anchor x="514" y="920" name="U"/>
  <outline>
    <contour>
      <point x="970" y="0" type="line"/>
      <point x="935" y="94"/>
      <point x="915" y="214"/>
      <point x="915" y="376" type="curve" smooth="yes"/>
      <point x="915" y="540"/>
      <point x="915" y="853"/>
      <point x="915" y="853" type="curve"/>
      <point x="665" y="853" type="line"/>
      <point x="680" y="751"/>
      <point x="681" y="696"/>
      <point x="681" y="585" type="curve" smooth="yes"/>
      <point x="681" y="349" type="line"/>
      <point x="647" y="273"/>
      <point x="544" y="172"/>
      <point x="468" y="172" type="curve" smooth="yes"/>
      <point x="383" y="172"/>
      <point x="355" y="237"/>
      <point x="355" y="389" type="curve" smooth="yes"/>
      <point x="355" y="504"/>
      <point x="355" y="853"/>
      <point x="355" y="853" type="curve"/>
      <point x="105" y="853" type="line"/>
      <point x="120" y="752"/>
      <point x="121" y="691"/>
      <point x="121" y="585" type="curve" smooth="yes"/>
      <point x="121" y="569"/>
      <point x="121" y="354"/>
      <point x="121" y="339" type="curve" smooth="yes"/>
      <point x="121" y="100"/>
      <point x="209" y="-21"/>
      <point x="383" y="-21" type="curve" smooth="yes"/>
      <point x="497" y="-21"/>
      <point x="604" y="40"/>
      <point x="702" y="155" type="curve"/>
      <point x="711" y="97"/>
      <point x="732" y="36"/>
      <point x="748" y="0" type="curve"/>
    </contour>
  </outline>
</glyph>
<glyph name="v" format="2">
  <advance width="923"/>
  <unicode hex="0076"/>
  <anchor x="472" y="0" name="H"/>
  <anchor x="472" y="-84" name="L"/>
  <anchor x="627" y="0" name="O"/>
  <anchor x="472" y="920" name="U"/>
  <outline>
    <contour>
      <point x="657" y="853" type="line"/>
      <point x="465" y="242" type="line"/>
      <point x="269" y="853" type="line"/>
      <point x="8" y="853" type="line"/>
      <point x="54" y="757"/>
      <point x="111" y="624"/>
      <point x="138" y="556" type="curve" smooth="yes"/>
      <point x="190" y="426"/>
      <point x="359" y="0"/>
      <point x="359" y="0" type="curve"/>
      <point x="563" y="0" type="line"/>
      <point x="563" y="0"/>
      <point x="741" y="448"/>
      <point x="785" y="556" type="curve" smooth="yes"/>
      <point x="813" y="622"/>
      <point x="867" y="757"/>
      <point x="915" y="853" type="curve"/>
    </contour>
  </outline>
</glyph>
<glyph name="w" format="1">
  <advance width="1313"/>
  <unicode hex="0077"/>
  <outline>
    <contour>
      <point x="556" y="853" type="line"/>
      <point x="401" y="238" type="line"/>
      <point x="270" y="853" type="line"/>
      <point x="29" y="853" type="line"/>
      <point x="69" y="725"/>
      <point x="92" y="645"/>
      <point x="117" y="556" type="curve" smooth="yes"/>
      <point x="272" y="0" type="line"/>
      <point x="514" y="0" type="line"/>
      <point x="656" y="581" type="line"/>
      <point x="798" y="0" type="line"/>
      <point x="1041" y="0" type="line"/>
      <point x="1195" y="556" type="line" smooth="yes"/>
      <point x="1224" y="656"/>
      <point x="1244" y="726"/>
      <point x="1283" y="853" type="curve"/>
      <point x="1042" y="853" type="line"/>
      <point x="911" y="238" type="line"/>
      <point x="757" y="853" type="line"/>
    </contour>
    <contour>
      <point x="656" y="-84" type="move" name="L"/>
    </contour>
    <contour>
      <point x="656" y="920" type="move" name="U"/>
    </contour>
  </outline>
</glyph>
<glyph name="x" format="1">
  <advance width="991"/>
  <unicode hex="0078"/>
  <outline>
    <contour>
      <point x="681" y="0" type="line"/>
      <point x="957" y="0" type="line"/>
      <point x="867" y="108"/>
      <point x="827" y="159"/>
      <point x="777" y="226" type="curve" smooth="yes"/>
      <point x="318" y="853" type="line"/>
      <point x="42" y="853" type="line"/>
      <point x="132" y="742"/>
      <point x="161" y="704"/>
      <point x="217" y="627" type="curve" smooth="yes"/>
    </contour>
    <contour>
      <point x="417" y="515" type="line"/>
      <point x="205" y="226" type="line" smooth="yes"/>
      <point x="163" y="168"/>
      <point x="125" y="120"/>
      <point x="33" y="0" type="curve"/>
      <point x="288" y="0" type="line"/>
      <point x="488" y="300" type="line"/>
    </contour>
    <contour>
      <point x="564" y="339" type="line"/>
      <point x="773" y="627" type="line" smooth="yes"/>
      <point x="819" y="691"/>
      <point x="859" y="741"/>
      <point x="945" y="853" type="curve"/>
      <point x="690" y="853" type="line"/>
      <point x="497" y="558" type="line"/>
    </contour>
    <contour>
      <point x="803" y="0" type="move" name="H"/>
    </contour>
    <contour>
      <point x="493" y="-84" type="move" name="L"/>
    </contour>
    <contour>
      <point x="514" y="920" type="move" name="U"/>
    </contour>
  </outline>
</glyph>
<glyph name="y" format="2">
  <advance width="920"/>
  <unicode hex="0079"/>
  <anchor x="706" y="-84" name="L"/>
  <anchor x="966" y="836" name="R"/>
  <anchor x="472" y="920" name="U"/>
  <outline>
    <contour>
      <point x="278" y="853" type="line"/>
      <point x="17" y="853" type="line"/>
      <point x="81" y="722"/>
      <point x="120" y="633"/>
      <point x="150" y="556" type="curve" smooth="yes"/>
      <point x="401" y="-91" type="line"/>
      <point x="507" y="160" type="line"/>
    </contour>
    <contour>
      <point x="790" y="556" type="line" smooth="yes"/>
      <point x="818" y="634"/>
      <point x="854" y="723"/>
      <point x="911" y="853" type="curve"/>
      <point x="650" y="853" type="line"/>
      <point x="520" y="363"/>
      <point x="443" y="143"/>
      <point x="408" y="61" type="curve" smooth="yes"/>
      <point x="339" y="-100"/>
      <point x="284" y="-202"/>
      <point x="215" y="-202" type="curve" smooth="yes"/>
      <point x="150" y="-202"/>
      <point x="85" y="-169"/>
      <point x="50" y="-140" type="curve"/>
      <point x="-8" y="-322" type="line"/>
      <point x="53" y="-367"/>
      <point x="129" y="-393"/>
      <point x="205" y="-393" type="curve" smooth="yes"/>
      <point x="357" y="-393"/>
      <point x="472" y="-324"/>
      <point x="589" y="0" type="curve" smooth="yes"/>
    </contour>
  </outline>
</glyph>
<glyph name="z" format="1">
  <advance width="886"/>
  <unicode hex="007A"/>
  <outline>
    <contour>
      <point x="105" y="853" type="line"/>
      <point x="105" y="660" type="line"/>
      <point x="135" y="673"/>
      <point x="185" y="673"/>
      <point x="234" y="673" type="curve" smooth="yes"/>
      <point x="514" y="673" type="line"/>
      <point x="79" y="133" type="line"/>
      <point x="79" y="0" type="line"/>
      <point x="815" y="0" type="line"/>
      <point x="815" y="192" type="line"/>
      <point x="754" y="180"/>
      <point x="691" y="180"/>
      <point x="631" y="180" type="curve" smooth="yes"/>
      <point x="359" y="180" type="line"/>
      <point x="803" y="732" type="line"/>
      <point x="803" y="853" type="line"/>
    </contour>
    <contour>
      <point x="451" y="0" type="move" name="H"/>
    </contour>
    <contour>
      <point x="451" y="-84" type="move" name="L"/>
    </contour>
    <contour>
      <point x="451" y="920" type="move" name="U"/>
    </contour>
  </outline>
</glyph>
<glyph name="braceleft" format="1">
  <advance width="776"/>
  <unicode hex="007B"/>
  <outline>
    <contour>
      <point x="686" y="-384" type="curve"/>
      <point x="686" y="-417" type="line"/>
      <point x="595" y="-408"/>
      <point x="518" y="-369"/>
      <point x="454" y="-301" type="curve" smooth="yes"/>
      <point x="388" y="-231"/>
      <point x="356" y="-151"/>
      <point x="356" y="-58" type="curve" smooth="yes"/>
      <point x="356" y="-24"/>
      <point x="362" y="27"/>
      <point x="377" y="91" type="curve" smooth="yes"/>
      <point x="391" y="156"/>
      <point x="398" y="200"/>
      <point x="398" y="226" type="curve" smooth="yes"/>
      <point x="398" y="281"/>
      <point x="374" y="329"/>
      <point x="324" y="370" type="curve" smooth="yes"/>
      <point x="283" y="404"/>
      <point x="235" y="425"/>
      <point x="184" y="431" type="curve"/>
      <point x="184" y="479" type="line"/>
      <point x="235" y="485"/>
      <point x="282" y="505"/>
      <point x="323" y="540" type="curve" smooth="yes"/>
      <point x="374" y="579"/>
      <point x="398" y="626"/>
      <point x="398" y="680" type="curve" smooth="yes"/>
      <point x="398" y="707"/>
      <point x="391" y="755"/>
      <point x="377" y="823" type="curve" smooth="yes"/>
      <point x="362" y="892"/>
      <point x="356" y="945"/>
      <point x="356" y="981" type="curve" smooth="yes"/>
      <point x="356" y="1069"/>
      <point x="389" y="1147"/>
      <point x="456" y="1216" type="curve"/>
      <point x="521" y="1280"/>
      <point x="598" y="1318"/>
      <point x="686" y="1327" type="curve"/>
      <point x="686" y="1295" type="line"/>
      <point x="541" y="1259"/>
      <point x="468" y="1176"/>
      <point x="468" y="1047" type="curve" smooth="yes"/>
      <point x="468" y="1018"/>
      <point x="476" y="973"/>
      <point x="489" y="918" type="curve" smooth="yes"/>
      <point x="503" y="861"/>
      <point x="510" y="818"/>
      <point x="510" y="787" type="curve" smooth="yes"/>
      <point x="510" y="622"/>
      <point x="433" y="511"/>
      <point x="280" y="456" type="curve"/>
      <point x="433" y="400"/>
      <point x="510" y="288"/>
      <point x="510" y="119" type="curve" smooth="yes"/>
      <point x="510" y="91"/>
      <point x="503" y="47"/>
      <point x="489" y="-9" type="curve" smooth="yes"/>
      <point x="476" y="-65"/>
      <point x="468" y="-108"/>
      <point x="468" y="-137" type="curve" smooth="yes"/>
      <point x="468" y="-265"/>
      <point x="541" y="-347"/>
    </contour>
  </outline>
</glyph>
<glyph name="bar" format="2">
  <advance width="695"/>
  <unicode hex="007C"/>
  <outline>
    <contour>
      <point x="450" y="1354" type="line"/>
      <point x="450" y="-503" type="line"/>
      <point x="245" y="-503" type="line"/>
      <point x="245" y="1354" type="line"/>
    </contour>
  </outline>
</glyph>
<glyph name="braceright" format="2">
  <advance width="816"/>
  <unicode hex="007D"/>
  <outline>
    <contour>
      <point x="179" y="1274" type="curve"/>
      <point x="179" y="1347" type="line"/>
      <point x="270" y="1338"/>
      <point x="397" y="1289"/>
      <point x="461" y="1221" type="curve" smooth="yes"/>
      <point x="527" y="1151"/>
      <point x="569" y="1071"/>
      <point x="569" y="978" type="curve" smooth="yes"/>
      <point x="569" y="944"/>
      <point x="563" y="893"/>
      <point x="548" y="829" type="curve" smooth="yes"/>
      <point x="533" y="764"/>
      <point x="527" y="720"/>
      <point x="527" y="694" type="curve" smooth="yes"/>
      <point x="527" y="639"/>
      <point x="541" y="591"/>
      <point x="591" y="550" type="curve" smooth="yes"/>
      <point x="632" y="516"/>
      <point x="680" y="511"/>
      <point x="731" y="509" type="curve"/>
      <point x="731" y="401" type="line"/>
      <point x="680" y="400"/>
      <point x="633" y="395"/>
      <point x="592" y="360" type="curve" smooth="yes"/>
      <point x="543" y="318"/>
      <point x="527" y="274"/>
      <point x="527" y="220" type="curve" smooth="yes"/>
      <point x="527" y="193"/>
      <point x="534" y="145"/>
      <point x="548" y="77" type="curve" smooth="yes"/>
      <point x="562" y="8"/>
      <point x="569" y="-45"/>
      <point x="569" y="-81" type="curve" smooth="yes"/>
      <point x="569" y="-169"/>
      <point x="526" y="-247"/>
      <point x="459" y="-316" type="curve"/>
      <point x="394" y="-380"/>
      <point x="267" y="-428"/>
      <point x="179" y="-437" type="curve"/>
      <point x="179" y="-365" type="line"/>
      <point x="324" y="-329"/>
      <point x="347" y="-266"/>
      <point x="347" y="-137" type="curve" smooth="yes"/>
      <point x="347" y="-108"/>
      <point x="339" y="-63"/>
      <point x="326" y="-8" type="curve" smooth="yes"/>
      <point x="312" y="49"/>
      <point x="300" y="122"/>
      <point x="300" y="153" type="curve" smooth="yes"/>
      <point x="300" y="318"/>
      <point x="372" y="399"/>
      <point x="525" y="454" type="curve"/>
      <point x="372" y="510"/>
      <point x="300" y="592"/>
      <point x="300" y="761" type="curve" smooth="yes"/>
      <point x="300" y="789"/>
      <point x="312" y="863"/>
      <point x="326" y="919" type="curve" smooth="yes"/>
      <point x="340" y="975"/>
      <point x="347" y="1018"/>
      <point x="347" y="1047" type="curve" smooth="yes"/>
      <point x="347" y="1175"/>
      <point x="324" y="1237"/>
    </contour>
  </outline>
</glyph>
<glyph name="asciitilde" format="2">
  <advance width="1094"/>
  <unicode hex="007E"/>
  <outline>
    <contour>
      <point x="979" y="659" type="curve"/>
      <point x="1062" y="539" type="line"/>
      <point x="990" y="403"/>
      <point x="872" y="285"/>
      <point x="768" y="285" type="curve" smooth="yes"/>
      <point x="718" y="285"/>
      <point x="640" y="308"/>
      <point x="538" y="354" type="curve" smooth="yes"/>
      <point x="436" y="400"/>
      <point x="363" y="424"/>
      <point x="319" y="424" type="curve" smooth="yes"/>
      <point x="274" y="424"/>
      <point x="233" y="404"/>
      <point x="195" y="364" type="curve" smooth="yes"/>
      <point x="175" y="343"/>
      <point x="148" y="303"/>
      <point x="115" y="246" type="curve"/>
      <point x="32" y="364" type="line"/>
      <point x="71" y="434"/>
      <point x="135" y="534"/>
      <point x="166" y="565" type="curve" smooth="yes"/>
      <point x="214" y="613"/>
      <point x="267" y="636"/>
      <point x="328" y="636" type="curve" smooth="yes"/>
      <point x="375" y="636"/>
      <point x="453" y="612"/>
      <point x="564" y="565" type="curve" smooth="yes"/>
      <point x="675" y="518"/>
      <point x="746" y="494"/>
      <point x="778" y="494" type="curve" smooth="yes"/>
      <point x="856" y="494"/>
      <point x="924" y="549"/>
    </contour>
  </outline>
</glyph>
<glyph name="exclamdown" format="1">
  <advance width="688"/>
  <unicode hex="00A1"/>
  <outline>
    <contour>
      <point x="261" y="-490"/>
      <point x="210" y="-476"/>
      <point x="210" y="-441" type="curve" smooth="yes"/>
      <point x="210" y="-399"/>
      <point x="210" y="-205"/>
      <point x="214" y="-181" type="curve" smooth="yes"/>
      <point x="303" y="387" type="line" smooth="yes"/>
      <point x="306" y="409"/>
      <point x="386" y="409"/>
      <point x="389" y="387" type="curve" smooth="yes"/>
      <point x="474" y="-181" type="line"/>
      <point x="476" y="-224"/>
      <point x="479" y="-399"/>
      <point x="479" y="-441" type="curve" smooth="yes"/>
      <point x="479" y="-479"/>
      <point x="426" y="-490"/>
      <point x="343" y="-490" type="curve" smooth="yes"/>
    </contour>
    <contour>
      <point x="254" y="512"/>
      <point x="180" y="587"/>
      <point x="180" y="691" type="curve" smooth="yes"/>
      <point x="180" y="795"/>
      <point x="254" y="870"/>
      <point x="344" y="870" type="curve" smooth="yes"/>
      <point x="432" y="870"/>
      <point x="508" y="795"/>
      <point x="508" y="691" type="curve" smooth="yes"/>
      <point x="508" y="587"/>
      <point x="432" y="512"/>
      <point x="344" y="512" type="curve" smooth="yes"/>
    </contour>
  </outline>
</glyph>
<glyph name="yen" format="2">
  <advance width="1003"/>
  <unicode hex="00A5"/>
  <outline>
    <contour>
      <point x="447" y="468" type="line"/>
      <point x="620" y="548" type="line"/>
      <point x="265" y="1221" type="line"/>
      <point x="-13" y="1221" type="line"/>
      <point x="81" y="1096"/>
      <point x="136" y="1001"/>
      <point x="201" y="890" type="curve" smooth="yes"/>
    </contour>
    <contour>
      <point x="557" y="468" type="line"/>
      <point x="807" y="890" type="line" smooth="yes"/>
      <point x="870" y="999"/>
      <point x="917" y="1079"/>
      <point x="1016" y="1221" type="curve"/>
      <point x="747" y="1221" type="line"/>
      <point x="395" y="548" type="line"/>
    </contour>
    <contour>
      <point x="383" y="581" type="line"/>
      <point x="383" y="364" type="line" smooth="yes"/>
      <point x="383" y="199"/>
      <point x="383" y="67"/>
      <point x="370" y="0" type="curve"/>
      <point x="634" y="0" type="line"/>
      <point x="621" y="67"/>
      <point x="621" y="199"/>
      <point x="621" y="364" type="curve" smooth="yes"/>
      <point x="621" y="581" type="line"/>
    </contour>
    <contour>
      <point x="100" y="296" type="line"/>
      <point x="903" y="296" type="line"/>
      <point x="903" y="472" type="line"/>
      <point x="100" y="472" type="line"/>
    </contour>
    <contour>
      <point x="100" y="560" type="line"/>
      <point x="903" y="560" type="line"/>
      <point x="903" y="736" type="line"/>
      <point x="100" y="736" type="line"/>
    </contour>
  </outline>
</glyph>
<glyph name="brokenbar" format="1">
  <advance width="588"/>
  <unicode hex="00A6"/>
  <outline>
    <contour>
      <point x="338" y="1354" type="line"/>
      <point x="338" y="557" type="line"/>
      <point x="250" y="557" type="line"/>
      <point x="250" y="1354" type="line"/>
    </contour>
    <contour>
      <point x="338" y="294" type="line"/>
      <point x="338" y="-503" type="line"/>
      <point x="250" y="-503" type="line"/>
      <point x="250" y="294" type="line"/>
    </contour>
  </outline>
</glyph>
<glyph name="section" format="1">
  <advance width="915"/>
  <unicode hex="00A7"/>
  <outline>
    <contour>
      <point x="84" y="-297" type="line"/>
      <point x="156" y="-349"/>
      <point x="289" y="-393"/>
      <point x="439" y="-393" type="curve" smooth="yes"/>
      <point x="642" y="-393"/>
      <point x="803" y="-255"/>
      <point x="803" y="-78" type="curve" smooth="yes"/>
      <point x="803" y="80"/>
      <point x="718" y="161"/>
      <point x="560" y="268" type="curve" smooth="yes"/>
      <point x="431" y="356"/>
      <point x="308" y="438"/>
      <point x="308" y="502" type="curve" smooth="yes"/>
      <point x="308" y="567"/>
      <point x="360" y="604"/>
      <point x="478" y="604" type="curve"/>
      <point x="478" y="795" type="line"/>
      <point x="190" y="795"/>
      <point x="92" y="620"/>
      <point x="92" y="493" type="curve" smooth="yes"/>
      <point x="92" y="385"/>
      <point x="175" y="280"/>
      <point x="361" y="160" type="curve" smooth="yes"/>
      <point x="513" y="61"/>
      <point x="580" y="-9"/>
      <point x="580" y="-82" type="curve" smooth="yes"/>
      <point x="580" y="-168"/>
      <point x="511" y="-206"/>
      <point x="443" y="-206" type="curve" smooth="yes"/>
      <point x="345" y="-206"/>
      <point x="212" y="-161"/>
      <point x="130" y="-93" type="curve"/>
    </contour>
    <contour>
      <point x="757" y="1175" type="line"/>
      <point x="691" y="1206"/>
      <point x="592" y="1241"/>
      <point x="456" y="1241" type="curve" smooth="yes"/>
      <point x="169" y="1241"/>
      <point x="92" y="1048"/>
      <point x="92" y="966" type="curve" smooth="yes"/>
      <point x="92" y="846"/>
      <point x="188" y="748"/>
      <point x="379" y="640" type="curve" smooth="yes"/>
      <point x="538" y="550"/>
      <point x="585" y="504"/>
      <point x="585" y="456" type="curve" smooth="yes"/>
      <point x="585" y="383"/>
      <point x="523" y="346"/>
      <point x="408" y="346" type="curve"/>
      <point x="408" y="159" type="line"/>
      <point x="695" y="159"/>
      <point x="803" y="308"/>
      <point x="803" y="468" type="curve" smooth="yes"/>
      <point x="803" y="579"/>
      <point x="730" y="659"/>
      <point x="559" y="764" type="curve" smooth="yes"/>
      <point x="392" y="868"/>
      <point x="314" y="916"/>
      <point x="314" y="974" type="curve" smooth="yes"/>
      <point x="314" y="1007"/>
      <point x="349" y="1054"/>
      <point x="447" y="1054" type="curve" smooth="yes"/>
      <point x="563" y="1054"/>
      <point x="661" y="1007"/>
      <point x="724" y="975" type="curve"/>
    </contour>
  </outline>
</glyph>
<glyph name="dieresis" format="1">
  <advance width="702"/>
  <unicode hex="00A8"/>
  <outline>
    <contour>
      <point x="410" y="1158" type="curve" smooth="yes"/>
      <point x="410" y="1071"/>
      <point x="472" y="1012"/>
      <point x="556" y="1012" type="curve" smooth="yes"/>
      <point x="641" y="1012"/>
      <point x="702" y="1071"/>
      <point x="702" y="1158" type="curve" smooth="yes"/>
      <point x="702" y="1243"/>
      <point x="641" y="1304"/>
      <point x="556" y="1304" type="curve" smooth="yes"/>
      <point x="472" y="1304"/>
      <point x="410" y="1243"/>
    </contour>
    <contour>
      <point x="0" y="1158" type="curve" smooth="yes"/>
      <point x="0" y="1071"/>
      <point x="62" y="1012"/>
      <point x="146" y="1012" type="curve" smooth="yes"/>
      <point x="232" y="1012"/>
      <point x="293" y="1071"/>
      <point x="293" y="1158" type="curve" smooth="yes"/>
      <point x="293" y="1243"/>
      <point x="232" y="1304"/>
      <point x="146" y="1304" type="curve" smooth="yes"/>
      <point x="62" y="1304"/>
      <point x="0" y="1243"/>
    </contour>
    <contour>
      <point x="351" y="1325" type="move" name="U"/>
    </contour>
  </outline>
</glyph>
<glyph name="logicalnot" format="2">
  <advance width="1003"/>
  <unicode hex="00AC"/>
  <outline>
    <contour>
      <point x="903" y="284" type="line"/>
      <point x="903" y="694" type="line"/>
      <point x="79" y="694" type="line"/>
      <point x="79" y="518" type="line"/>
      <point x="727" y="518" type="line"/>
      <point x="727" y="284" type="line"/>
    </contour>
  </outline>
</glyph>
<glyph name="registered" format="1">
  <advance width="1292"/>
  <unicode hex="00AE"/>
  <outline>
    <contour>
      <point x="648" y="1107" type="curve" smooth="yes"/>
      <point x="886" y="1107"/>
      <point x="1114" y="935"/>
      <point x="1114" y="610" type="curve" smooth="yes"/>
      <point x="1114" y="286"/>
      <point x="886" y="114"/>
      <point x="648" y="114" type="curve" smooth="yes"/>
      <point x="405" y="114"/>
      <point x="177" y="286"/>
      <point x="177" y="610" type="curve" smooth="yes"/>
      <point x="177" y="935"/>
      <point x="405" y="1107"/>
    </contour>
    <contour>
      <point x="648" y="1241" type="curve" smooth="yes"/>
      <point x="338" y="1241"/>
      <point x="38" y="1028"/>
      <point x="38" y="610" type="curve" smooth="yes"/>
      <point x="38" y="184"/>
      <point x="338" y="-21"/>
      <point x="648" y="-21" type="curve" smooth="yes"/>
      <point x="945" y="-21"/>
      <point x="1254" y="184"/>
      <point x="1254" y="610" type="curve" smooth="yes"/>
      <point x="1254" y="1028"/>
      <point x="945" y="1241"/>
    </contour>
    <contour>
      <point x="520" y="543" type="line"/>
      <point x="589" y="543" type="line"/>
      <point x="772" y="252" type="line"/>
      <point x="946" y="252" type="line"/>
      <point x="920" y="282"/>
      <point x="783" y="485"/>
      <point x="728" y="562" type="curve"/>
      <point x="815" y="593"/>
      <point x="879" y="650"/>
      <point x="879" y="767" type="curve" smooth="yes"/>
      <point x="879" y="920"/>
      <point x="772" y="982"/>
      <point x="619" y="982" type="curve" smooth="yes"/>
      <point x="503" y="982"/>
      <point x="370" y="977"/>
      <point x="370" y="977" type="curve"/>
      <point x="378" y="937"/>
      <point x="378" y="845"/>
      <point x="378" y="748" type="curve" smooth="yes"/>
      <point x="378" y="468" type="line" smooth="yes"/>
      <point x="378" y="370"/>
      <point x="378" y="292"/>
      <point x="370" y="252" type="curve"/>
      <point x="527" y="252" type="line"/>
      <point x="520" y="291"/>
      <point x="520" y="370"/>
      <point x="520" y="468" type="curve" smooth="yes"/>
    </contour>
    <contour>
      <point x="522" y="864" type="line"/>
      <point x="548" y="865"/>
      <point x="563" y="866"/>
      <point x="600" y="866" type="curve" smooth="yes"/>
      <point x="686" y="866"/>
      <point x="732" y="839"/>
      <point x="732" y="765" type="curve" smooth="yes"/>
      <point x="732" y="681"/>
      <point x="679" y="653"/>
      <point x="597" y="653" type="curve" smooth="yes"/>
      <point x="522" y="653" type="line"/>
    </contour>
  </outline>
</glyph>
<glyph name="macron" format="1">
  <advance width="694"/>
  <unicode hex="00AF"/>
  <outline>
    <contour>
      <point x="0" y="1037" type="line"/>
      <point x="694" y="1037" type="line"/>
      <point x="694" y="1212" type="line"/>
      <point x="0" y="1212" type="line"/>
    </contour>
  </outline>
</glyph>
<glyph name="degree" format="2">
  <advance width="598"/>
  <unicode hex="00B0"/>
  <outline>
    <contour>
      <point x="422" y="995" type="curve" smooth="yes"/>
      <point x="422" y="927"/>
      <point x="369" y="869"/>
      <point x="301" y="869" type="curve" smooth="yes"/>
      <point x="233" y="869"/>
      <point x="176" y="927"/>
      <point x="176" y="995" type="curve" smooth="yes"/>
      <point x="176" y="1063"/>
      <point x="233" y="1116"/>
      <point x="301" y="1116" type="curve" smooth="yes"/>
      <point x="369" y="1116"/>
      <point x="422" y="1063"/>
    </contour>
    <contour>
      <point x="50" y="995" type="curve" smooth="yes"/>
      <point x="50" y="854"/>
      <point x="160" y="744"/>
      <point x="301" y="744" type="curve" smooth="yes"/>
      <point x="442" y="744"/>
      <point x="548" y="854"/>
      <point x="548" y="995" type="curve" smooth="yes"/>
      <point x="548" y="1136"/>
      <point x="442" y="1241"/>
      <point x="301" y="1241" type="curve" smooth="yes"/>
      <point x="160" y="1241"/>
      <point x="50" y="1136"/>
    </contour>
  </outline>
</glyph>
<glyph name="plusminus" format="1">
  <advance width="1003"/>
  <unicode hex="00B1"/>
  <outline>
    <contour>
      <point x="414" y="1141" type="line"/>
      <point x="414" y="393" type="line"/>
      <point x="589" y="393" type="line"/>
      <point x="589" y="1141" type="line"/>
    </contour>
    <contour>
      <point x="130" y="673" type="line"/>
      <point x="874" y="673" type="line"/>
      <point x="874" y="849" type="line"/>
      <point x="130" y="849" type="line"/>
    </contour>
    <contour>
      <point x="130" y="134" type="line"/>
      <point x="874" y="134" type="line"/>
      <point x="874" y="309" type="line"/>
      <point x="130" y="309" type="line"/>
    </contour>
  </outline>
</glyph>
<glyph name="acute" format="2">
  <advance width="535"/>
  <unicode hex="00B4"/>
  <anchor x="159" y="1367" name="U"/>
  <outline>
    <contour>
      <point x="242" y="1338" type="line"/>
      <point x="0" y="1003" type="line"/>
      <point x="201" y="1003" type="line"/>
      <point x="535" y="1338" type="line"/>
    </contour>
  </outline>
</glyph>
<glyph name="periodcentered" format="2">
  <advance width="688"/>
  <unicode hex="00B7"/>
  <outline>
    <contour>
      <point x="508" y="691" type="curve" smooth="yes"/>
      <point x="508" y="587"/>
      <point x="434" y="512"/>
      <point x="344" y="512" type="curve" smooth="yes"/>
      <point x="256" y="512"/>
      <point x="180" y="587"/>
      <point x="180" y="691" type="curve" smooth="yes"/>
      <point x="180" y="795"/>
      <point x="256" y="870"/>
      <point x="344" y="870" type="curve" smooth="yes"/>
      <point x="434" y="870"/>
      <point x="508" y="795"/>
    </contour>
  </outline>
</glyph>
<glyph name="onesuperior" format="2">
  <advance width="702"/>
  <unicode hex="00B9"/>
  <anchor x="351" y="514" name="L"/>
  <anchor x="351" y="1400" name="U"/>
  <outline>
    <contour>
      <point x="614" y="568" type="line"/>
      <point x="614" y="696" type="line"/>
      <point x="434" y="696" type="line"/>
      <point x="434" y="1362" type="line"/>
      <point x="273" y="1362" type="line"/>
      <point x="89" y="1263" type="line"/>
      <point x="109" y="1122" type="line"/>
      <point x="273" y="1204" type="line"/>
      <point x="273" y="696" type="line"/>
      <point x="93" y="696" type="line"/>
      <point x="93" y="568" type="line"/>
    </contour>
  </outline>
</glyph>
<glyph name="ordmasculine" format="1">
  <advance width="669"/>
  <unicode hex="00BA"/>
  <outline>
    <contour>
      <point x="55" y="844" type="curve" smooth="yes"/>
      <point x="55" y="657"/>
      <point x="171" y="555"/>
      <point x="334" y="555" type="curve" smooth="yes"/>
      <point x="490" y="555"/>
      <point x="624" y="657"/>
      <point x="624" y="844" type="curve" smooth="yes"/>
      <point x="624" y="1030"/>
      <point x="509" y="1134"/>
      <point x="345" y="1134" type="curve" smooth="yes"/>
      <point x="189" y="1134"/>
      <point x="55" y="1030"/>
    </contour>
    <contour>
      <point x="217" y="844" type="curve" smooth="yes"/>
      <point x="217" y="949"/>
      <point x="264" y="1011"/>
      <point x="340" y="1011" type="curve" smooth="yes"/>
      <point x="419" y="1011"/>
      <point x="462" y="949"/>
      <point x="462" y="844" type="curve" smooth="yes"/>
      <point x="462" y="741"/>
      <point x="415" y="677"/>
      <point x="340" y="677" type="curve" smooth="yes"/>
      <point x="260" y="677"/>
      <point x="217" y="741"/>
    </contour>
    <contour>
      <point x="57" y="377" type="line"/>
      <point x="621" y="377" type="line"/>
      <point x="621" y="502" type="line"/>
      <point x="57" y="502" type="line"/>
    </contour>
  </outline>
</glyph>
<glyph name="onehalf" format="2">
  <advance width="1443"/>
  <unicode hex="00BD"/>
  <outline>
    <contour>
      <point x="1085" y="1338" type="line"/>
      <point x="190" y="-42" type="line"/>
      <point x="332" y="-42" type="line"/>
      <point x="1228" y="1338" type="line"/>
    </contour>
    <contour>
      <point x="213" y="686" type="line"/>
      <point x="50" y="686" type="line"/>
      <point x="50" y="560" type="line"/>
      <point x="498" y="560" type="line"/>
      <point x="498" y="686" type="line"/>
      <point x="351" y="686" type="line"/>
      <point x="351" y="1329" type="line"/>
      <point x="213" y="1329" type="line"/>
      <point x="42" y="1232" type="line"/>
      <point x="64" y="1093" type="line"/>
      <point x="213" y="1175" type="line"/>
    </contour>
    <contour>
      <point x="1401" y="138" type="line"/>
      <point x="1359" y="131"/>
      <point x="1322" y="130"/>
      <point x="1217" y="130" type="curve" smooth="yes"/>
      <point x="1076" y="130" type="line"/>
      <point x="1193" y="224"/>
      <point x="1378" y="393"/>
      <point x="1378" y="567" type="curve" smooth="yes"/>
      <point x="1378" y="704"/>
      <point x="1273" y="790"/>
      <point x="1119" y="790" type="curve" smooth="yes"/>
      <point x="1037" y="790"/>
      <point x="942" y="746"/>
      <point x="894" y="695" type="curve"/>
      <point x="928" y="567" type="line"/>
      <point x="976" y="616"/>
      <point x="1048" y="657"/>
      <point x="1105" y="657" type="curve" smooth="yes"/>
      <point x="1187" y="657"/>
      <point x="1224" y="603"/>
      <point x="1224" y="540" type="curve" smooth="yes"/>
      <point x="1224" y="403"/>
      <point x="1023" y="221"/>
      <point x="879" y="117" type="curve"/>
      <point x="879" y="0" type="line"/>
      <point x="1401" y="0" type="line"/>
    </contour>
  </outline>
</glyph>
<glyph name="questiondown" format="2">
  <advance width="952"/>
  <unicode hex="00BF"/>
  <outline>
    <contour>
      <point x="254" y="-490"/>
      <point x="95" y="-378"/>
      <point x="95" y="-174" type="curve" smooth="yes"/>
      <point x="95" y="106"/>
      <point x="363" y="189"/>
      <point x="363" y="206" type="curve" smooth="yes"/>
      <point x="363" y="278"/>
      <point x="363" y="364"/>
      <point x="363" y="391" type="curve" smooth="yes"/>
      <point x="363" y="402"/>
      <point x="428" y="420"/>
      <point x="472" y="420" type="curve" smooth="yes"/>
      <point x="521" y="420"/>
      <point x="581" y="407"/>
      <point x="581" y="392" type="curve" smooth="yes"/>
      <point x="581" y="364"/>
      <point x="581" y="155"/>
      <point x="581" y="126" type="curve" smooth="yes"/>
      <point x="581" y="108"/>
      <point x="300" y="27"/>
      <point x="300" y="-128" type="curve" smooth="yes"/>
      <point x="300" y="-250"/>
      <point x="364" y="-302"/>
      <point x="472" y="-302" type="curve" smooth="yes"/>
      <point x="609" y="-302"/>
      <point x="676" y="-227"/>
      <point x="725" y="-154" type="curve"/>
      <point x="735" y="-135"/>
      <point x="757" y="-139"/>
      <point x="802" y="-168" type="curve" smooth="yes"/>
      <point x="836" y="-190"/>
      <point x="862" y="-212"/>
      <point x="856" y="-228" type="curve" smooth="yes"/>
      <point x="814" y="-341"/>
      <point x="667" y="-490"/>
      <point x="472" y="-490" type="curve" smooth="yes"/>
    </contour>
    <contour>
      <point x="308" y="691" type="curve" smooth="yes"/>
      <point x="308" y="795"/>
      <point x="382" y="870"/>
      <point x="472" y="870" type="curve" smooth="yes"/>
      <point x="560" y="870"/>
      <point x="636" y="795"/>
      <point x="636" y="691" type="curve" smooth="yes"/>
      <point x="636" y="587"/>
      <point x="560" y="512"/>
      <point x="472" y="512" type="curve" smooth="yes"/>
      <point x="382" y="512"/>
      <point x="308" y="587"/>
    </contour>
  </outline>
</glyph>
<glyph name="multiply" format="1">
  <advance width="1003"/>
  <unicode hex="00D7"/>
  <outline>
    <contour>
      <point x="163" y="828" type="line"/>
      <point x="379" y="612" type="line"/>
      <point x="166" y="400" type="line"/>
      <point x="290" y="276" type="line"/>
      <point x="502" y="488" type="line"/>
      <point x="716" y="274" type="line"/>
      <point x="840" y="399" type="line"/>
      <point x="626" y="612" type="line"/>
      <point x="839" y="825" type="line"/>
      <point x="716" y="949" type="line"/>
      <point x="502" y="736" type="line"/>
      <point x="288" y="951" type="line"/>
    </contour>
  </outline>
</glyph>
<glyph name="Oslash" format="1">
  <advance width="1254"/>
  <unicode hex="00D8"/>
  <outline>
    <contour>
      <point x="895" y="1282" type="line"/>
      <point x="143" y="-67" type="line"/>
      <point x="335" y="-67" type="line"/>
      <point x="1088" y="1282" type="line"/>
    </contour>
    <contour>
      <point x="920" y="598" type="curve" smooth="yes"/>
      <point x="920" y="338"/>
      <point x="786" y="184"/>
      <point x="619" y="184" type="curve" smooth="yes"/>
      <point x="438" y="184"/>
      <point x="314" y="354"/>
      <point x="314" y="623" type="curve" smooth="yes"/>
      <point x="314" y="876"/>
      <point x="442" y="1037"/>
      <point x="619" y="1037" type="curve" smooth="yes"/>
      <point x="795" y="1037"/>
      <point x="920" y="870"/>
    </contour>
    <contour>
      <point x="1158" y="619" type="curve" smooth="yes"/>
      <point x="1158" y="1019"/>
      <point x="912" y="1241"/>
      <point x="627" y="1241" type="curve" smooth="yes"/>
      <point x="338" y="1241"/>
      <point x="75" y="1002"/>
      <point x="75" y="602" type="curve" smooth="yes"/>
      <point x="75" y="201"/>
      <point x="322" y="-21"/>
      <point x="610" y="-21" type="curve" smooth="yes"/>
      <point x="896" y="-21"/>
      <point x="1158" y="217"/>
    </contour>
    <contour>
      <point x="616" y="1279" type="move" name="U"/>
    </contour>
    <contour>
      <point x="616" y="-84" type="move" name="L"/>
    </contour>
  </outline>
</glyph>
<glyph name="Thorn" format="2">
  <advance width="1066"/>
  <unicode hex="00DE"/>
  <anchor x="585" y="-84" name="L"/>
  <anchor x="560" y="1279" name="U"/>
  <outline>
    <contour>
      <point x="376" y="1216" type="line"/>
      <point x="125" y="1216" type="line"/>
      <point x="138" y="1150"/>
      <point x="138" y="1000"/>
      <point x="138" y="836" type="curve" smooth="yes"/>
      <point x="138" y="364" type="line" smooth="yes"/>
      <point x="138" y="199"/>
      <point x="138" y="67"/>
      <point x="125" y="0" type="curve"/>
      <point x="389" y="0" type="line"/>
      <point x="377" y="65"/>
      <point x="376" y="100"/>
      <point x="376" y="266" type="curve"/>
      <point x="431" y="260"/>
      <point x="481" y="257"/>
      <point x="542" y="257" type="curve" smooth="yes"/>
      <point x="817" y="257"/>
      <point x="1003" y="415"/>
      <point x="1003" y="673" type="curve" smooth="yes"/>
      <point x="1003" y="929"/>
      <point x="820" y="1058"/>
      <point x="550" y="1058" type="curve" smooth="yes"/>
      <point x="495" y="1058"/>
      <point x="435" y="1056"/>
      <point x="376" y="1056" type="curve"/>
    </contour>
    <contour>
      <point x="376" y="865" type="line"/>
      <point x="423" y="868"/>
      <point x="455" y="869"/>
      <point x="520" y="869" type="curve" smooth="yes"/>
      <point x="696" y="869"/>
      <point x="765" y="786"/>
      <point x="765" y="665" type="curve" smooth="yes"/>
      <point x="765" y="514"/>
      <point x="678" y="439"/>
      <point x="517" y="439" type="curve" smooth="yes"/>
      <point x="465" y="439"/>
      <point x="412" y="441"/>
      <point x="376" y="447" type="curve"/>
    </contour>
  </outline>
</glyph>
<glyph name="germandbls" format="1">
  <advance width="1188"/>
  <unicode hex="00DF"/>
  <outline>
    <contour>
      <point x="517" y="57" type="line"/>
      <point x="566" y="17"/>
      <point x="675" y="-21"/>
      <point x="767" y="-21" type="curve" smooth="yes"/>
      <point x="982" y="-21"/>
      <point x="1138" y="89"/>
      <point x="1138" y="274" type="curve" smooth="yes"/>
      <point x="1138" y="426"/>
      <point x="1038" y="493"/>
      <point x="944" y="549" type="curve" smooth="yes"/>
      <point x="859" y="599"/>
      <point x="778" y="637"/>
      <point x="778" y="715" type="curve" smooth="yes"/>
      <point x="778" y="844"/>
      <point x="1040" y="815"/>
      <point x="1040" y="1057" type="curve" smooth="yes"/>
      <point x="1040" y="1208"/>
      <point x="895" y="1354"/>
      <point x="610" y="1354" type="curve" smooth="yes"/>
      <point x="378" y="1354"/>
      <point x="150" y="1237"/>
      <point x="150" y="936" type="curve" smooth="yes"/>
      <point x="150" y="413" type="line" smooth="yes"/>
      <point x="150" y="251"/>
      <point x="144" y="88"/>
      <point x="125" y="0" type="curve"/>
      <point x="385" y="0" type="line"/>
      <point x="385" y="953" type="line" smooth="yes"/>
      <point x="385" y="1078"/>
      <point x="474" y="1168"/>
      <point x="634" y="1168" type="curve" smooth="yes"/>
      <point x="716" y="1168"/>
      <point x="814" y="1119"/>
      <point x="814" y="1048" type="curve" smooth="yes"/>
      <point x="814" y="913"/>
      <point x="552" y="910"/>
      <point x="552" y="706" type="curve" smooth="yes"/>
      <point x="552" y="582"/>
      <point x="624" y="516"/>
      <point x="705" y="465" type="curve" smooth="yes"/>
      <point x="803" y="402"/>
      <point x="912" y="363"/>
      <point x="912" y="267" type="curve" smooth="yes"/>
      <point x="912" y="203"/>
      <point x="851" y="167"/>
      <point x="769" y="167" type="curve" smooth="yes"/>
      <point x="692" y="167"/>
      <point x="605" y="205"/>
      <point x="559" y="245" type="curve"/>
    </contour>
    <contour>
      <point x="592" y="-84" type="move" name="L"/>
    </contour>
    <contour>
      <point x="610" y="1367" type="move" name="U"/>
    </contour>
  </outline>
</glyph>
<glyph name="oslash" format="2">
  <advance width="970"/>
  <unicode hex="00F8"/>
  <anchor x="485" y="0" name="H"/>
  <anchor x="485" y="-84" name="L"/>
  <anchor x="694" y="0" name="O"/>
  <anchor x="986" y="836" name="R"/>
  <anchor x="485" y="920" name="U"/>
  <outline>
    <contour>
      <point x="75" y="424" type="curve" smooth="yes"/>
      <point x="75" y="136"/>
      <point x="241" y="-21"/>
      <point x="477" y="-21" type="curve" smooth="yes"/>
      <point x="702" y="-21"/>
      <point x="895" y="136"/>
      <point x="895" y="424" type="curve" smooth="yes"/>
      <point x="895" y="711"/>
      <point x="730" y="869"/>
      <point x="493" y="869" type="curve" smooth="yes"/>
      <point x="268" y="869"/>
      <point x="75" y="711"/>
    </contour>
    <contour>
      <point x="305" y="424" type="curve" smooth="yes"/>
      <point x="305" y="584"/>
      <point x="377" y="681"/>
      <point x="485" y="681" type="curve" smooth="yes"/>
      <point x="599" y="681"/>
      <point x="665" y="584"/>
      <point x="665" y="424" type="curve" smooth="yes"/>
      <point x="665" y="264"/>
      <point x="593" y="167"/>
      <point x="485" y="167" type="curve" smooth="yes"/>
      <point x="370" y="167"/>
      <point x="305" y="264"/>
    </contour>
    <contour>
      <point x="666" y="925" type="line"/>
      <point x="133" y="-64" type="line"/>
      <point x="308" y="-64" type="line"/>
      <point x="842" y="925" type="line"/>
    </contour>
  </outline>
</glyph>
<glyph name="thorn" format="2">
  <advance width="1025"/>
  <unicode hex="00FE"/>
  <anchor x="476" y="-418" name="L"/>
  <anchor x="501" y="1367" name="U"/>
  <outline>
    <contour>
      <point x="100" y="1338" type="line"/>
      <point x="113" y="1244"/>
      <point x="113" y="1064"/>
      <point x="113" y="945" type="curve" smooth="yes"/>
      <point x="113" y="-410" type="line"/>
      <point x="369" y="-410" type="line"/>
      <point x="354" y="-339"/>
      <point x="348" y="-259"/>
      <point x="348" y="-125" type="curve" smooth="yes"/>
      <point x="348" y="54" type="line"/>
      <point x="426" y="8"/>
      <point x="489" y="-21"/>
      <point x="577" y="-21" type="curve" smooth="yes"/>
      <point x="782" y="-21"/>
      <point x="950" y="161"/>
      <point x="950" y="447" type="curve" smooth="yes"/>
      <point x="950" y="692"/>
      <point x="825" y="869"/>
      <point x="639" y="869" type="curve" smooth="yes"/>
      <point x="523" y="869"/>
      <point x="422" y="810"/>
      <point x="347" y="724" type="curve"/>
      <point x="347" y="1338" type="line"/>
    </contour>
    <contour>
      <point x="348" y="489" type="line"/>
      <point x="395" y="607"/>
      <point x="480" y="670"/>
      <point x="554" y="670" type="curve" smooth="yes"/>
      <point x="655" y="670"/>
      <point x="716" y="573"/>
      <point x="716" y="422" type="curve" smooth="yes"/>
      <point x="716" y="268"/>
      <point x="624" y="172"/>
      <point x="522" y="172" type="curve" smooth="yes"/>
      <point x="464" y="172"/>
      <point x="433" y="188"/>
      <point x="348" y="251" type="curve"/>
    </contour>
  </outline>
</glyph>
<glyph name="idotless" format="2">
  <advance width="539"/>
  <unicode hex="0131"/>
  <anchor x="268" y="0" name="H"/>
  <anchor x="268" y="-84" name="L"/>
  <anchor x="485" y="0" name="O"/>
  <anchor x="535" y="836" name="R"/>
  <anchor x="268" y="920" name="U"/>
  <outline>
    <contour>
      <point x="138" y="853" type="line"/>
      <point x="149" y="765"/>
      <point x="150" y="606"/>
      <point x="150" y="443" type="curve" smooth="yes"/>
      <point x="150" y="281"/>
      <point x="150" y="0"/>
      <point x="150" y="0" type="curve"/>
      <point x="401" y="0" type="line"/>
      <point x="390" y="89"/>
      <point x="385" y="289"/>
      <point x="385" y="397" type="curve" smooth="yes"/>
      <point x="385" y="466"/>
      <point x="385" y="853"/>
      <point x="385" y="853" type="curve"/>
    </contour>
  </outline>
</glyph>
<glyph name="florin" format="2">
  <advance width="669"/>
  <unicode hex="0192"/>
  <anchor x="257" y="-418" name="L"/>
  <anchor x="502" y="1367" name="U"/>
  <outline>
    <contour>
      <point x="25" y="673" type="line"/>
      <point x="640" y="673" type="line"/>
      <point x="640" y="840" type="line"/>
      <point x="25" y="840" type="line"/>
    </contour>
    <contour>
      <point x="723" y="1296" type="line"/>
      <point x="674" y="1328"/>
      <point x="584" y="1354"/>
      <point x="523" y="1354" type="curve" smooth="yes"/>
      <point x="316" y="1354"/>
      <point x="192" y="1230"/>
      <point x="192" y="978" type="curve" smooth="yes"/>
      <point x="192" y="935"/>
      <point x="192" y="63"/>
      <point x="192" y="-33" type="curve" smooth="yes"/>
      <point x="192" y="-126"/>
      <point x="166" y="-189"/>
      <point x="65" y="-189" type="curve" smooth="yes"/>
      <point x="5" y="-189"/>
      <point x="-46" y="-155"/>
      <point x="-82" y="-130" type="curve"/>
      <point x="-134" y="-325" type="line"/>
      <point x="-99" y="-352"/>
      <point x="-6" y="-393"/>
      <point x="72" y="-393" type="curve" smooth="yes"/>
      <point x="314" y="-393"/>
      <point x="426" y="-248"/>
      <point x="426" y="13" type="curve" smooth="yes"/>
      <point x="426" y="109"/>
      <point x="426" y="879"/>
      <point x="426" y="969" type="curve" smooth="yes"/>
      <point x="426" y="1105"/>
      <point x="461" y="1160"/>
      <point x="542" y="1160" type="curve" smooth="yes"/>
      <point x="583" y="1160"/>
      <point x="640" y="1139"/>
      <point x="675" y="1105" type="curve"/>
    </contour>
  </outline>
</glyph>
<glyph name="Esh" format="2">
  <advance width="1045"/>
  <unicode hex="01A9"/>
  <anchor x="493" y="-84" name="L"/>
  <anchor x="493" y="1279" name="U"/>
  <outline>
    <contour>
      <point x="641" y="624" type="line"/>
      <point x="365" y="1028" type="line"/>
      <point x="560" y="1028" type="line" smooth="yes"/>
      <point x="742" y="1028"/>
      <point x="850" y="1026"/>
      <point x="924" y="1012" type="curve"/>
      <point x="924" y="1221" type="line"/>
      <point x="79" y="1221" type="line"/>
      <point x="79" y="1074" type="line"/>
      <point x="387" y="623" type="line"/>
      <point x="54" y="134" type="line"/>
      <point x="54" y="0" type="line"/>
      <point x="974" y="0" type="line"/>
      <point x="974" y="209" type="line"/>
      <point x="907" y="197"/>
      <point x="774" y="192"/>
      <point x="610" y="192" type="curve" smooth="yes"/>
      <point x="330" y="192" type="line"/>
    </contour>
  </outline>
</glyph>
<glyph name="circumflex" format="2">
  <advance width="736"/>
  <unicode hex="02C6"/>
  <outline>
    <contour>
      <point x="736" y="1003" type="line"/>
      <point x="493" y="1338" type="line"/>
      <point x="242" y="1338" type="line"/>
      <point x="0" y="1003" type="line"/>
      <point x="201" y="1003" type="line"/>
      <point x="368" y="1195" type="line"/>
      <point x="535" y="1003" type="line"/>
    </contour>
  </outline>
</glyph>
<glyph name="caron" format="2">
  <advance width="736"/>
  <unicode hex="02C7"/>
  <anchor x="368" y="1367" name="U"/>
  <outline>
    <contour>
      <point x="535" y="1338" type="line"/>
      <point x="368" y="1145" type="line"/>
      <point x="201" y="1338" type="line"/>
      <point x="0" y="1338" type="line"/>
      <point x="242" y="1003" type="line"/>
      <point x="493" y="1003" type="line"/>
      <point x="736" y="1338" type="line"/>
    </contour>
  </outline>
</glyph>
<glyph name="breve" format="2">
  <advance width="677"/>
  <unicode hex="02D8"/>
  <anchor x="339" y="1363" name="U"/>
  <outline>
    <contour>
      <point x="518" y="1296" type="line"/>
      <point x="499" y="1195"/>
      <point x="423" y="1120"/>
      <point x="330" y="1120" type="curve" smooth="yes"/>
      <point x="238" y="1120"/>
      <point x="159" y="1195"/>
      <point x="142" y="1296" type="curve"/>
      <point x="-8" y="1296" type="line"/>
      <point x="-8" y="1134"/>
      <point x="125" y="953"/>
      <point x="330" y="953" type="curve" smooth="yes"/>
      <point x="533" y="953"/>
      <point x="669" y="1134"/>
      <point x="669" y="1296" type="curve"/>
    </contour>
  </outline>
</glyph>
<glyph name="ring" format="2">
  <advance width="410"/>
  <unicode hex="02DA"/>
  <outline>
    <contour>
      <point x="284" y="1170" type="curve" smooth="yes"/>
      <point x="284" y="1124"/>
      <point x="251" y="1091"/>
      <point x="205" y="1091" type="curve" smooth="yes"/>
      <point x="159" y="1091"/>
      <point x="125" y="1124"/>
      <point x="125" y="1170" type="curve" smooth="yes"/>
      <point x="125" y="1216"/>
      <point x="159" y="1250"/>
      <point x="205" y="1250" type="curve" smooth="yes"/>
      <point x="251" y="1250"/>
      <point x="284" y="1216"/>
    </contour>
    <contour>
      <point x="0" y="1170" type="curve" smooth="yes"/>
      <point x="0" y="1053"/>
      <point x="88" y="970"/>
      <point x="205" y="970" type="curve" smooth="yes"/>
      <point x="322" y="970"/>
      <point x="410" y="1053"/>
      <point x="410" y="1170" type="curve" smooth="yes"/>
      <point x="410" y="1287"/>
      <point x="322" y="1371"/>
      <point x="205" y="1371" type="curve" smooth="yes"/>
      <point x="88" y="1371"/>
      <point x="0" y="1287"/>
    </contour>
  </outline>
</glyph>
<glyph name="tilde" format="1">
  <advance width="694"/>
  <unicode hex="02DC"/>
  <outline>
    <contour>
      <point x="130" y="995" type="line"/>
      <point x="135" y="1030"/>
      <point x="152" y="1070"/>
      <point x="194" y="1070" type="curve" smooth="yes"/>
      <point x="230" y="1070"/>
      <point x="278" y="1057"/>
      <point x="347" y="1027" type="curve" smooth="yes"/>
      <point x="405" y="1002"/>
      <point x="449" y="986"/>
      <point x="501" y="986" type="curve" smooth="yes"/>
      <point x="614" y="986"/>
      <point x="694" y="1093"/>
      <point x="694" y="1237" type="curve"/>
      <point x="564" y="1237" type="line"/>
      <point x="558" y="1202"/>
      <point x="539" y="1162"/>
      <point x="500" y="1162" type="curve" smooth="yes"/>
      <point x="460" y="1162"/>
      <point x="429" y="1177"/>
      <point x="364" y="1201" type="curve" smooth="yes"/>
      <point x="298" y="1226"/>
      <point x="242" y="1246"/>
      <point x="188" y="1246" type="curve" smooth="yes"/>
      <point x="78" y="1246"/>
      <point x="0" y="1128"/>
      <point x="0" y="995" type="curve"/>
    </contour>
  </outline>
</glyph>
<glyph name="hungarumlaut" format="2">
  <advance width="769"/>
  <unicode hex="02DD"/>
  <outline>
    <contour>
      <point x="176" y="1338" type="line"/>
      <point x="0" y="1003" type="line"/>
      <point x="176" y="1003" type="line"/>
      <point x="426" y="1338" type="line"/>
    </contour>
    <contour>
      <point x="518" y="1338" type="line"/>
      <point x="343" y="1003" type="line"/>
      <point x="518" y="1003" type="line"/>
      <point x="769" y="1338" type="line"/>
    </contour>
  </outline>
</glyph>
<glyph name="gravecomb" format="2">
  <unicode hex="0300"/>
  <anchor x="-493" y="1367" name="U"/>
  <anchor x="-527" y="920" name="_U"/>
  <outline>
    <contour>
      <point x="-878" y="1338" type="line"/>
      <point x="-543" y="1003" type="line"/>
      <point x="-343" y="1003" type="line"/>
      <point x="-585" y="1338" type="line"/>
    </contour>
  </outline>
</glyph>
<glyph name="acutecomb" format="1">
  <advance width="0"/>
  <unicode hex="0301"/>
  <outline>
    <contour>
      <point x="-393" y="1338" type="line"/>
      <point x="-635" y="1003" type="line"/>
      <point x="-435" y="1003" type="line"/>
      <point x="-100" y="1338" type="line"/>
    </contour>
    <contour>
      <point x="-502" y="1367" type="move" name="U"/>
    </contour>
    <contour>
      <point x="-451" y="920" type="move" name="_U"/>
    </contour>
  </outline>
</glyph>
<glyph name="circumflexcomb" format="2">
  <advance width="0"/>
  <unicode hex="0302"/>
  <anchor x="-492" y="1367" name="U"/>
  <anchor x="-485" y="920" name="_U"/>
  <outline>
    <contour>
      <point x="-117" y="1003" type="line"/>
      <point x="-359" y="1338" type="line"/>
      <point x="-610" y="1338" type="line"/>
      <point x="-853" y="1003" type="line"/>
      <point x="-652" y="1003" type="line"/>
      <point x="-485" y="1195" type="line"/>
      <point x="-318" y="1003" type="line"/>
    </contour>
  </outline>
</glyph>
<glyph name="tildecomb" format="1">
  <advance width="0"/>
  <unicode hex="0303"/>
  <outline>
    <contour>
      <point x="-694" y="995" type="line"/>
      <point x="-689" y="1030"/>
      <point x="-671" y="1070"/>
      <point x="-630" y="1070" type="curve" smooth="yes"/>
      <point x="-594" y="1070"/>
      <point x="-546" y="1057"/>
      <point x="-477" y="1027" type="curve" smooth="yes"/>
      <point x="-418" y="1002"/>
      <point x="-375" y="986"/>
      <point x="-323" y="986" type="curve" smooth="yes"/>
      <point x="-209" y="986"/>
      <point x="-130" y="1093"/>
      <point x="-130" y="1237" type="curve"/>
      <point x="-259" y="1237" type="line"/>
      <point x="-266" y="1202"/>
      <point x="-284" y="1162"/>
      <point x="-324" y="1162" type="curve" smooth="yes"/>
      <point x="-364" y="1162"/>
      <point x="-395" y="1177"/>
      <point x="-460" y="1201" type="curve" smooth="yes"/>
      <point x="-526" y="1226"/>
      <point x="-581" y="1246"/>
      <point x="-635" y="1246" type="curve" smooth="yes"/>
      <point x="-746" y="1246"/>
      <point x="-823" y="1128"/>
      <point x="-823" y="995" type="curve"/>
    </contour>
    <contour>
      <point x="-485" y="1246" type="move" name="U"/>
    </contour>
    <contour>
      <point x="-485" y="920" type="move" name="_U"/>
    </contour>
  </outline>
</glyph>
<glyph name="dieresiscomb" format="1">
  <advance width="0"/>
  <unicode hex="0308"/>
  <outline>
    <contour>
      <point x="-426" y="1158" type="curve" smooth="yes"/>
      <point x="-426" y="1071"/>
      <point x="-364" y="1012"/>
      <point x="-280" y="1012" type="curve" smooth="yes"/>
      <point x="-195" y="1012"/>
      <point x="-134" y="1071"/>
      <point x="-134" y="1158" type="curve" smooth="yes"/>
      <point x="-134" y="1243"/>
      <point x="-195" y="1304"/>
      <point x="-280" y="1304" type="curve" smooth="yes"/>
      <point x="-364" y="1304"/>
      <point x="-426" y="1243"/>
    </contour>
    <contour>
      <point x="-836" y="1158" type="curve" smooth="yes"/>
      <point x="-836" y="1071"/>
      <point x="-774" y="1012"/>
      <point x="-690" y="1012" type="curve" smooth="yes"/>
      <point x="-604" y="1012"/>
      <point x="-543" y="1071"/>
      <point x="-543" y="1158" type="curve" smooth="yes"/>
      <point x="-543" y="1243"/>
      <point x="-604" y="1304"/>
      <point x="-690" y="1304" type="curve" smooth="yes"/>
      <point x="-774" y="1304"/>
      <point x="-836" y="1243"/>
    </contour>
    <contour>
      <point x="-485" y="1325" type="move" name="U"/>
    </contour>
    <contour>
      <point x="-485" y="920" type="move" name="_U"/>
    </contour>
  </outline>
</glyph>
<glyph name="ringcomb" format="1">
  <advance width="0"/>
  <unicode hex="030A"/>
  <outline>
    <contour>
      <point x="-397" y="1170" type="curve" smooth="yes"/>
      <point x="-397" y="1124"/>
      <point x="-431" y="1091"/>
      <point x="-477" y="1091" type="curve" smooth="yes"/>
      <point x="-523" y="1091"/>
      <point x="-556" y="1124"/>
      <point x="-556" y="1170" type="curve" smooth="yes"/>
      <point x="-556" y="1216"/>
      <point x="-523" y="1250"/>
      <point x="-477" y="1250" type="curve" smooth="yes"/>
      <point x="-431" y="1250"/>
      <point x="-397" y="1216"/>
    </contour>
    <contour>
      <point x="-681" y="1170" type="curve" smooth="yes"/>
      <point x="-681" y="1053"/>
      <point x="-594" y="970"/>
      <point x="-477" y="970" type="curve" smooth="yes"/>
      <point x="-359" y="970"/>
      <point x="-272" y="1053"/>
      <point x="-272" y="1170" type="curve" smooth="yes"/>
      <point x="-272" y="1287"/>
      <point x="-359" y="1371"/>
      <point x="-477" y="1371" type="curve" smooth="yes"/>
      <point x="-594" y="1371"/>
      <point x="-681" y="1287"/>
    </contour>
    <contour>
      <point x="-477" y="1367" type="move" name="U"/>
    </contour>
    <contour>
      <point x="-478" y="920" type="move" name="_U"/>
    </contour>
  </outline>
</glyph>
<glyph name="caroncomb" format="2">
  <unicode hex="030C"/>
  <anchor x="-492" y="1367" name="U"/>
  <anchor x="-492" y="920" name="_U"/>
  <outline>
    <contour>
      <point x="-318" y="1338" type="line"/>
      <point x="-485" y="1145" type="line"/>
      <point x="-652" y="1338" type="line"/>
      <point x="-853" y="1338" type="line"/>
      <point x="-610" y="1003" type="line"/>
      <point x="-359" y="1003" type="line"/>
      <point x="-117" y="1338" type="line"/>
    </contour>
  </outline>
</glyph>
<glyph name="Pi" format="2">
  <advance width="1241"/>
  <unicode hex="03A0"/>
  <outline>
    <contour>
      <point x="844" y="1032" type="line"/>
      <point x="844" y="0" type="line"/>
      <point x="1095" y="0" type="line"/>
      <point x="1083" y="67"/>
      <point x="1083" y="195"/>
      <point x="1083" y="359" type="curve" smooth="yes"/>
      <point x="1083" y="857" type="line" smooth="yes"/>
      <point x="1083" y="1022"/>
      <point x="1083" y="1154"/>
      <point x="1095" y="1221" type="curve"/>
      <point x="125" y="1221" type="line"/>
      <point x="138" y="1154"/>
      <point x="138" y="1022"/>
      <point x="138" y="857" type="curve" smooth="yes"/>
      <point x="138" y="359" type="line" smooth="yes"/>
      <point x="138" y="195"/>
      <point x="138" y="67"/>
      <point x="125" y="0" type="curve"/>
      <point x="376" y="0" type="line"/>
      <point x="376" y="1032" type="line"/>
    </contour>
  </outline>
</glyph>
<glyph name="Omega" format="2">
  <advance width="1357"/>
  <unicode hex="03A9"/>
  <outline>
    <contour>
      <point x="813" y="0" type="line"/>
      <point x="1286" y="0" type="line"/>
      <point x="1286" y="201" type="line"/>
      <point x="1219" y="189"/>
      <point x="978" y="188"/>
      <point x="813" y="188" type="curve"/>
    </contour>
    <contour>
      <point x="937" y="136" type="line"/>
      <point x="1070" y="235"/>
      <point x="1262" y="411"/>
      <point x="1262" y="677" type="curve" smooth="yes"/>
      <point x="1262" y="1043"/>
      <point x="1001" y="1241"/>
      <point x="681" y="1241" type="curve" smooth="yes"/>
      <point x="348" y="1241"/>
      <point x="79" y="1028"/>
      <point x="79" y="648" type="curve" smooth="yes"/>
      <point x="79" y="415"/>
      <point x="267" y="216"/>
      <point x="399" y="136" type="curve"/>
      <point x="523" y="188" type="line"/>
      <point x="405" y="298"/>
      <point x="317" y="457"/>
      <point x="317" y="644" type="curve" smooth="yes"/>
      <point x="317" y="859"/>
      <point x="451" y="1037"/>
      <point x="673" y="1037" type="curve" smooth="yes"/>
      <point x="899" y="1037"/>
      <point x="1024" y="878"/>
      <point x="1024" y="648" type="curve" smooth="yes"/>
      <point x="1024" y="456"/>
      <point x="918" y="289"/>
      <point x="813" y="188" type="curve"/>
    </contour>
    <contour>
      <point x="523" y="188" type="line"/>
      <point x="358" y="188"/>
      <point x="117" y="189"/>
      <point x="50" y="201" type="curve"/>
      <point x="50" y="0" type="line"/>
      <point x="523" y="0" type="line"/>
    </contour>
  </outline>
</glyph>
<glyph name="mu" format="2">
  <advance width="1041"/>
  <unicode hex="03BC"/>
  <outline>
    <contour>
      <point x="970" y="0" type="line"/>
      <point x="935" y="94"/>
      <point x="915" y="214"/>
      <point x="915" y="376" type="curve" smooth="yes"/>
      <point x="915" y="487"/>
      <point x="915" y="713"/>
      <point x="915" y="853" type="curve"/>
      <point x="665" y="853" type="line"/>
      <point x="680" y="751"/>
      <point x="681" y="696"/>
      <point x="681" y="585" type="curve" smooth="yes"/>
      <point x="681" y="349" type="line"/>
      <point x="654" y="273"/>
      <point x="564" y="172"/>
      <point x="502" y="172" type="curve" smooth="yes"/>
      <point x="390" y="172"/>
      <point x="355" y="237"/>
      <point x="355" y="389" type="curve" smooth="yes"/>
      <point x="355" y="482"/>
      <point x="355" y="709"/>
      <point x="355" y="853" type="curve"/>
      <point x="105" y="853" type="line"/>
      <point x="120" y="752"/>
      <point x="121" y="691"/>
      <point x="121" y="585" type="curve" smooth="yes"/>
      <point x="121" y="-410" type="line"/>
      <point x="376" y="-410" type="line"/>
      <point x="362" y="-339"/>
      <point x="355" y="-259"/>
      <point x="355" y="-125" type="curve" smooth="yes"/>
      <point x="355" y="21" type="line"/>
      <point x="394" y="-16"/>
      <point x="436" y="-21"/>
      <point x="483" y="-21" type="curve" smooth="yes"/>
      <point x="548" y="-21"/>
      <point x="634" y="40"/>
      <point x="702" y="155" type="curve"/>
      <point x="711" y="97"/>
      <point x="732" y="36"/>
      <point x="748" y="0" type="curve"/>
    </contour>
  </outline>
</glyph>
<glyph name="uni1980" format="2">
  <advance width="1726"/>
  <unicode hex="1980"/>
  <outline>
    <contour>
      <point x="880" y="503" type="curve" smooth="yes"/>
      <point x="874" y="494"/>
      <point x="860" y="489"/>
      <point x="852" y="498" type="curve" smooth="yes"/>
      <point x="737" y="616" type="line" smooth="yes"/>
      <point x="729" y="625"/>
      <point x="724" y="637"/>
      <point x="731" y="646" type="curve"/>
      <point x="832" y="761"/>
      <point x="966" y="870"/>
      <point x="1178" y="870" type="curve" smooth="yes"/>
      <point x="1437" y="870"/>
      <point x="1643" y="722"/>
      <point x="1643" y="449" type="curve" smooth="yes"/>
      <point x="1643" y="213"/>
      <point x="1431" y="-23"/>
      <point x="1129" y="-23" type="curve" smooth="yes"/>
      <point x="1119" y="-23"/>
      <point x="1110" y="-15"/>
      <point x="1110" y="-7" type="curve" smooth="yes"/>
      <point x="1110" y="130" type="line" smooth="yes"/>
      <point x="1110" y="140"/>
      <point x="1119" y="147"/>
      <point x="1129" y="147" type="curve" smooth="yes"/>
      <point x="1323" y="147"/>
      <point x="1408" y="291"/>
      <point x="1408" y="409" type="curve" smooth="yes"/>
      <point x="1408" y="565"/>
      <point x="1293" y="655"/>
      <point x="1168" y="655" type="curve" smooth="yes"/>
      <point x="1064" y="655"/>
      <point x="935" y="586"/>
    </contour>
    <contour>
      <point x="1673" y="-254" type="curve" smooth="yes"/>
      <point x="1673" y="-507"/>
      <point x="1446" y="-690"/>
      <point x="1146" y="-690" type="curve" smooth="yes"/>
      <point x="942" y="-690"/>
      <point x="766" y="-545"/>
      <point x="689" y="-401" type="curve" smooth="yes"/>
      <point x="685" y="-393"/>
      <point x="693" y="-381"/>
      <point x="702" y="-377" type="curve" smooth="yes"/>
      <point x="802" y="-337" type="line" smooth="yes"/>
      <point x="810" y="-334"/>
      <point x="819" y="-343"/>
      <point x="826" y="-351" type="curve" smooth="yes"/>
      <point x="897" y="-434"/>
      <point x="982" y="-502"/>
      <point x="1146" y="-502" type="curve" smooth="yes"/>
      <point x="1311" y="-502"/>
      <point x="1438" y="-398"/>
      <point x="1438" y="-264" type="curve" smooth="yes"/>
      <point x="1438" y="-102"/>
      <point x="1319" y="-23"/>
      <point x="1147" y="-23" type="curve"/>
      <point x="1147" y="147" type="line"/>
      <point x="1474" y="147"/>
      <point x="1673" y="-8"/>
    </contour>
    <contour>
      <point x="480" y="-20" type="curve" smooth="yes"/>
      <point x="272" y="-20"/>
      <point x="184" y="45"/>
      <point x="84" y="173" type="curve" smooth="yes"/>
      <point x="77" y="182"/>
      <point x="79" y="196"/>
      <point x="90" y="203" type="curve" smooth="yes"/>
      <point x="234" y="303" type="line" smooth="yes"/>
      <point x="245" y="310"/>
      <point x="256" y="307"/>
      <point x="262" y="297" type="curve" smooth="yes"/>
      <point x="297" y="239"/>
      <point x="376" y="195"/>
      <point x="480" y="195" type="curve" smooth="yes"/>
      <point x="586" y="195"/>
      <point x="687" y="255"/>
      <point x="687" y="421" type="curve" smooth="yes"/>
      <point x="687" y="594"/>
      <point x="591" y="655"/>
      <point x="470" y="655" type="curve" smooth="yes"/>
      <point x="376" y="655"/>
      <point x="297" y="610"/>
      <point x="253" y="544" type="curve" smooth="yes"/>
      <point x="247" y="535"/>
      <point x="235" y="532"/>
      <point x="225" y="539" type="curve"/>
      <point x="90" y="647" type="line"/>
      <point x="80" y="654"/>
      <point x="77" y="668"/>
      <point x="85" y="677" type="curve" smooth="yes"/>
      <point x="193" y="798"/>
      <point x="303" y="870"/>
      <point x="470" y="870" type="curve" smooth="yes"/>
      <point x="718" y="870"/>
      <point x="922" y="690"/>
      <point x="922" y="421" type="curve" smooth="yes"/>
      <point x="922" y="167"/>
      <point x="719" y="-20"/>
    </contour>
  </outline>
</glyph>
<glyph name="uni1982" format="2">
  <advance width="1692"/>
  <unicode hex="1982"/>
  <anchor x="846" y="-100" name="bottom"/>
  <outline>
    <contour>
      <point x="1244" y="-20" type="curve" smooth="yes"/>
      <point x="1493" y="-20"/>
      <point x="1607" y="196"/>
      <point x="1607" y="430" type="curve" smooth="yes"/>
      <point x="1607" y="695"/>
      <point x="1420" y="870"/>
      <point x="1170" y="870" type="curve" smooth="yes"/>
      <point x="995" y="870"/>
      <point x="824" y="762"/>
      <point x="786" y="628" type="curve" smooth="yes"/>
      <point x="776" y="594"/>
      <point x="756" y="481"/>
      <point x="756" y="436" type="curve" smooth="yes"/>
      <point x="756" y="426"/>
      <point x="763" y="417"/>
      <point x="773" y="417" type="curve" smooth="yes"/>
      <point x="920" y="417" type="line" smooth="yes"/>
      <point x="928" y="417"/>
      <point x="936" y="426"/>
      <point x="936" y="436" type="curve" smooth="yes"/>
      <point x="936" y="495"/>
      <point x="992" y="655"/>
      <point x="1160" y="655" type="curve" smooth="yes"/>
      <point x="1275" y="655"/>
      <point x="1362" y="567"/>
      <point x="1362" y="420" type="curve" smooth="yes"/>
      <point x="1362" y="285"/>
      <point x="1303" y="196"/>
      <point x="1244" y="196" type="curve" smooth="yes"/>
      <point x="1233" y="196"/>
      <point x="1219" y="197"/>
      <point x="1211" y="199" type="curve" smooth="yes"/>
      <point x="1201" y="201"/>
      <point x="1189" y="201"/>
      <point x="1186" y="193" type="curve" smooth="yes"/>
      <point x="1133" y="21" type="line" smooth="yes"/>
      <point x="1130" y="11"/>
      <point x="1131" y="1"/>
      <point x="1140" y="-3" type="curve" smooth="yes"/>
      <point x="1169" y="-16"/>
      <point x="1214" y="-20"/>
    </contour>
    <contour>
      <point x="448" y="-20" type="curve" smooth="yes"/>
      <point x="478" y="-20"/>
      <point x="523" y="-16"/>
      <point x="552" y="-3" type="curve" smooth="yes"/>
      <point x="561" y="1"/>
      <point x="562" y="11"/>
      <point x="559" y="21" type="curve" smooth="yes"/>
      <point x="506" y="193" type="line" smooth="yes"/>
      <point x="503" y="201"/>
      <point x="491" y="201"/>
      <point x="481" y="199" type="curve" smooth="yes"/>
      <point x="472" y="197"/>
      <point x="458" y="196"/>
      <point x="448" y="196" type="curve" smooth="yes"/>
      <point x="388" y="196"/>
      <point x="330" y="289"/>
      <point x="330" y="420" type="curve" smooth="yes"/>
      <point x="330" y="567"/>
      <point x="416" y="655"/>
      <point x="532" y="655" type="curve" smooth="yes"/>
      <point x="706" y="655"/>
      <point x="756" y="495"/>
      <point x="756" y="436" type="curve" smooth="yes"/>
      <point x="756" y="426"/>
      <point x="764" y="417"/>
      <point x="772" y="417" type="curve" smooth="yes"/>
      <point x="919" y="417" type="line" smooth="yes"/>
      <point x="929" y="417"/>
      <point x="936" y="426"/>
      <point x="936" y="436" type="curve" smooth="yes"/>
      <point x="936" y="481"/>
      <point x="916" y="594"/>
      <point x="906" y="628" type="curve" smooth="yes"/>
      <point x="868" y="762"/>
      <point x="697" y="870"/>
      <point x="522" y="870" type="curve" smooth="yes"/>
      <point x="272" y="870"/>
      <point x="85" y="695"/>
      <point x="85" y="430" type="curve" smooth="yes"/>
      <point x="85" y="196"/>
      <point x="199" y="-20"/>
    </contour>
  </outline>
</glyph>
<glyph name="uni1983" format="2">
  <advance width="1108"/>
  <unicode hex="1983"/>
  <outline>
    <contour>
      <point x="1042" y="-158" type="curve" smooth="yes"/>
      <point x="1042" y="269"/>
      <point x="724" y="420"/>
      <point x="459" y="420" type="curve" smooth="yes"/>
      <point x="243" y="420"/>
      <point x="84" y="314"/>
      <point x="84" y="161" type="curve" smooth="yes"/>
      <point x="84" y="27"/>
      <point x="213" y="-110"/>
      <point x="455" y="-110" type="curve" smooth="yes"/>
      <point x="710" y="-110"/>
      <point x="1023" y="105"/>
      <point x="1023" y="419" type="curve" smooth="yes"/>
      <point x="1023" y="661"/>
      <point x="828" y="870"/>
      <point x="515" y="870" type="curve" smooth="yes"/>
      <point x="321" y="870"/>
      <point x="175" y="787"/>
      <point x="84" y="649" type="curve" smooth="yes"/>
      <point x="81" y="645"/>
      <point x="80" y="641"/>
      <point x="80" y="637" type="curve" smooth="yes"/>
      <point x="80" y="630"/>
      <point x="83" y="623"/>
      <point x="90" y="619" type="curve" smooth="yes"/>
      <point x="204" y="539" type="line" smooth="yes"/>
      <point x="207" y="537"/>
      <point x="211" y="536"/>
      <point x="214" y="536" type="curve" smooth="yes"/>
      <point x="220" y="536"/>
      <point x="226" y="539"/>
      <point x="232" y="544" type="curve" smooth="yes"/>
      <point x="309" y="617"/>
      <point x="384" y="655"/>
      <point x="515" y="655" type="curve" smooth="yes"/>
      <point x="652" y="655"/>
      <point x="788" y="554"/>
      <point x="788" y="389" type="curve" smooth="yes"/>
      <point x="788" y="203"/>
      <point x="625" y="63"/>
      <point x="455" y="63" type="curve" smooth="yes"/>
      <point x="351" y="63"/>
      <point x="305" y="98"/>
      <point x="305" y="151" type="curve" smooth="yes"/>
      <point x="305" y="203"/>
      <point x="351" y="247"/>
      <point x="459" y="247" type="curve" smooth="yes"/>
      <point x="637" y="247"/>
      <point x="807" y="102"/>
      <point x="807" y="-158" type="curve" smooth="yes"/>
      <point x="807" y="-361"/>
      <point x="695" y="-502"/>
      <point x="505" y="-502" type="curve" smooth="yes"/>
      <point x="356" y="-502"/>
      <point x="250" y="-435"/>
      <point x="194" y="-351" type="curve" smooth="yes"/>
      <point x="189" y="-343"/>
      <point x="181" y="-336"/>
      <point x="174" y="-336" type="curve" smooth="yes"/>
      <point x="173" y="-336"/>
      <point x="172" y="-337"/>
      <point x="171" y="-337" type="curve" smooth="yes"/>
      <point x="71" y="-377" type="line" smooth="yes"/>
      <point x="63" y="-380"/>
      <point x="57" y="-388"/>
      <point x="57" y="-396" type="curve" smooth="yes"/>
      <point x="57" y="-397"/>
      <point x="57" y="-399"/>
      <point x="58" y="-401" type="curve" smooth="yes"/>
      <point x="126" y="-554"/>
      <point x="306" y="-690"/>
      <point x="514" y="-690" type="curve" smooth="yes"/>
      <point x="820" y="-690"/>
      <point x="1042" y="-469"/>
    </contour>
  </outline>
</glyph>
<glyph name="uni1984" format="1">
  <advance width="1622"/>
  <unicode hex="1984"/>
  <outline>
    <contour>
      <point x="927" y="-697" type="curve" smooth="yes"/>
      <point x="918" y="-694"/>
      <point x="855" y="-665"/>
      <point x="844" y="-659" type="curve" smooth="yes"/>
      <point x="837" y="-655"/>
      <point x="836" y="-647"/>
      <point x="841" y="-637" type="curve" smooth="yes"/>
      <point x="860" y="-603"/>
      <point x="883" y="-549"/>
      <point x="883" y="-519" type="curve" smooth="yes"/>
      <point x="883" y="-481"/>
      <point x="863" y="-463"/>
      <point x="833" y="-463" type="curve" smooth="yes"/>
      <point x="746" y="-463"/>
      <point x="697" y="-692"/>
      <point x="491" y="-692" type="curve" smooth="yes"/>
      <point x="375" y="-692"/>
      <point x="246" y="-603"/>
      <point x="246" y="-453" type="curve" smooth="yes"/>
      <point x="246" y="-246"/>
      <point x="398" y="-98"/>
      <point x="832" y="-98" type="curve" smooth="yes"/>
      <point x="1272" y="-98"/>
      <point x="1387" y="-277"/>
      <point x="1387" y="-444" type="curve" smooth="yes"/>
      <point x="1387" y="-526"/>
      <point x="1350" y="-604"/>
      <point x="1306" y="-674" type="curve" smooth="yes"/>
      <point x="1297" y="-688"/>
      <point x="1286" y="-702"/>
      <point x="1275" y="-699" type="curve" smooth="yes"/>
      <point x="1264" y="-695"/>
      <point x="1184" y="-658"/>
      <point x="1175" y="-654" type="curve" smooth="yes"/>
      <point x="1167" y="-649"/>
      <point x="1170" y="-644"/>
      <point x="1178" y="-628" type="curve" smooth="yes"/>
      <point x="1197" y="-593"/>
      <point x="1224" y="-529"/>
      <point x="1224" y="-472" type="curve" smooth="yes"/>
      <point x="1224" y="-338"/>
      <point x="1099" y="-236"/>
      <point x="832" y="-236" type="curve" smooth="yes"/>
      <point x="522" y="-236"/>
      <point x="419" y="-315"/>
      <point x="419" y="-453" type="curve" smooth="yes"/>
      <point x="419" y="-496"/>
      <point x="457" y="-544"/>
      <point x="491" y="-544" type="curve" smooth="yes"/>
      <point x="615" y="-544"/>
      <point x="629" y="-330"/>
      <point x="833" y="-330" type="curve" smooth="yes"/>
      <point x="966" y="-330"/>
      <point x="1020" y="-410"/>
      <point x="1020" y="-505" type="curve" smooth="yes"/>
      <point x="1020" y="-561"/>
      <point x="983" y="-631"/>
      <point x="952" y="-678" type="curve" smooth="yes"/>
      <point x="943" y="-691"/>
      <point x="935" y="-700"/>
    </contour>
    <component base="uni19A0"/>
  </outline>
</glyph>
<glyph name="uni1985" format="1">
  <advance width="1173"/>
  <unicode hex="1985"/>
  <outline>
    <contour>
      <point x="85" y="400" type="curve" smooth="yes"/>
      <point x="85" y="690"/>
      <point x="301" y="870"/>
      <point x="586" y="870" type="curve" smooth="yes"/>
      <point x="884" y="870"/>
      <point x="1088" y="690"/>
      <point x="1088" y="400" type="curve" smooth="yes"/>
      <point x="1088" y="193"/>
      <point x="959" y="60"/>
      <point x="805" y="-17" type="curve" smooth="yes"/>
      <point x="801" y="-19"/>
      <point x="797" y="-20"/>
      <point x="794" y="-20" type="curve" smooth="yes"/>
      <point x="788" y="-20"/>
      <point x="783" y="-16"/>
      <point x="780" y="-11" type="curve" smooth="yes"/>
      <point x="686" y="140" type="line" smooth="yes"/>
      <point x="681" y="147"/>
      <point x="685" y="160"/>
      <point x="694" y="164" type="curve" smooth="yes"/>
      <point x="782" y="203"/>
      <point x="853" y="279"/>
      <point x="853" y="400" type="curve" smooth="yes"/>
      <point x="853" y="554"/>
      <point x="750" y="655"/>
      <point x="586" y="655" type="curve" smooth="yes"/>
      <point x="422" y="655"/>
      <point x="320" y="554"/>
      <point x="320" y="400" type="curve" smooth="yes"/>
      <point x="320" y="279"/>
      <point x="390" y="201"/>
      <point x="470" y="161" type="curve" smooth="yes"/>
      <point x="480" y="156"/>
      <point x="482" y="143"/>
      <point x="476" y="133" type="curve"/>
      <point x="365" y="-9" type="line"/>
      <point x="359" y="-16"/>
      <point x="354" y="-20"/>
      <point x="347" y="-20" type="curve" smooth="yes"/>
      <point x="344" y="-20"/>
      <point x="339" y="-17"/>
      <point x="335" y="-15" type="curve" smooth="yes"/>
      <point x="200" y="52"/>
      <point x="85" y="193"/>
    </contour>
    <contour>
      <point x="586" y="-100" type="move" name="bottom"/>
    </contour>
  </outline>
</glyph>
<glyph name="uni1986" format="2">
  <advance width="1173"/>
  <unicode hex="1986"/>
  <anchor x="584" y="-100" name="bottom"/>
  <outline>
    <contour>
      <point x="866" y="1305"/>
      <point x="776" y="1353"/>
      <point x="642" y="1353" type="curve" smooth="yes"/>
      <point x="445" y="1353"/>
      <point x="341" y="1213"/>
      <point x="341" y="982" type="curve" smooth="yes"/>
      <point x="341" y="848"/>
      <point x="350" y="744"/>
      <point x="363" y="670" type="curve"/>
      <point x="136" y="565" type="line"/>
      <point x="122" y="659"/>
      <point x="106" y="804"/>
      <point x="106" y="982" type="curve" smooth="yes"/>
      <point x="106" y="1274"/>
      <point x="281" y="1540"/>
      <point x="642" y="1540" type="curve" smooth="yes"/>
      <point x="855" y="1540"/>
      <point x="1003" y="1403"/>
      <point x="1041" y="1289" type="curve" smooth="yes"/>
      <point x="1044" y="1280"/>
      <point x="1038" y="1269"/>
      <point x="1028" y="1265" type="curve" smooth="yes"/>
      <point x="927" y="1228" type="line" smooth="yes"/>
      <point x="919" y="1225"/>
      <point x="910" y="1230"/>
      <point x="903" y="1242" type="curve" smooth="yes"/>
    </contour>
    <contour>
      <point x="200" y="52"/>
      <point x="85" y="193"/>
      <point x="85" y="400" type="curve" smooth="yes"/>
      <point x="85" y="690"/>
      <point x="301" y="870"/>
      <point x="586" y="870" type="curve" smooth="yes"/>
      <point x="884" y="870"/>
      <point x="1088" y="690"/>
      <point x="1088" y="400" type="curve" smooth="yes"/>
      <point x="1088" y="193"/>
      <point x="959" y="60"/>
      <point x="805" y="-17" type="curve" smooth="yes"/>
      <point x="801" y="-19"/>
      <point x="797" y="-20"/>
      <point x="794" y="-20" type="curve" smooth="yes"/>
      <point x="788" y="-20"/>
      <point x="783" y="-16"/>
      <point x="780" y="-11" type="curve" smooth="yes"/>
      <point x="686" y="140" type="line" smooth="yes"/>
      <point x="681" y="147"/>
      <point x="685" y="160"/>
      <point x="694" y="164" type="curve" smooth="yes"/>
      <point x="782" y="203"/>
      <point x="853" y="279"/>
      <point x="853" y="400" type="curve" smooth="yes"/>
      <point x="853" y="554"/>
      <point x="750" y="655"/>
      <point x="586" y="655" type="curve" smooth="yes"/>
      <point x="422" y="655"/>
      <point x="320" y="554"/>
      <point x="320" y="400" type="curve" smooth="yes"/>
      <point x="320" y="279"/>
      <point x="390" y="201"/>
      <point x="470" y="161" type="curve" smooth="yes"/>
      <point x="480" y="156"/>
      <point x="482" y="143"/>
      <point x="476" y="133" type="curve"/>
      <point x="365" y="-9" type="line"/>
      <point x="359" y="-16"/>
      <point x="354" y="-20"/>
      <point x="347" y="-20" type="curve" smooth="yes"/>
      <point x="344" y="-20"/>
      <point x="339" y="-17"/>
      <point x="335" y="-15" type="curve" smooth="yes"/>
    </contour>
  </outline>
</glyph>
<glyph name="uni1987" format="1">
  <advance width="1285"/>
  <unicode hex="1987"/>
  <outline>
    <contour>
      <point x="597" y="-502" type="curve" smooth="yes"/>
      <point x="795" y="-502"/>
      <point x="953" y="-308"/>
      <point x="953" y="136" type="curve" smooth="yes"/>
      <point x="953" y="485"/>
      <point x="820" y="655"/>
      <point x="621" y="655" type="curve" smooth="yes"/>
      <point x="437" y="655"/>
      <point x="323" y="529"/>
      <point x="323" y="369" type="curve" smooth="yes"/>
      <point x="323" y="277"/>
      <point x="349" y="176"/>
      <point x="396" y="176" type="curve" smooth="yes"/>
      <point x="425" y="176"/>
      <point x="459" y="217"/>
      <point x="498" y="254" type="curve" smooth="yes"/>
      <point x="533" y="288"/>
      <point x="580" y="319"/>
      <point x="654" y="319" type="curve" smooth="yes"/>
      <point x="764" y="319"/>
      <point x="846" y="246"/>
      <point x="846" y="127" type="curve" smooth="yes"/>
      <point x="846" y="19"/>
      <point x="791" y="-66"/>
      <point x="710" y="-101" type="curve" smooth="yes"/>
      <point x="701" y="-105"/>
      <point x="693" y="-101"/>
      <point x="687" y="-94" type="curve" smooth="yes"/>
      <point x="606" y="-5" type="line" smooth="yes"/>
      <point x="604" y="-3"/>
      <point x="603" y="0"/>
      <point x="603" y="4" type="curve" smooth="yes"/>
      <point x="603" y="10"/>
      <point x="607" y="17"/>
      <point x="612" y="21" type="curve" smooth="yes"/>
      <point x="628" y="32"/>
      <point x="640" y="52"/>
      <point x="640" y="71" type="curve" smooth="yes"/>
      <point x="640" y="85"/>
      <point x="634" y="102"/>
      <point x="616" y="102" type="curve" smooth="yes"/>
      <point x="584" y="102"/>
      <point x="543" y="57"/>
      <point x="504" y="15" type="curve" smooth="yes"/>
      <point x="468" y="-23"/>
      <point x="425" y="-60"/>
      <point x="368" y="-60" type="curve" smooth="yes"/>
      <point x="207" y="-60"/>
      <point x="98" y="127"/>
      <point x="98" y="369" type="curve" smooth="yes"/>
      <point x="98" y="638"/>
      <point x="327" y="870"/>
      <point x="621" y="870" type="curve" smooth="yes"/>
      <point x="961" y="870"/>
      <point x="1188" y="627"/>
      <point x="1188" y="136" type="curve" smooth="yes"/>
      <point x="1188" y="-393"/>
      <point x="928" y="-690"/>
      <point x="607" y="-690" type="curve" smooth="yes"/>
      <point x="355" y="-690"/>
      <point x="210" y="-551"/>
      <point x="159" y="-398" type="curve" smooth="yes"/>
      <point x="156" y="-389"/>
      <point x="162" y="-378"/>
      <point x="172" y="-374" type="curve" smooth="yes"/>
      <point x="267" y="-336" type="line" smooth="yes"/>
      <point x="274" y="-333"/>
      <point x="283" y="-339"/>
      <point x="290" y="-350" type="curve" smooth="yes"/>
      <point x="340" y="-428"/>
      <point x="434" y="-502"/>
    </contour>
  </outline>
</glyph>
<glyph name="uni1988" format="1">
  <advance width="1133"/>
  <unicode hex="1988"/>
  <outline>
    <contour>
      <point x="107" y="396"/>
      <point x="320" y="488"/>
      <point x="495" y="488" type="curve"/>
      <point x="495" y="358" type="line"/>
      <point x="396" y="358"/>
      <point x="342" y="330"/>
      <point x="342" y="272" type="curve" smooth="yes"/>
      <point x="342" y="228"/>
      <point x="392" y="175"/>
      <point x="537" y="175" type="curve" smooth="yes"/>
      <point x="694" y="175"/>
      <point x="800" y="260"/>
      <point x="800" y="430" type="curve" smooth="yes"/>
      <point x="800" y="591"/>
      <point x="703" y="675"/>
      <point x="537" y="675" type="curve" smooth="yes"/>
      <point x="392" y="675"/>
      <point x="342" y="622"/>
      <point x="342" y="578" type="curve" smooth="yes"/>
      <point x="342" y="521"/>
      <point x="396" y="487"/>
      <point x="495" y="487" type="curve" smooth="yes"/>
      <point x="504" y="487"/>
      <point x="514" y="480"/>
      <point x="514" y="470" type="curve" smooth="yes"/>
      <point x="514" y="373" type="line" smooth="yes"/>
      <point x="514" y="365"/>
      <point x="504" y="357"/>
      <point x="495" y="357" type="curve" smooth="yes"/>
      <point x="319" y="357"/>
      <point x="107" y="436"/>
      <point x="107" y="598" type="curve" smooth="yes"/>
      <point x="107" y="764"/>
      <point x="307" y="870"/>
      <point x="537" y="870" type="curve" smooth="yes"/>
      <point x="835" y="870"/>
      <point x="1035" y="705"/>
      <point x="1035" y="425" type="curve" smooth="yes"/>
      <point x="1035" y="145"/>
      <point x="817" y="-20"/>
      <point x="537" y="-20" type="curve" smooth="yes"/>
      <point x="297" y="-20"/>
      <point x="107" y="77"/>
      <point x="107" y="253" type="curve" smooth="yes"/>
    </contour>
  </outline>
</glyph>
<glyph name="uni1989" format="1">
  <advance width="1715"/>
  <unicode hex="1989"/>
  <outline>
    <contour>
      <point x="1372" y="421" type="curve" smooth="yes"/>
      <point x="1372" y="558"/>
      <point x="1277" y="655"/>
      <point x="1161" y="655" type="curve" smooth="yes"/>
      <point x="1124" y="655"/>
      <point x="1088" y="647"/>
      <point x="1068" y="636" type="curve" smooth="yes"/>
      <point x="1060" y="632"/>
      <point x="1052" y="629"/>
      <point x="1048" y="637" type="curve" smooth="yes"/>
      <point x="955" y="799" type="line" smooth="yes"/>
      <point x="951" y="807"/>
      <point x="954" y="816"/>
      <point x="963" y="822" type="curve" smooth="yes"/>
      <point x="1000" y="846"/>
      <point x="1058" y="870"/>
      <point x="1161" y="870" type="curve" smooth="yes"/>
      <point x="1437" y="870"/>
      <point x="1607" y="666"/>
      <point x="1607" y="421" type="curve" smooth="yes"/>
      <point x="1607" y="176"/>
      <point x="1439" y="-20"/>
      <point x="1170" y="-20" type="curve" smooth="yes"/>
      <point x="937" y="-20"/>
      <point x="834" y="95"/>
      <point x="748" y="248" type="curve"/>
      <point x="910" y="421" type="line"/>
      <point x="910" y="267"/>
      <point x="1054" y="195"/>
      <point x="1170" y="195" type="curve" smooth="yes"/>
      <point x="1283" y="195"/>
      <point x="1372" y="284"/>
    </contour>
    <contour>
      <point x="478" y="-20" type="curve" smooth="yes"/>
      <point x="270" y="-20"/>
      <point x="182" y="55"/>
      <point x="82" y="183" type="curve" smooth="yes"/>
      <point x="75" y="192"/>
      <point x="78" y="205"/>
      <point x="88" y="213" type="curve" smooth="yes"/>
      <point x="232" y="313" type="line" smooth="yes"/>
      <point x="242" y="321"/>
      <point x="254" y="317"/>
      <point x="260" y="307" type="curve" smooth="yes"/>
      <point x="294" y="248"/>
      <point x="374" y="195"/>
      <point x="478" y="195" type="curve" smooth="yes"/>
      <point x="584" y="195"/>
      <point x="675" y="265"/>
      <point x="675" y="421" type="curve" smooth="yes"/>
      <point x="675" y="584"/>
      <point x="589" y="655"/>
      <point x="468" y="655" type="curve" smooth="yes"/>
      <point x="374" y="655"/>
      <point x="296" y="600"/>
      <point x="251" y="534" type="curve" smooth="yes"/>
      <point x="245" y="525"/>
      <point x="233" y="522"/>
      <point x="223" y="529" type="curve"/>
      <point x="88" y="637" type="line"/>
      <point x="78" y="644"/>
      <point x="75" y="658"/>
      <point x="83" y="667" type="curve" smooth="yes"/>
      <point x="183" y="795"/>
      <point x="301" y="870"/>
      <point x="468" y="870" type="curve" smooth="yes"/>
      <point x="716" y="870"/>
      <point x="910" y="690"/>
      <point x="910" y="421" type="curve" smooth="yes"/>
      <point x="910" y="167"/>
      <point x="717" y="-20"/>
    </contour>
    <contour>
      <point x="842" y="-100" type="move" name="bottom"/>
    </contour>
  </outline>
</glyph>
<glyph name="uni198A" format="1">
  <advance width="1421"/>
  <unicode hex="198A"/>
  <outline>
    <contour>
      <point x="1095" y="329"/>
      <point x="976" y="-20"/>
      <point x="527" y="-20" type="curve" smooth="yes"/>
      <point x="291" y="-20"/>
      <point x="107" y="65"/>
      <point x="107" y="248" type="curve" smooth="yes"/>
      <point x="107" y="396"/>
      <point x="323" y="503"/>
      <point x="403" y="503" type="curve" smooth="yes"/>
      <point x="421" y="503"/>
      <point x="482" y="503"/>
      <point x="493" y="503" type="curve" smooth="yes"/>
      <point x="514" y="503"/>
      <point x="536" y="492"/>
      <point x="536" y="436" type="curve" smooth="yes"/>
      <point x="536" y="400"/>
      <point x="512" y="382"/>
      <point x="491" y="382" type="curve" smooth="yes"/>
      <point x="426" y="382"/>
      <point x="340" y="345"/>
      <point x="340" y="277" type="curve" smooth="yes"/>
      <point x="340" y="218"/>
      <point x="421" y="175"/>
      <point x="543" y="175" type="curve" smooth="yes"/>
      <point x="815" y="175"/>
      <point x="854" y="423"/>
      <point x="802" y="826" type="curve" smooth="yes"/>
      <point x="760" y="1147"/>
      <point x="776" y="1540"/>
      <point x="1110" y="1540" type="curve" smooth="yes"/>
      <point x="1308" y="1540"/>
      <point x="1363" y="1400"/>
      <point x="1363" y="1255" type="curve" smooth="yes"/>
      <point x="1363" y="1219"/>
      <point x="1360" y="1182"/>
      <point x="1354" y="1147" type="curve" smooth="yes"/>
      <point x="1353" y="1138"/>
      <point x="1348" y="1128"/>
      <point x="1339" y="1128" type="curve" smooth="yes"/>
      <point x="1232" y="1129" type="line" smooth="yes"/>
      <point x="1222" y="1129"/>
      <point x="1215" y="1138"/>
      <point x="1215" y="1147" type="curve" smooth="yes"/>
      <point x="1215" y="1294"/>
      <point x="1190" y="1361"/>
      <point x="1110" y="1361" type="curve" smooth="yes"/>
      <point x="978" y="1361"/>
      <point x="1009" y="1076"/>
      <point x="1050" y="720" type="curve" smooth="yes"/>
    </contour>
    <contour>
      <point x="556" y="390"/>
      <point x="547" y="382"/>
      <point x="538" y="382" type="curve" smooth="yes"/>
      <point x="388" y="382"/>
      <point x="107" y="447"/>
      <point x="107" y="636" type="curve" smooth="yes"/>
      <point x="107" y="782"/>
      <point x="251" y="870"/>
      <point x="435" y="870" type="curve" smooth="yes"/>
      <point x="520" y="870"/>
      <point x="604" y="855"/>
      <point x="633" y="834" type="curve" smooth="yes"/>
      <point x="638" y="830"/>
      <point x="642" y="824"/>
      <point x="642" y="818" type="curve" smooth="yes"/>
      <point x="642" y="816"/>
      <point x="641" y="813"/>
      <point x="640" y="811" type="curve" smooth="yes"/>
      <point x="597" y="677" type="line" smooth="yes"/>
      <point x="595" y="672"/>
      <point x="588" y="669"/>
      <point x="581" y="669" type="curve" smooth="yes"/>
      <point x="577" y="669"/>
      <point x="574" y="669"/>
      <point x="571" y="671" type="curve" smooth="yes"/>
      <point x="551" y="681"/>
      <point x="510" y="693"/>
      <point x="455" y="693" type="curve" smooth="yes"/>
      <point x="383" y="693"/>
      <point x="340" y="656"/>
      <point x="340" y="606" type="curve" smooth="yes"/>
      <point x="340" y="534"/>
      <point x="414" y="512"/>
      <point x="538" y="512" type="curve" smooth="yes"/>
      <point x="547" y="512"/>
      <point x="556" y="505"/>
      <point x="556" y="495" type="curve" smooth="yes"/>
      <point x="556" y="398" type="line" smooth="yes"/>
    </contour>
  </outline>
</glyph>
<glyph name="uni198B" format="2">
  <advance width="1181"/>
  <unicode hex="198B"/>
  <outline>
    <contour>
      <point x="1096" y="449" type="curve" smooth="yes"/>
      <point x="1096" y="716"/>
      <point x="887" y="870"/>
      <point x="594" y="870" type="curve" smooth="yes"/>
      <point x="304" y="870"/>
      <point x="85" y="688"/>
      <point x="85" y="393" type="curve" smooth="yes"/>
      <point x="85" y="209"/>
      <point x="187" y="64"/>
      <point x="324" y="-18" type="curve" smooth="yes"/>
      <point x="328" y="-20"/>
      <point x="332" y="-21"/>
      <point x="336" y="-21" type="curve" smooth="yes"/>
      <point x="343" y="-21"/>
      <point x="350" y="-18"/>
      <point x="354" y="-12" type="curve"/>
      <point x="464" y="129" type="line"/>
      <point x="466" y="133"/>
      <point x="467" y="137"/>
      <point x="467" y="140" type="curve" smooth="yes"/>
      <point x="467" y="147"/>
      <point x="464" y="153"/>
      <point x="458" y="157" type="curve" smooth="yes"/>
      <point x="358" y="226"/>
      <point x="320" y="312"/>
      <point x="320" y="393" type="curve" smooth="yes"/>
      <point x="320" y="522"/>
      <point x="413" y="655"/>
      <point x="596" y="655" type="curve" smooth="yes"/>
      <point x="764" y="655"/>
      <point x="862" y="551"/>
      <point x="862" y="416" type="curve" smooth="yes"/>
      <point x="862" y="284"/>
      <point x="779" y="197"/>
      <point x="684" y="197" type="curve" smooth="yes"/>
      <point x="674" y="197"/>
      <point x="665" y="191"/>
      <point x="665" y="180" type="curve" smooth="yes"/>
      <point x="665" y="43" type="line" smooth="yes"/>
      <point x="665" y="34"/>
      <point x="674" y="27"/>
      <point x="684" y="27" type="curve" smooth="yes"/>
      <point x="942" y="27"/>
      <point x="1096" y="229"/>
    </contour>
    <contour>
      <point x="1135" y="-225" type="curve" smooth="yes"/>
      <point x="1135" y="7"/>
      <point x="963" y="197"/>
      <point x="686" y="197" type="curve"/>
      <point x="686" y="27" type="line"/>
      <point x="815" y="27"/>
      <point x="898" y="-76"/>
      <point x="898" y="-225" type="curve" smooth="yes"/>
      <point x="898" y="-391"/>
      <point x="755" y="-502"/>
      <point x="587" y="-502" type="curve" smooth="yes"/>
      <point x="427" y="-502"/>
      <point x="337" y="-428"/>
      <point x="277" y="-351" type="curve" smooth="yes"/>
      <point x="270" y="-343"/>
      <point x="263" y="-336"/>
      <point x="256" y="-336" type="curve" smooth="yes"/>
      <point x="254" y="-336"/>
      <point x="249" y="-338"/>
      <point x="244" y="-340" type="curve" smooth="yes"/>
      <point x="152" y="-378" type="line" smooth="yes"/>
      <point x="144" y="-381"/>
      <point x="137" y="-389"/>
      <point x="137" y="-396" type="curve" smooth="yes"/>
      <point x="137" y="-398"/>
      <point x="138" y="-400"/>
      <point x="139" y="-402" type="curve" smooth="yes"/>
      <point x="206" y="-526"/>
      <point x="343" y="-690"/>
      <point x="597" y="-690" type="curve" smooth="yes"/>
      <point x="914" y="-690"/>
      <point x="1135" y="-482"/>
    </contour>
  </outline>
</glyph>
<glyph name="uni198C" format="1">
  <advance width="1179"/>
  <unicode hex="198C"/>
  <outline>
    <contour>
      <point x="1109" y="449" type="curve" smooth="yes"/>
      <point x="1109" y="229"/>
      <point x="955" y="28"/>
      <point x="697" y="27" type="curve" smooth="yes"/>
      <point x="687" y="27"/>
      <point x="678" y="34"/>
      <point x="678" y="43" type="curve" smooth="yes"/>
      <point x="678" y="180" type="line" smooth="yes"/>
      <point x="678" y="191"/>
      <point x="687" y="197"/>
      <point x="697" y="197" type="curve" smooth="yes"/>
      <point x="792" y="197"/>
      <point x="875" y="284"/>
      <point x="875" y="416" type="curve" smooth="yes"/>
      <point x="875" y="551"/>
      <point x="777" y="655"/>
      <point x="609" y="655" type="curve" smooth="yes"/>
      <point x="426" y="655"/>
      <point x="333" y="522"/>
      <point x="333" y="393" type="curve" smooth="yes"/>
      <point x="333" y="312"/>
      <point x="371" y="226"/>
      <point x="471" y="157" type="curve" smooth="yes"/>
      <point x="477" y="153"/>
      <point x="480" y="147"/>
      <point x="480" y="140" type="curve" smooth="yes"/>
      <point x="480" y="137"/>
      <point x="479" y="133"/>
      <point x="477" y="129" type="curve"/>
      <point x="367" y="-12" type="line"/>
      <point x="363" y="-18"/>
      <point x="356" y="-21"/>
      <point x="349" y="-21" type="curve" smooth="yes"/>
      <point x="345" y="-21"/>
      <point x="341" y="-20"/>
      <point x="337" y="-18" type="curve" smooth="yes"/>
      <point x="200" y="64"/>
      <point x="98" y="209"/>
      <point x="98" y="393" type="curve" smooth="yes"/>
      <point x="98" y="688"/>
      <point x="317" y="870"/>
      <point x="607" y="870" type="curve" smooth="yes"/>
      <point x="900" y="870"/>
      <point x="1109" y="716"/>
    </contour>
    <contour>
      <point x="1148" y="-225" type="curve" smooth="yes"/>
      <point x="1148" y="-482"/>
      <point x="907" y="-690"/>
      <point x="610" y="-690" type="curve" smooth="yes"/>
      <point x="396" y="-690"/>
      <point x="219" y="-526"/>
      <point x="152" y="-402" type="curve" smooth="yes"/>
      <point x="147" y="-393"/>
      <point x="155" y="-382"/>
      <point x="165" y="-378" type="curve" smooth="yes"/>
      <point x="266" y="-337" type="line" smooth="yes"/>
      <point x="273" y="-334"/>
      <point x="282" y="-341"/>
      <point x="290" y="-351" type="curve" smooth="yes"/>
      <point x="350" y="-428"/>
      <point x="450" y="-502"/>
      <point x="610" y="-502" type="curve" smooth="yes"/>
      <point x="768" y="-502"/>
      <point x="911" y="-381"/>
      <point x="911" y="-225" type="curve" smooth="yes"/>
      <point x="911" y="-76"/>
      <point x="828" y="27"/>
      <point x="699" y="27" type="curve"/>
      <point x="699" y="197" type="line"/>
      <point x="976" y="197"/>
      <point x="1148" y="7"/>
    </contour>
    <contour>
      <point x="652" y="1353" type="curve" smooth="yes"/>
      <point x="455" y="1353"/>
      <point x="351" y="1213"/>
      <point x="351" y="982" type="curve" smooth="yes"/>
      <point x="351" y="848"/>
      <point x="360" y="744"/>
      <point x="373" y="670" type="curve"/>
      <point x="146" y="565" type="line"/>
      <point x="132" y="659"/>
      <point x="116" y="804"/>
      <point x="116" y="982" type="curve" smooth="yes"/>
      <point x="116" y="1274"/>
      <point x="291" y="1540"/>
      <point x="652" y="1540" type="curve" smooth="yes"/>
      <point x="865" y="1540"/>
      <point x="1013" y="1403"/>
      <point x="1051" y="1289" type="curve" smooth="yes"/>
      <point x="1054" y="1280"/>
      <point x="1048" y="1269"/>
      <point x="1038" y="1265" type="curve" smooth="yes"/>
      <point x="937" y="1228" type="line" smooth="yes"/>
      <point x="929" y="1225"/>
      <point x="920" y="1230"/>
      <point x="913" y="1242" type="curve" smooth="yes"/>
      <point x="877" y="1305"/>
      <point x="786" y="1353"/>
    </contour>
  </outline>
</glyph>
<glyph name="uni198D" format="2">
  <advance width="1765"/>
  <unicode hex="198D"/>
  <outline>
    <contour>
      <point x="793" y="415" type="curve" smooth="yes"/>
      <point x="793" y="425"/>
      <point x="800" y="434"/>
      <point x="809" y="434" type="curve" smooth="yes"/>
      <point x="955" y="434" type="line" smooth="yes"/>
      <point x="966" y="434"/>
      <point x="972" y="425"/>
      <point x="972" y="415" type="curve" smooth="yes"/>
      <point x="972" y="369"/>
      <point x="953" y="257"/>
      <point x="943" y="223" type="curve" smooth="yes"/>
      <point x="904" y="89"/>
      <point x="744" y="-20"/>
      <point x="540" y="-20" type="curve" smooth="yes"/>
      <point x="243" y="-20"/>
      <point x="85" y="176"/>
      <point x="85" y="421" type="curve" smooth="yes"/>
      <point x="85" y="666"/>
      <point x="236" y="870"/>
      <point x="475" y="870" type="curve" smooth="yes"/>
      <point x="515" y="870"/>
      <point x="569" y="865"/>
      <point x="598" y="853" type="curve" smooth="yes"/>
      <point x="608" y="849"/>
      <point x="610" y="838"/>
      <point x="606" y="829" type="curve" smooth="yes"/>
      <point x="533" y="657" type="line" smooth="yes"/>
      <point x="530" y="650"/>
      <point x="518" y="650"/>
      <point x="508" y="652" type="curve" smooth="yes"/>
      <point x="499" y="654"/>
      <point x="485" y="655"/>
      <point x="475" y="655" type="curve" smooth="yes"/>
      <point x="395" y="655"/>
      <point x="340" y="582"/>
      <point x="340" y="431" type="curve" smooth="yes"/>
      <point x="340" y="294"/>
      <point x="427" y="195"/>
      <point x="550" y="195" type="curve" smooth="yes"/>
      <point x="714" y="195"/>
      <point x="793" y="325"/>
    </contour>
    <contour>
      <point x="972" y="415" type="curve" smooth="yes"/>
      <point x="972" y="325"/>
      <point x="1051" y="195"/>
      <point x="1215" y="195" type="curve" smooth="yes"/>
      <point x="1338" y="195"/>
      <point x="1425" y="294"/>
      <point x="1425" y="431" type="curve" smooth="yes"/>
      <point x="1425" y="578"/>
      <point x="1370" y="655"/>
      <point x="1290" y="655" type="curve" smooth="yes"/>
      <point x="1280" y="655"/>
      <point x="1266" y="654"/>
      <point x="1258" y="652" type="curve" smooth="yes"/>
      <point x="1247" y="649"/>
      <point x="1235" y="650"/>
      <point x="1232" y="657" type="curve" smooth="yes"/>
      <point x="1159" y="829" type="line" smooth="yes"/>
      <point x="1155" y="838"/>
      <point x="1158" y="849"/>
      <point x="1167" y="853" type="curve" smooth="yes"/>
      <point x="1196" y="866"/>
      <point x="1260" y="870"/>
      <point x="1290" y="870" type="curve" smooth="yes"/>
      <point x="1539" y="870"/>
      <point x="1680" y="675"/>
      <point x="1680" y="421" type="curve" smooth="yes"/>
      <point x="1680" y="176"/>
      <point x="1523" y="-20"/>
      <point x="1225" y="-20" type="curve" smooth="yes"/>
      <point x="1021" y="-20"/>
      <point x="861" y="89"/>
      <point x="822" y="223" type="curve" smooth="yes"/>
      <point x="812" y="257"/>
      <point x="793" y="369"/>
      <point x="793" y="415" type="curve" smooth="yes"/>
      <point x="793" y="425"/>
      <point x="799" y="434"/>
      <point x="810" y="434" type="curve" smooth="yes"/>
      <point x="956" y="434" type="line" smooth="yes"/>
      <point x="965" y="434"/>
      <point x="972" y="425"/>
    </contour>
  </outline>
</glyph>
<glyph name="uni198E" format="2">
  <advance width="1704"/>
  <unicode hex="198E"/>
  <outline>
    <contour>
      <point x="1172" y="655" type="curve" smooth="yes"/>
      <point x="1035" y="655"/>
      <point x="928" y="575"/>
      <point x="872" y="487" type="curve"/>
      <point x="757" y="669" type="line"/>
      <point x="834" y="770"/>
      <point x="988" y="870"/>
      <point x="1172" y="870" type="curve" smooth="yes"/>
      <point x="1431" y="870"/>
      <point x="1619" y="694"/>
      <point x="1619" y="421" type="curve" smooth="yes"/>
      <point x="1619" y="194"/>
      <point x="1468" y="-20"/>
      <point x="1192" y="-20" type="curve" smooth="yes"/>
      <point x="1138" y="-20"/>
      <point x="1032" y="-7"/>
      <point x="983" y="28" type="curve" smooth="yes"/>
      <point x="976" y="33"/>
      <point x="971" y="43"/>
      <point x="976" y="51" type="curve" smooth="yes"/>
      <point x="1069" y="213" type="line" smooth="yes"/>
      <point x="1073" y="220"/>
      <point x="1086" y="223"/>
      <point x="1094" y="219" type="curve" smooth="yes"/>
      <point x="1119" y="207"/>
      <point x="1154" y="195"/>
      <point x="1192" y="195" type="curve" smooth="yes"/>
      <point x="1318" y="195"/>
      <point x="1384" y="292"/>
      <point x="1384" y="421" type="curve" smooth="yes"/>
      <point x="1384" y="586"/>
      <point x="1277" y="655"/>
    </contour>
    <contour>
      <point x="508" y="870" type="curve" smooth="yes"/>
      <point x="755" y="870"/>
      <point x="937" y="705"/>
      <point x="937" y="421" type="curve" smooth="yes"/>
      <point x="937" y="155"/>
      <point x="765" y="-20"/>
      <point x="508" y="-20" type="curve" smooth="yes"/>
      <point x="253" y="-20"/>
      <point x="85" y="156"/>
      <point x="85" y="421" type="curve" smooth="yes"/>
      <point x="85" y="695"/>
      <point x="262" y="870"/>
    </contour>
    <contour>
      <point x="508" y="655" type="curve" smooth="yes"/>
      <point x="378" y="655"/>
      <point x="320" y="539"/>
      <point x="320" y="421" type="curve" smooth="yes"/>
      <point x="320" y="304"/>
      <point x="387" y="195"/>
      <point x="508" y="195" type="curve" smooth="yes"/>
      <point x="641" y="195"/>
      <point x="702" y="303"/>
      <point x="702" y="421" type="curve" smooth="yes"/>
      <point x="702" y="539"/>
      <point x="638" y="655"/>
    </contour>
  </outline>
</glyph>
